RobotoMono-Regular.ufo
<glyph name="numbersign" format="2">
  <advance width="1229"/>
  <unicode hex="0023"/>
  <outline>
    <contour>
      <point x="707" y="410" type="line"/>
      <point x="443" y="410" type="line"/>
      <point x="363" y="0" type="line"/>
      <point x="220" y="0" type="line"/>
      <point x="300" y="410" type="line"/>
      <point x="61" y="410" type="line"/>
      <point x="61" y="547" type="line"/>
      <point x="326" y="547" type="line"/>
      <point x="395" y="901" type="line"/>
      <point x="137" y="901" type="line"/>
      <point x="137" y="1040" type="line"/>
      <point x="422" y="1040" type="line"/>
      <point x="504" y="1456" type="line"/>
      <point x="647" y="1456" type="line"/>
      <point x="565" y="1040" type="line"/>
      <point x="829" y="1040" type="line"/>
      <point x="911" y="1456" type="line"/>
      <point x="1054" y="1456" type="line"/>
      <point x="972" y="1040" type="line"/>
      <point x="1177" y="1040" type="line"/>
      <point x="1177" y="901" type="line"/>
      <point x="945" y="901" type="line"/>
      <point x="876" y="547" type="line"/>
      <point x="1102" y="547" type="line"/>
      <point x="1102" y="410" type="line"/>
      <point x="850" y="410" type="line"/>
      <point x="770" y="0" type="line"/>
      <point x="627" y="0" type="line"/>
    </contour>
    <contour>
      <point x="469" y="547" type="line"/>
      <point x="733" y="547" type="line"/>
      <point x="802" y="901" type="line"/>
      <point x="538" y="901" type="line"/>
    </contour>
  </outline>
</glyph>
<glyph name="parenleft" format="2">
  <advance width="1229"/>
  <unicode hex="0028"/>
  <outline>
    <contour>
      <point x="357" y="591" type="line" smooth="yes"/>
      <point x="357" y="734"/>
      <point x="402" y="986"/>
      <point x="440" y="1094" type="qcurve" smooth="yes" name="inserted"/>
      <point x="478" y="1201"/>
      <point x="577" y="1379"/>
      <point x="632" y="1448" type="qcurve" smooth="yes" name="inserted"/>
      <point x="686" y="1517"/>
      <point x="796" y="1615"/>
      <point x="846" y="1643" type="qcurve"/>
      <point x="885" y="1521" type="line"/>
      <point x="853" y="1497"/>
      <point x="788" y="1429"/>
      <point x="757" y="1387" type="qcurve" smooth="yes"/>
      <point x="711" y="1322"/>
      <point x="627" y="1147"/>
      <point x="599" y="1043" type="qcurve" smooth="yes"/>
      <point x="572" y="949"/>
      <point x="542" y="723"/>
      <point x="542" y="593" type="qcurve" smooth="yes"/>
      <point x="542" y="579" type="line" smooth="yes"/>
      <point x="542" y="454"/>
      <point x="570" y="236"/>
      <point x="594" y="144" type="qcurve" smooth="yes"/>
      <point x="620.4034197166727" y="50.57251484869613"/>
      <point x="687.571867089057" y="-107.9631445710435"/>
      <point x="725" y="-171" type="qcurve" smooth="yes"/>
      <point x="763" y="-231"/>
      <point x="844" y="-324"/>
      <point x="885" y="-357" type="qcurve"/>
      <point x="846" y="-470" type="line"/>
      <point x="796" y="-442"/>
      <point x="685" y="-345"/>
      <point x="631" y="-275" type="qcurve" smooth="yes" name="inserted"/>
      <point x="576" y="-206"/>
      <point x="477" y="-29"/>
      <point x="440" y="79" type="qcurve" smooth="yes" name="inserted"/>
      <point x="402" y="186"/>
      <point x="357" y="438"/>
      <point x="357" y="581" type="qcurve" smooth="yes"/>
    </contour>
  </outline>
</glyph>
<glyph name="parenright" format="2">
  <advance width="1229"/>
  <unicode hex="0029"/>
  <outline>
    <contour>
      <point x="849" y="581" type="line" smooth="yes"/>
      <point x="849" y="438"/>
      <point x="804" y="186"/>
      <point x="766" y="79" type="qcurve" smooth="yes" name="inserted"/>
      <point x="728" y="-29"/>
      <point x="629" y="-206"/>
      <point x="575" y="-275" type="qcurve" smooth="yes" name="inserted"/>
      <point x="520" y="-345"/>
      <point x="409" y="-442"/>
      <point x="359" y="-470" type="qcurve"/>
      <point x="320" y="-357" type="line"/>
      <point x="362" y="-326"/>
      <point x="448" y="-228"/>
      <point x="487" y="-164" type="qcurve" smooth="yes"/>
      <point x="523.8488169231741" y="-98.9726760179279"/>
      <point x="592.7223093552833" y="64.46334053956136"/>
      <point x="615" y="161" type="qcurve" smooth="yes"/>
      <point x="638" y="251"/>
      <point x="663" y="460"/>
      <point x="663" y="579" type="qcurve" smooth="yes"/>
      <point x="663" y="593" type="line" smooth="yes"/>
      <point x="663" y="728"/>
      <point x="630" y="948"/>
      <point x="610" y="1025" type="qcurve" smooth="yes"/>
      <point x="581" y="1135"/>
      <point x="499" y="1310"/>
      <point x="456" y="1375" type="qcurve" smooth="yes"/>
      <point x="423" y="1426"/>
      <point x="353" y="1503"/>
      <point x="320" y="1530" type="qcurve"/>
      <point x="359" y="1643" type="line"/>
      <point x="409" y="1615"/>
      <point x="521" y="1517"/>
      <point x="575" y="1448" type="qcurve" smooth="yes" name="inserted"/>
      <point x="631" y="1377"/>
      <point x="729" y="1203"/>
      <point x="766" y="1094" type="qcurve" smooth="yes" name="inserted"/>
      <point x="802" y="989"/>
      <point x="849" y="744"/>
      <point x="849" y="591" type="qcurve" smooth="yes"/>
    </contour>
  </outline>
</glyph>
<glyph name="comma" format="2">
  <advance width="1229"/>
  <unicode hex="002C"/>
  <outline>
    <contour>
      <point x="643" y="43" type="line" smooth="yes"/>
      <point x="643.0" y="-57"/>
      <point x="549" y="-265"/>
      <point x="469" y="-336" type="qcurve"/>
      <point x="354" y="-273" type="line"/>
      <point x="402" y="-203"/>
      <point x="442" y="-45"/>
      <point x="442" y="40" type="qcurve" smooth="yes"/>
      <point x="442" y="219" type="line"/>
      <point x="643" y="219" type="line"/>
    </contour>
  </outline>
</glyph>
<glyph name="period" format="2">
  <advance width="1229"/>
  <unicode hex="002E"/>
  <outline>
    <contour>
      <point x="496" y="120" type="qcurve" smooth="yes"/>
      <point x="496.0" y="179.18080425582156"/>
      <point x="567.989368266485" y="263.0"/>
      <point x="641" y="263" type="qcurve" smooth="yes"/>
      <point x="713.049827013466" y="263.0"/>
      <point x="788.0" y="179.95853487997528"/>
      <point x="788" y="120" type="qcurve" smooth="yes"/>
      <point x="788.0" y="61.2270881945977"/>
      <point x="712.0654315178728" y="-19.0"/>
      <point x="641" y="-19" type="qcurve" smooth="yes"/>
      <point x="569.0" y="-19.0"/>
      <point x="496.0" y="62.00000000000001"/>
    </contour>
  </outline>
</glyph>
<glyph name="zero" format="2">
  <advance width="1229"/>
  <unicode hex="0030"/>
  <outline>
    <contour>
      <point x="1088" y="557" type="line" smooth="yes"/>
      <point x="1088" y="418"/>
      <point x="1024" y="203"/>
      <point x="964" y="130" type="qcurve" smooth="yes" name="inserted"/>
      <point x="904" y="56"/>
      <point x="730" y="-20"/>
      <point x="618" y="-20" type="qcurve" smooth="yes"/>
      <point x="507.423328066509" y="-20.0"/>
      <point x="330.9711472081605" y="54.95858805149484"/>
      <point x="270" y="130" type="qcurve" smooth="yes" name="inserted"/>
      <point x="209" y="203"/>
      <point x="145" y="418"/>
      <point x="145" y="557" type="qcurve" smooth="yes"/>
      <point x="145" y="898" type="line" smooth="yes"/>
      <point x="145" y="1037"/>
      <point x="209" y="1252"/>
      <point x="270" y="1326" type="qcurve" smooth="yes" name="inserted"/>
      <point x="330" y="1400"/>
      <point x="505" y="1477"/>
      <point x="616" y="1477" type="qcurve" smooth="yes"/>
      <point x="728" y="1477"/>
      <point x="903" y="1400"/>
      <point x="964" y="1326" type="qcurve" smooth="yes" name="inserted"/>
      <point x="1024" y="1252"/>
      <point x="1088" y="1037"/>
      <point x="1088" y="898" type="qcurve" smooth="yes"/>
    </contour>
    <contour>
      <point x="331" y="594" type="qcurve"/>
      <point x="898" y="1029" type="line"/>
      <point x="890" y="1101"/>
      <point x="849" y="1212"/>
      <point x="814" y="1249" type="qcurve" smooth="yes"/>
      <point x="780" y="1287"/>
      <point x="681" y="1325"/>
      <point x="616" y="1325" type="qcurve" smooth="yes"/>
      <point x="550" y="1325"/>
      <point x="449" y="1284"/>
      <point x="414" y="1245" type="qcurve" smooth="yes"/>
      <point x="372" y="1196"/>
      <point x="331" y="1041"/>
      <point x="331" y="939" type="qcurve"/>
      <point x="331" y="695" type="line" smooth="yes"/>
      <point x="331.0" y="670.0"/>
      <point x="331" y="620"/>
    </contour>
    <contour>
      <point x="902" y="518" type="qcurve" smooth="yes"/>
      <point x="902" y="724" type="line" smooth="yes"/>
      <point x="902" y="739"/>
      <point x="902" y="824"/>
      <point x="902" y="852" type="qcurve"/>
      <point x="336" y="419" type="line"/>
      <point x="345" y="346"/>
      <point x="391" y="235"/>
      <point x="428" y="199" type="qcurve" smooth="yes"/>
      <point x="462" y="165"/>
      <point x="558" y="130"/>
      <point x="618" y="130" type="qcurve" smooth="yes"/>
      <point x="681" y="130"/>
      <point x="779" y="168"/>
      <point x="813" y="204" type="qcurve" smooth="yes"/>
      <point x="859" y="253"/>
      <point x="902.0" y="411.0"/>
    </contour>
  </outline>
</glyph>
<glyph name="greater" format="2">
  <advance width="1229"/>
  <unicode hex="003E"/>
  <outline>
    <contour>
      <point x="178" y="197" type="line"/>
      <point x="178" y="389" type="line"/>
      <point x="825" y="633" type="line"/>
      <point x="885" y="650" type="line"/>
      <point x="825" y="669" type="line"/>
      <point x="178" y="909" type="line"/>
      <point x="178" y="1100" type="line"/>
      <point x="1061" y="722" type="line"/>
      <point x="1061" y="576" type="line"/>
    </contour>
  </outline>
</glyph>
<glyph name="at" format="2">
  <advance width="1229"/>
  <unicode hex="0040"/>
  <outline>
    <contour>
      <point x="1159" y="789" type="qcurve" smooth="yes"/>
      <point x="1156" y="709"/>
      <point x="1124" y="542"/>
      <point x="1092" y="474" type="qcurve" smooth="yes" name="inserted"/>
      <point x="1059" y="406"/>
      <point x="957" y="320"/>
      <point x="883" y="320" type="qcurve" smooth="yes"/>
      <point x="847" y="320"/>
      <point x="789" y="342"/>
      <point x="768" y="363" type="qcurve" smooth="yes"/>
      <point x="753" y="378"/>
      <point x="731" y="417"/>
      <point x="724" y="441" type="qcurve"/>
      <point x="708" y="416"/>
      <point x="669" y="374"/>
      <point x="647" y="358" type="qcurve" smooth="yes"/>
      <point x="620" y="340"/>
      <point x="558" y="320"/>
      <point x="524" y="320" type="qcurve" smooth="yes"/>
      <point x="475" y="320"/>
      <point x="403" y="372"/>
      <point x="381" y="419" type="qcurve" smooth="yes" name="inserted"/>
      <point x="358" y="466"/>
      <point x="341" y="596"/>
      <point x="347" y="674" type="qcurve" smooth="yes"/>
      <point x="356" y="785"/>
      <point x="412" y="964"/>
      <point x="457" y="1027" type="qcurve" smooth="yes" name="inserted"/>
      <point x="501" y="1089"/>
      <point x="619" y="1156"/>
      <point x="690" y="1156" type="qcurve" smooth="yes"/>
      <point x="757" y="1156"/>
      <point x="845" y="1103"/>
      <point x="871" y="1067" type="qcurve"/>
      <point x="827" y="563" type="line" smooth="yes"/>
      <point x="824" y="522"/>
      <point x="834" y="471"/>
      <point x="844" y="457" type="qcurve" smooth="yes" name="inserted"/>
      <point x="853" y="442"/>
      <point x="881" y="432"/>
      <point x="897" y="432" type="qcurve" smooth="yes"/>
      <point x="934" y="432"/>
      <point x="991" y="489"/>
      <point x="1010" y="538" type="qcurve" smooth="yes" name="inserted"/>
      <point x="1029" y="586"/>
      <point x="1049" y="716"/>
      <point x="1050" y="789" type="qcurve" smooth="yes"/>
      <point x="1054" y="916"/>
      <point x="1004" y="1118"/>
      <point x="953" y="1188" type="qcurve" smooth="yes" name="inserted"/>
      <point x="901" y="1258"/>
      <point x="751" y="1332"/>
      <point x="655" y="1332" type="qcurve" smooth="yes"/>
      <point x="558" y="1332"/>
      <point x="399" y="1245"/>
      <point x="336" y="1165" type="qcurve" smooth="yes"/>
      <point x="269" y="1079"/>
      <point x="195" y="836"/>
      <point x="191" y="691" type="qcurve" smooth="yes"/>
      <point x="186" y="555"/>
      <point x="234" y="343"/>
      <point x="287" y="270" type="qcurve" smooth="yes" name="inserted"/>
      <point x="340" y="196"/>
      <point x="505" y="119"/>
      <point x="617" y="119" type="qcurve" smooth="yes"/>
      <point x="647" y="119"/>
      <point x="709" y="128"/>
      <point x="739" y="137" type="qcurve" smooth="yes" name="inserted"/>
      <point x="769" y="145"/>
      <point x="823" y="169"/>
      <point x="845" y="184" type="qcurve"/>
      <point x="877" y="67" type="line"/>
      <point x="852" y="48"/>
      <point x="788" y="20"/>
      <point x="753" y="11" type="qcurve" smooth="yes" name="inserted"/>
      <point x="718" y="1"/>
      <point x="646" y="-8"/>
      <point x="614" y="-8" type="qcurve" smooth="yes"/>
      <point x="467" y="-8"/>
      <point x="256" y="95"/>
      <point x="190" y="188" type="qcurve" smooth="yes" name="inserted"/>
      <point x="123" y="281"/>
      <point x="64" y="538"/>
      <point x="69" y="691" type="qcurve" smooth="yes"/>
      <point x="75" y="851"/>
      <point x="170" y="1139"/>
      <point x="250" y="1244" type="qcurve" smooth="yes"/>
      <point x="326" y="1344"/>
      <point x="533" y="1458"/>
      <point x="658" y="1458" type="qcurve" smooth="yes"/>
      <point x="780" y="1458"/>
      <point x="970" y="1363"/>
      <point x="1035" y="1275" type="qcurve" smooth="yes" name="inserted"/>
      <point x="1099" y="1187"/>
      <point x="1163" y="940"/>
    </contour>
    <contour>
      <point x="470" y="674" type="qcurve" smooth="yes"/>
      <point x="468" y="623"/>
      <point x="476" y="542"/>
      <point x="487" y="515" type="qcurve" smooth="yes"/>
      <point x="498" y="487"/>
      <point x="533" y="458"/>
      <point x="557" y="458" type="qcurve" smooth="yes"/>
      <point x="587" y="458"/>
      <point x="642" y="478"/>
      <point x="665" y="500" type="qcurve" smooth="yes"/>
      <point x="679" y="514"/>
      <point x="705" y="551"/>
      <point x="716" y="575" type="qcurve"/>
      <point x="717" y="585" type="line"/>
      <point x="755" y="1020" type="line"/>
      <point x="741" y="1027" name="inserted"/>
      <point x="712" y="1033"/>
      <point x="697" y="1033" type="qcurve" smooth="yes"/>
      <point x="644" y="1033"/>
      <point x="565" y="982"/>
      <point x="538" y="936" type="qcurve" smooth="yes" name="inserted"/>
      <point x="511" y="889"/>
      <point x="478" y="756"/>
    </contour>
  </outline>
</glyph>
<glyph name="X" format="2">
  <advance width="1229"/>
  <unicode hex="0058"/>
  <outline>
    <contour>
      <point x="625" y="885" type="line"/>
      <point x="939" y="1456" type="line"/>
      <point x="1157" y="1456" type="line"/>
      <point x="734" y="734" type="line"/>
      <point x="1167" y="0" type="line"/>
      <point x="951" y="0" type="line"/>
      <point x="629" y="582" type="line"/>
      <point x="306" y="0" type="line"/>
      <point x="87" y="0" type="line"/>
      <point x="521" y="734" type="line"/>
      <point x="98" y="1456" type="line"/>
      <point x="315" y="1456" type="line"/>
    </contour>
  </outline>
</glyph>
<glyph name="Y" format="2">
  <advance width="1229"/>
  <unicode hex="0059"/>
  <outline>
    <contour>
      <point x="603" y="725" type="line"/>
      <point x="935" y="1456" type="line"/>
      <point x="1145" y="1456" type="line"/>
      <point x="692" y="543" type="line"/>
      <point x="689" y="0" type="line"/>
      <point x="517" y="0" type="line"/>
      <point x="514" y="543" type="line"/>
      <point x="61" y="1456" type="line"/>
      <point x="272" y="1456" type="line"/>
    </contour>
  </outline>
</glyph>
<glyph name="j" format="2">
  <advance width="1229"/>
  <unicode hex="006A"/>
  <outline>
    <contour>
      <point x="299" y="1082" type="line"/>
      <point x="845" y="1082" type="line"/>
      <point x="845" y="-7" type="line" smooth="yes"/>
      <point x="845" y="-111"/>
      <point x="788" y="-271"/>
      <point x="734" y="-325" type="qcurve" smooth="yes" name="inserted"/>
      <point x="679" y="-380"/>
      <point x="522" y="-437"/>
      <point x="422" y="-437" type="qcurve" smooth="yes"/>
      <point x="391" y="-437"/>
      <point x="333" y="-435"/>
      <point x="305" y="-433" type="qcurve" smooth="yes"/>
      <point x="282" y="-431"/>
      <point x="236" y="-424"/>
      <point x="211" y="-420" type="qcurve"/>
      <point x="224" y="-268" type="line"/>
      <point x="241" y="-271"/>
      <point x="293" y="-276"/>
      <point x="320" y="-277" type="qcurve" smooth="yes" name="inserted"/>
      <point x="346" y="-279"/>
      <point x="395" y="-280"/>
      <point x="409" y="-280" type="qcurve" smooth="yes"/>
      <point x="461" y="-280"/>
      <point x="553" y="-253"/>
      <point x="587" y="-221" type="qcurve" smooth="yes" name="inserted"/>
      <point x="621" y="-189"/>
      <point x="660" y="-84"/>
      <point x="660" y="-7" type="qcurve" smooth="yes"/>
      <point x="660" y="921" type="line"/>
      <point x="299" y="921" type="line"/>
    </contour>
    <contour>
      <point x="634" y="1367" type="qcurve" smooth="yes"/>
      <point x="634" y="1412"/>
      <point x="688" y="1475"/>
      <point x="744" y="1475" type="qcurve" smooth="yes"/>
      <point x="800" y="1475"/>
      <point x="856" y="1412"/>
      <point x="856" y="1367" type="qcurve" smooth="yes"/>
      <point x="856" y="1322"/>
      <point x="800" y="1261"/>
      <point x="744" y="1261" type="qcurve" smooth="yes"/>
      <point x="688" y="1261"/>
      <point x="634" y="1322"/>
    </contour>
  </outline>
</glyph>
<glyph name="l" format="2">
  <advance width="1229"/>
  <unicode hex="006C"/>
  <outline>
    <contour>
      <point x="203" y="1536" type="line"/>
      <point x="756" y="1536" type="line"/>
      <point x="756" y="160" type="line"/>
      <point x="1109" y="160" type="line"/>
      <point x="1109" y="0" type="line"/>
      <point x="203" y="0" type="line"/>
      <point x="203" y="160" type="line"/>
      <point x="571" y="160" type="line"/>
      <point x="571" y="1375" type="line"/>
      <point x="203" y="1375" type="line"/>
    </contour>
  </outline>
</glyph>
<glyph name="p" format="2">
  <advance width="1229"/>
  <unicode hex="0070"/>
  <outline>
    <contour>
      <point x="173" y="-416" type="line"/>
      <point x="173" y="1082" type="line"/>
      <point x="342" y="1082" type="line"/>
      <point x="351" y="964" type="line"/>
      <point x="373" y="992"/>
      <point x="425" y="1037"/>
      <point x="455" y="1053" type="qcurve" smooth="yes"/>
      <point x="497" y="1077"/>
      <point x="600" y="1102"/>
      <point x="659" y="1102" type="qcurve" smooth="yes"/>
      <point x="763" y="1102"/>
      <point x="923" y="1020"/>
      <point x="977" y="947" type="qcurve" smooth="yes" name="inserted"/>
      <point x="1031" y="874"/>
      <point x="1087" y="671"/>
      <point x="1087" y="550" type="qcurve" smooth="yes"/>
      <point x="1087" y="529" type="line" smooth="yes"/>
      <point x="1087" y="413"/>
      <point x="1031" y="212"/>
      <point x="977" y="138" type="qcurve" smooth="yes" name="inserted"/>
      <point x="923" y="64"/>
      <point x="764" y="-20"/>
      <point x="662" y="-20" type="qcurve" smooth="yes"/>
      <point x="600" y="-20"/>
      <point x="493" y="6"/>
      <point x="450" y="30" type="qcurve" smooth="yes"/>
      <point x="424" y="45"/>
      <point x="378" y="82"/>
      <point x="358" y="104" type="qcurve"/>
      <point x="358" y="-416" type="line"/>
    </contour>
    <contour>
      <point x="902" y="550" type="line" smooth="yes"/>
      <point x="902" y="629"/>
      <point x="867" y="772"/>
      <point x="831" y="827" type="qcurve" smooth="yes" name="inserted"/>
      <point x="794" y="881"/>
      <point x="682" y="945"/>
      <point x="604" y="945" type="qcurve" smooth="yes"/>
      <point x="561" y="945"/>
      <point x="488" y="925"/>
      <point x="459" y="906" type="qcurve" smooth="yes"/>
      <point x="427" y="887"/>
      <point x="377" y="831"/>
      <point x="358" y="797" type="qcurve"/>
      <point x="358" y="276" type="line"/>
      <point x="375" y="246"/>
      <point x="419" y="194"/>
      <point x="447" y="176" type="qcurve" smooth="yes"/>
      <point x="479" y="155"/>
      <point x="558" y="131"/>
      <point x="606" y="131" type="qcurve" smooth="yes"/>
      <point x="683" y="131"/>
      <point x="795" y="196"/>
      <point x="831" y="251" type="qcurve" smooth="yes" name="inserted"/>
      <point x="867" y="306"/>
      <point x="902" y="450"/>
      <point x="902" y="529" type="qcurve" smooth="yes"/>
    </contour>
  </outline>
</glyph>
<glyph name="q" format="2">
  <advance width="1229"/>
  <unicode hex="0071"/>
  <outline>
    <contour>
      <point x="140" y="550" type="line" smooth="yes"/>
      <point x="140" y="671"/>
      <point x="198" y="874"/>
      <point x="254" y="947" type="qcurve" smooth="yes" name="inserted"/>
      <point x="310" y="1020"/>
      <point x="473" y="1102"/>
      <point x="577" y="1102" type="qcurve" smooth="yes"/>
      <point x="635" y="1102"/>
      <point x="736" y="1078"/>
      <point x="778" y="1054" type="qcurve" smooth="yes"/>
      <point x="805" y="1039"/>
      <point x="853" y="999"/>
      <point x="874" y="975" type="qcurve"/>
      <point x="882" y="1082" type="line"/>
      <point x="1052" y="1082" type="line"/>
      <point x="1052" y="-416" type="line"/>
      <point x="867" y="-416" type="line"/>
      <point x="867" y="98" type="line"/>
      <point x="843" y="73"/>
      <point x="790" y="33"/>
      <point x="759" y="19" type="qcurve" smooth="yes"/>
      <point x="720" y="0"/>
      <point x="628" y="-20"/>
      <point x="575" y="-20" type="qcurve" smooth="yes"/>
      <point x="472" y="-20"/>
      <point x="311" y="64"/>
      <point x="255" y="138" type="qcurve" smooth="yes" name="inserted"/>
      <point x="199" y="212"/>
      <point x="140" y="413"/>
      <point x="140" y="529" type="qcurve" smooth="yes"/>
    </contour>
    <contour>
      <point x="325" y="529" type="line" smooth="yes"/>
      <point x="325" y="450"/>
      <point x="360" y="306"/>
      <point x="396" y="251" type="qcurve" smooth="yes" name="inserted"/>
      <point x="432" y="196"/>
      <point x="543" y="131"/>
      <point x="620" y="131" type="qcurve" smooth="yes"/>
      <point x="663" y="131"/>
      <point x="735" y="151"/>
      <point x="765" y="168" type="qcurve" smooth="yes"/>
      <point x="797" y="187"/>
      <point x="847" y="242"/>
      <point x="867" y="275" type="qcurve"/>
      <point x="867" y="809" type="line"/>
      <point x="848" y="840"/>
      <point x="799" y="891"/>
      <point x="769" y="910" type="qcurve" smooth="yes" name="inserted"/>
      <point x="738" y="929"/>
      <point x="665" y="950"/>
      <point x="622" y="950" type="qcurve" smooth="yes"/>
      <point x="545" y="950"/>
      <point x="433" y="884"/>
      <point x="397" y="829" type="qcurve" smooth="yes" name="inserted"/>
      <point x="360" y="773"/>
      <point x="325" y="629"/>
      <point x="325" y="550" type="qcurve" smooth="yes"/>
    </contour>
  </outline>
</glyph>
<glyph name="r" format="2">
  <advance width="1229"/>
  <unicode hex="0072"/>
  <outline>
    <contour>
      <point x="883" y="1102" type="qcurve" smooth="yes"/>
      <point x="934" y="1102"/>
      <point x="1045" y="1088"/>
      <point x="1073" y="1076" type="qcurve"/>
      <point x="1048" y="895" type="line"/>
      <point x="994" y="907"/>
      <point x="897" y="918"/>
      <point x="844" y="918" type="qcurve" smooth="yes"/>
      <point x="776" y="918"/>
      <point x="666" y="885"/>
      <point x="625" y="853" type="qcurve" smooth="yes"/>
      <point x="588" y="825"/>
      <point x="533" y="744"/>
      <point x="515" y="694" type="qcurve"/>
      <point x="515" y="0" type="line"/>
      <point x="329" y="0" type="line"/>
      <point x="329" y="1082" type="line"/>
      <point x="505" y="1082" type="line"/>
      <point x="513" y="937" type="line"/>
      <point x="514" y="910" type="line"/>
      <point x="580" y="999"/>
      <point x="765" y="1102"/>
    </contour>
  </outline>
</glyph>
<glyph name="w" format="2">
  <advance width="1229"/>
  <unicode hex="0077"/>
  <outline>
    <contour>
      <point x="278" y="0" type="line"/>
      <point x="48" y="1082" type="line"/>
      <point x="212" y="1082" type="line"/>
      <point x="338" y="392" type="line"/>
      <point x="360" y="237" type="line"/>
      <point x="387" y="392" type="line"/>
      <point x="560" y="1082" type="line"/>
      <point x="679" y="1082" type="line"/>
      <point x="851" y="392" type="line"/>
      <point x="880" y="222" type="line"/>
      <point x="907" y="392" type="line"/>
      <point x="1027" y="1082" type="line"/>
      <point x="1191" y="1082" type="line"/>
      <point x="961" y="0" type="line"/>
      <point x="815" y="0" type="line"/>
      <point x="646" y="663" type="line"/>
      <point x="618" y="831" type="line"/>
      <point x="591" y="663" type="line"/>
      <point x="424" y="0" type="line"/>
    </contour>
  </outline>
</glyph>
<glyph name="braceleft" format="2">
  <advance width="1229"/>
  <unicode hex="007B"/>
  <outline>
    <contour>
      <point x="978" y="-366" type="line"/>
      <point x="880.5" y="-363.0"/>
      <point x="739.0" y="-279.0"/>
      <point x="692" y="-210" type="qcurve" smooth="yes"/>
      <point x="647" y="-144"/>
      <point x="601.0" y="19.231309564349047"/>
      <point x="601" y="99" type="qcurve" smooth="yes"/>
      <point x="601" y="268" type="line" smooth="yes"/>
      <point x="601" y="412"/>
      <point x="464" y="542"/>
      <point x="323" y="543" type="qcurve"/>
      <point x="323" y="688" type="line"/>
      <point x="464" y="688"/>
      <point x="601" y="817"/>
      <point x="601" y="962" type="qcurve" smooth="yes"/>
      <point x="601" y="1132" type="line" smooth="yes"/>
      <point x="601" y="1213"/>
      <point x="644" y="1382"/>
      <point x="691" y="1449" type="qcurve" smooth="yes"/>
      <point x="735" y="1513"/>
      <point x="877" y="1594"/>
      <point x="978" y="1597" type="qcurve"/>
      <point x="999" y="1482" type="line"/>
      <point x="927" y="1480"/>
      <point x="842" y="1416"/>
      <point x="821" y="1367" type="qcurve" smooth="yes" name="inserted"/>
      <point x="799" y="1317"/>
      <point x="787" y="1193"/>
      <point x="787" y="1132" type="qcurve" smooth="yes"/>
      <point x="787" y="962" type="line" smooth="yes"/>
      <point x="787" y="842"/>
      <point x="676" y="661"/>
      <point x="560" y="614" type="qcurve"/>
      <point x="676" y="568"/>
      <point x="786" y="387"/>
      <point x="787" y="268" type="qcurve" smooth="yes"/>
      <point x="787" y="99" type="line" smooth="yes"/>
      <point x="787" y="37"/>
      <point x="807" y="-86"/>
      <point x="832" y="-135" type="qcurve" smooth="yes" name="inserted"/>
      <point x="856" y="-185"/>
      <point x="937" y="-249"/>
      <point x="999" y="-251" type="qcurve"/>
    </contour>
  </outline>
</glyph>
<glyph name="section" format="2">
  <advance width="1229"/>
  <unicode hex="00A7"/>
  <outline>
    <contour>
      <point x="1140" y="431" type="qcurve" smooth="yes"/>
      <point x="1140" y="366"/>
      <point x="1096" y="262"/>
      <point x="1055" y="222" type="qcurve" smooth="yes"/>
      <point x="1034" y="203"/>
      <point x="983" y="169"/>
      <point x="954" y="156" type="qcurve"/>
      <point x="983" y="136"/>
      <point x="1030" y="89"/>
      <point x="1047" y="61" type="qcurve" smooth="yes"/>
      <point x="1071" y="24"/>
      <point x="1096" y="-70"/>
      <point x="1096" y="-128" type="qcurve" smooth="yes"/>
      <point x="1096" y="-216"/>
      <point x="1025" y="-352"/>
      <point x="961" y="-399" type="qcurve" smooth="yes" name="inserted"/>
      <point x="896" y="-446"/>
      <point x="717" y="-495"/>
      <point x="608" y="-495" type="qcurve" smooth="yes"/>
      <point x="510" y="-495"/>
      <point x="323" y="-450"/>
      <point x="250" y="-399" type="qcurve" smooth="yes" name="inserted"/>
      <point x="177" y="-349"/>
      <point x="87" y="-184"/>
      <point x="87" y="-64" type="qcurve"/>
      <point x="272" y="-62" type="line"/>
      <point x="272" y="-140"/>
      <point x="332" y="-247"/>
      <point x="380" y="-280" type="qcurve" smooth="yes" name="inserted"/>
      <point x="428" y="-314"/>
      <point x="548" y="-343"/>
      <point x="608" y="-343" type="qcurve" smooth="yes"/>
      <point x="678" y="-343"/>
      <point x="790" y="-311"/>
      <point x="830" y="-283" type="qcurve" smooth="yes" name="inserted"/>
      <point x="869" y="-255"/>
      <point x="911" y="-177"/>
      <point x="911" y="-130" type="qcurve" smooth="yes"/>
      <point x="911" y="-82"/>
      <point x="873" y="-12"/>
      <point x="831" y="17" type="qcurve" smooth="yes" name="inserted"/>
      <point x="799" y="39"/>
      <point x="705" y="79"/>
      <point x="642" y="100" type="qcurve" smooth="yes"/>
      <point x="582" y="120"/>
      <point x="442" y="159"/>
      <point x="383" y="183" type="qcurve" smooth="yes"/>
      <point x="336" y="202"/>
      <point x="253" y="246"/>
      <point x="220" y="273" type="qcurve" smooth="yes" name="inserted"/>
      <point x="159" y="322"/>
      <point x="93" y="456"/>
      <point x="93" y="551" type="qcurve" smooth="yes"/>
      <point x="93" y="612"/>
      <point x="134" y="713"/>
      <point x="172" y="753" type="qcurve" smooth="yes"/>
      <point x="192" y="774"/>
      <point x="245" y="810"/>
      <point x="275" y="825" type="qcurve"/>
      <point x="252" y="842"/>
      <point x="213" y="881"/>
      <point x="197" y="902" type="qcurve" smooth="yes"/>
      <point x="168" y="943"/>
      <point x="138" y="1045"/>
      <point x="138" y="1110" type="qcurve" smooth="yes"/>
      <point x="138" y="1194"/>
      <point x="209" y="1329"/>
      <point x="273" y="1377" type="qcurve" smooth="yes" name="inserted"/>
      <point x="337" y="1425"/>
      <point x="517" y="1476"/>
      <point x="626" y="1476" type="qcurve" smooth="yes"/>
      <point x="740" y="1476"/>
      <point x="922" y="1419"/>
      <point x="986" y="1365" type="qcurve" smooth="yes" name="inserted"/>
      <point x="1049" y="1310"/>
      <point x="1118" y="1149"/>
      <point x="1118" y="1045" type="qcurve"/>
      <point x="933" y="1045" type="line"/>
      <point x="933" y="1103"/>
      <point x="892" y="1206"/>
      <point x="853" y="1244" type="qcurve" smooth="yes" name="inserted"/>
      <point x="814" y="1281"/>
      <point x="699" y="1325"/>
      <point x="626" y="1325" type="qcurve" smooth="yes"/>
      <point x="551" y="1325"/>
      <point x="438" y="1292"/>
      <point x="400" y="1264" type="qcurve" smooth="yes" name="inserted"/>
      <point x="361" y="1235"/>
      <point x="323" y="1157"/>
      <point x="323" y="1112" type="qcurve" smooth="yes"/>
      <point x="323" y="1060"/>
      <point x="357" y="988"/>
      <point x="398" y="960" type="qcurve" smooth="yes" name="inserted"/>
      <point x="419" y="945"/>
      <point x="477" y="917"/>
      <point x="513" y="903" type="qcurve" smooth="yes"/>
      <point x="546" y="891"/>
      <point x="625" y="867"/>
      <point x="672" y="854" type="qcurve" smooth="yes"/>
      <point x="726" y="839"/>
      <point x="823" y="807"/>
      <point x="866" y="789" type="qcurve" smooth="yes"/>
      <point x="909" y="771"/>
      <point x="983" y="730"/>
      <point x="1014" y="706" type="qcurve" smooth="yes" name="inserted"/>
      <point x="1075" y="658"/>
      <point x="1140" y="525"/>
    </contour>
    <contour>
      <point x="598" y="691" type="qcurve" smooth="yes"/>
      <point x="553" y="703"/>
      <point x="472" y="728"/>
      <point x="435" y="742" type="qcurve"/>
      <point x="402" y="734"/>
      <point x="349" y="707"/>
      <point x="330" y="688" type="qcurve" smooth="yes"/>
      <point x="304" y="662"/>
      <point x="278" y="594"/>
      <point x="278" y="553" type="qcurve" smooth="yes"/>
      <point x="278" y="480"/>
      <point x="347" y="392"/>
      <point x="432" y="355" type="qcurve" smooth="yes"/>
      <point x="470" y="338"/>
      <point x="570" y="306"/>
      <point x="632" y="289" type="qcurve" smooth="yes"/>
      <point x="676" y="276"/>
      <point x="756" y="252"/>
      <point x="793" y="238" type="qcurve"/>
      <point x="826" y="247"/>
      <point x="881" y="276"/>
      <point x="901" y="296" type="qcurve" smooth="yes"/>
      <point x="927" y="321"/>
      <point x="955" y="388"/>
      <point x="956" y="428" type="qcurve" smooth="yes"/>
      <point x="956" y="476"/>
      <point x="916" y="549"/>
      <point x="873" y="579" type="qcurve" smooth="yes" name="inserted"/>
      <point x="853" y="593"/>
      <point x="803" y="619"/>
      <point x="773" y="631" type="qcurve" smooth="yes"/>
      <point x="737" y="646"/>
      <point x="650" y="675"/>
    </contour>
  </outline>
</glyph>
<glyph name="copyright" format="2">
  <advance width="1229"/>
  <unicode hex="00A9"/>
  <outline>
    <contour>
      <point x="862" y="443" type="line"/>
      <point x="862" y="388"/>
      <point x="832" y="302"/>
      <point x="803" y="273" type="qcurve" smooth="yes"/>
      <point x="771" y="241"/>
      <point x="675" y="208"/>
      <point x="613" y="208" type="qcurve" smooth="yes"/>
      <point x="551" y="208"/>
      <point x="455" y="252"/>
      <point x="422" y="291" type="qcurve" smooth="yes" name="inserted"/>
      <point x="389" y="329"/>
      <point x="353" y="435"/>
      <point x="353" y="498" type="qcurve" smooth="yes"/>
      <point x="353" y="585" type="line" smooth="yes"/>
      <point x="353" y="647"/>
      <point x="389" y="754"/>
      <point x="422" y="793" type="qcurve" smooth="yes" name="inserted"/>
      <point x="455" y="832"/>
      <point x="551" y="876"/>
      <point x="613" y="876" type="qcurve" smooth="yes"/>
      <point x="676" y="876"/>
      <point x="773" y="842"/>
      <point x="805" y="809" type="qcurve" smooth="yes"/>
      <point x="833" y="779"/>
      <point x="863" y="695"/>
      <point x="863" y="641" type="qcurve"/>
      <point x="753" y="641" type="line"/>
      <point x="753" y="675"/>
      <point x="737" y="726"/>
      <point x="721" y="743" type="qcurve" smooth="yes"/>
      <point x="704" y="761"/>
      <point x="650" y="778"/>
      <point x="613" y="778" type="qcurve" smooth="yes"/>
      <point x="575" y="778"/>
      <point x="518" y="748"/>
      <point x="499" y="723" type="qcurve" smooth="yes" name="inserted"/>
      <point x="480" y="697"/>
      <point x="462" y="626"/>
      <point x="462" y="586" type="qcurve" smooth="yes"/>
      <point x="462" y="498" type="line" smooth="yes"/>
      <point x="462" y="457"/>
      <point x="480" y="387"/>
      <point x="499" y="361" type="qcurve" smooth="yes" name="inserted"/>
      <point x="518" y="335"/>
      <point x="575" y="305"/>
      <point x="613" y="305" type="qcurve" smooth="yes"/>
      <point x="650" y="305"/>
      <point x="704" y="322"/>
      <point x="720" y="340" type="qcurve" smooth="yes"/>
      <point x="736" y="357"/>
      <point x="752" y="408"/>
      <point x="752" y="443" type="qcurve"/>
    </contour>
    <contour>
      <point x="177" y="542" type="qcurve" smooth="yes"/>
      <point x="177" y="444"/>
      <point x="245" y="271"/>
      <point x="305.0" y="206.5" type="qcurve" smooth="yes" name="inserted"/>
      <point x="365" y="142"/>
      <point x="528" y="68"/>
      <point x="623" y="68" type="qcurve" smooth="yes"/>
      <point x="717" y="68"/>
      <point x="880" y="143"/>
      <point x="940.0" y="207.5" type="qcurve" smooth="yes" name="inserted"/>
      <point x="1000" y="272"/>
      <point x="1068" y="444"/>
      <point x="1068" y="542" type="qcurve" smooth="yes"/>
      <point x="1068" y="639"/>
      <point x="1000" y="810"/>
      <point x="940.0" y="874.0" type="qcurve" smooth="yes" name="inserted"/>
      <point x="880" y="938"/>
      <point x="717" y="1011"/>
      <point x="623" y="1011" type="qcurve" smooth="yes"/>
      <point x="528" y="1011"/>
      <point x="365" y="938"/>
      <point x="305.0" y="874.0" type="qcurve" smooth="yes" name="inserted"/>
      <point x="245" y="810"/>
      <point x="177" y="639"/>
    </contour>
    <contour>
      <point x="90" y="542" type="qcurve"/>
      <point x="91" y="664"/>
      <point x="177" y="871"/>
      <point x="250" y="945" type="qcurve" smooth="yes"/>
      <point x="322" y="1019"/>
      <point x="516" y="1102"/>
      <point x="623" y="1102" type="qcurve" smooth="yes"/>
      <point x="736" y="1102"/>
      <point x="930" y="1014"/>
      <point x="1002" y="939" type="qcurve" smooth="yes" name="inserted"/>
      <point x="1073" y="863"/>
      <point x="1155" y="659"/>
      <point x="1155" y="542" type="qcurve" smooth="yes"/>
      <point x="1155" y="425"/>
      <point x="1073" y="220"/>
      <point x="1002" y="144" type="qcurve" smooth="yes" name="inserted"/>
      <point x="930" y="67"/>
      <point x="736" y="-21"/>
      <point x="623" y="-21" type="qcurve" smooth="yes"/>
      <point x="510" y="-21"/>
      <point x="315" y="67"/>
      <point x="244" y="144" type="qcurve" smooth="yes" name="inserted"/>
      <point x="172" y="220"/>
      <point x="90" y="425"/>
    </contour>
  </outline>
</glyph>
<glyph name="threesuperior" format="2">
  <advance width="1229"/>
  <unicode hex="00B3"/>
  <outline>
    <contour>
      <point x="526" y="1125" type="line"/>
      <point x="610" y="1125" type="line" smooth="yes"/>
      <point x="641" y="1125"/>
      <point x="692" y="1137"/>
      <point x="710" y="1148" type="qcurve" smooth="yes"/>
      <point x="733" y="1162"/>
      <point x="756" y="1206"/>
      <point x="756" y="1234" type="qcurve" smooth="yes"/>
      <point x="756" y="1257"/>
      <point x="738" y="1296"/>
      <point x="721" y="1310" type="qcurve" smooth="yes"/>
      <point x="704" y="1323"/>
      <point x="655" y="1337"/>
      <point x="623" y="1337" type="qcurve" smooth="yes"/>
      <point x="588" y="1337"/>
      <point x="532" y="1319"/>
      <point x="515" y="1301" type="qcurve" smooth="yes"/>
      <point x="504" y="1291"/>
      <point x="491" y="1262"/>
      <point x="491" y="1245" type="qcurve"/>
      <point x="334" y="1245" type="line"/>
      <point x="334" y="1296"/>
      <point x="379" y="1378"/>
      <point x="418" y="1407" type="qcurve" smooth="yes" name="inserted"/>
      <point x="456" y="1435"/>
      <point x="560" y="1466"/>
      <point x="620" y="1466" type="qcurve" smooth="yes"/>
      <point x="684" y="1466"/>
      <point x="792" y="1437"/>
      <point x="831" y="1409" type="qcurve" smooth="yes" name="inserted"/>
      <point x="870" y="1380"/>
      <point x="913" y="1296"/>
      <point x="913" y="1241" type="qcurve" smooth="yes"/>
      <point x="913" y="1208"/>
      <point x="888" y="1149"/>
      <point x="864" y="1125" type="qcurve" smooth="yes"/>
      <point x="848" y="1108"/>
      <point x="804" y="1080"/>
      <point x="777" y="1070" type="qcurve"/>
      <point x="813" y="1060"/>
      <point x="868" y="1028"/>
      <point x="886" y="1007" type="qcurve" smooth="yes"/>
      <point x="907" y="984"/>
      <point x="927" y="923"/>
      <point x="927" y="886" type="qcurve" smooth="yes"/>
      <point x="927" y="830"/>
      <point x="880" y="744"/>
      <point x="839" y="715" type="qcurve" smooth="yes" name="inserted"/>
      <point x="797" y="686"/>
      <point x="685" y="655"/>
      <point x="621" y="655" type="qcurve" smooth="yes"/>
      <point x="564" y="655"/>
      <point x="457" y="682"/>
      <point x="416" y="711" type="qcurve" smooth="yes" name="inserted"/>
      <point x="374" y="739"/>
      <point x="323" y="827"/>
      <point x="323" y="888" type="qcurve"/>
      <point x="481" y="888" type="line"/>
      <point x="481" y="867"/>
      <point x="499" y="831"/>
      <point x="515" y="817" type="qcurve" smooth="yes"/>
      <point x="534" y="801"/>
      <point x="591" y="783"/>
      <point x="626" y="783" type="qcurve" smooth="yes"/>
      <point x="662" y="783"/>
      <point x="719" y="801"/>
      <point x="737" y="817" type="qcurve" smooth="yes"/>
      <point x="753" y="831"/>
      <point x="769" y="870"/>
      <point x="769" y="894" type="qcurve" smooth="yes"/>
      <point x="769" y="918"/>
      <point x="756" y="954"/>
      <point x="744" y="967" type="qcurve" smooth="yes"/>
      <point x="724" y="989"/>
      <point x="655" y="1009"/>
      <point x="610" y="1009" type="qcurve" smooth="yes"/>
      <point x="526" y="1009" type="line"/>
    </contour>
  </outline>
</glyph>
<glyph name="Oslash" format="2">
  <advance width="1229"/>
  <unicode hex="00D8"/>
  <outline>
    <contour>
      <point x="1112" y="644" type="line" smooth="yes"/>
      <point x="1112" y="520"/>
      <point x="1046" y="267"/>
      <point x="976" y="171" type="qcurve" smooth="yes"/>
      <point x="915" y="86"/>
      <point x="731" y="-20"/>
      <point x="607" y="-20" type="qcurve" smooth="yes"/>
      <point x="516" y="-20"/>
      <point x="374" y="35"/>
      <point x="317" y="83" type="qcurve"/>
      <point x="213" y="-93" type="line"/>
      <point x="71" y="-93" type="line"/>
      <point x="231" y="177" type="line"/>
      <point x="197" y="226"/>
      <point x="147" y="338"/>
      <point x="131" y="398" type="qcurve" smooth="yes" name="inserted"/>
      <point x="114" y="458"/>
      <point x="98" y="583"/>
      <point x="98" y="644" type="qcurve" smooth="yes"/>
      <point x="98" y="810" type="line" smooth="yes"/>
      <point x="100" y="932"/>
      <point x="161" y="1181"/>
      <point x="228" y="1275" type="qcurve" smooth="yes"/>
      <point x="287" y="1363"/>
      <point x="475" y="1476"/>
      <point x="605" y="1476" type="qcurve" smooth="yes"/>
      <point x="665" y="1476"/>
      <point x="769" y="1451"/>
      <point x="813" y="1429" type="qcurve" smooth="yes"/>
      <point x="844" y="1413"/>
      <point x="899" y="1372"/>
      <point x="923" y="1348" type="qcurve"/>
      <point x="1022" y="1516" type="line"/>
      <point x="1164" y="1516" type="line"/>
      <point x="1003" y="1244" type="line"/>
      <point x="1059" y="1149"/>
      <point x="1114" y="921"/>
      <point x="1113" y="810" type="qcurve" smooth="yes"/>
    </contour>
    <contour>
      <point x="280" y="644" type="line" smooth="yes"/>
      <point x="280" y="601"/>
      <point x="289" y="507"/>
      <point x="299" y="461" type="qcurve" smooth="yes"/>
      <point x="305" y="433"/>
      <point x="322" y="376"/>
      <point x="333" y="350" type="qcurve"/>
      <point x="831" y="1193" type="line"/>
      <point x="814" y="1218"/>
      <point x="772" y="1259"/>
      <point x="746" y="1274" type="qcurve" smooth="yes"/>
      <point x="717" y="1292"/>
      <point x="647" y="1311"/>
      <point x="605" y="1311" type="qcurve" smooth="yes"/>
      <point x="514" y="1311"/>
      <point x="393" y="1220"/>
      <point x="356" y="1156" type="qcurve" smooth="yes"/>
      <point x="315" y="1079"/>
      <point x="280" y="892"/>
      <point x="280" y="812" type="qcurve" smooth="yes"/>
    </contour>
    <contour>
      <point x="930" y="812" type="line" smooth="yes"/>
      <point x="929" y="870"/>
      <point x="914" y="999"/>
      <point x="895" y="1061" type="qcurve"/>
      <point x="404" y="231" type="line"/>
      <point x="441" y="190"/>
      <point x="541" y="143"/>
      <point x="607" y="143" type="qcurve" smooth="yes"/>
      <point x="684" y="143"/>
      <point x="793" y="207"/>
      <point x="831" y="259" type="qcurve" smooth="yes"/>
      <point x="891" y="342"/>
      <point x="928" y="549"/>
      <point x="930" y="644" type="qcurve" smooth="yes"/>
    </contour>
  </outline>
</glyph>
<glyph name="ae" format="2">
  <advance width="1229"/>
  <unicode hex="00E6"/>
  <outline>
    <contour>
      <point x="896" y="-20" type="qcurve" smooth="yes"/>
      <point x="832" y="-20"/>
      <point x="726" y="9"/>
      <point x="684" y="37" type="qcurve" smooth="yes"/>
      <point x="659" y="55"/>
      <point x="616" y="99"/>
      <point x="599" y="126" type="qcurve"/>
      <point x="580" y="97"/>
      <point x="529" y="44"/>
      <point x="496" y="24" type="qcurve" smooth="yes" name="inserted"/>
      <point x="463" y="4"/>
      <point x="383" y="-20"/>
      <point x="335" y="-20" type="qcurve" smooth="yes"/>
      <point x="264" y="-20"/>
      <point x="156" y="24"/>
      <point x="119" y="64" type="qcurve" smooth="yes" name="inserted"/>
      <point x="82" y="103"/>
      <point x="43" y="216"/>
      <point x="43" y="285" type="qcurve" smooth="yes"/>
      <point x="43" y="366"/>
      <point x="93" y="495"/>
      <point x="142" y="540" type="qcurve" smooth="yes"/>
      <point x="193" y="586"/>
      <point x="347" y="635"/>
      <point x="448" y="635" type="qcurve" smooth="yes"/>
      <point x="511" y="635" type="line"/>
      <point x="511" y="783" type="line" smooth="yes"/>
      <point x="511" y="825"/>
      <point x="493" y="891"/>
      <point x="474" y="913" type="qcurve" smooth="yes"/>
      <point x="458" y="931"/>
      <point x="412" y="950"/>
      <point x="381" y="950" type="qcurve" smooth="yes"/>
      <point x="349" y="950"/>
      <point x="296" y="928"/>
      <point x="277" y="907" type="qcurve" smooth="yes"/>
      <point x="259" y="887"/>
      <point x="240" y="829"/>
      <point x="240" y="792" type="qcurve"/>
      <point x="61" y="800" type="line"/>
      <point x="61" y="869"/>
      <point x="106" y="980"/>
      <point x="148" y="1020" type="qcurve" smooth="yes" name="inserted"/>
      <point x="189" y="1059"/>
      <point x="307" y="1102"/>
      <point x="379" y="1102" type="qcurve" smooth="yes"/>
      <point x="429" y="1102"/>
      <point x="514" y="1083"/>
      <point x="549" y="1063" type="qcurve" smooth="yes"/>
      <point x="571" y="1051"/>
      <point x="610" y="1016"/>
      <point x="626" y="995" type="qcurve"/>
      <point x="642" y="1014"/>
      <point x="679" y="1046"/>
      <point x="699" y="1058" type="qcurve" smooth="yes"/>
      <point x="733" y="1080"/>
      <point x="815" y="1102"/>
      <point x="862" y="1102" type="qcurve" smooth="yes"/>
      <point x="943" y="1102"/>
      <point x="1066" y="1049"/>
      <point x="1108" y="1001" type="qcurve" smooth="yes" name="inserted"/>
      <point x="1150" y="952"/>
      <point x="1193" y="815"/>
      <point x="1193" y="731" type="qcurve" smooth="yes"/>
      <point x="1193" y="497" type="line"/>
      <point x="688" y="497" type="line"/>
      <point x="688" y="411" type="line" smooth="yes"/>
      <point x="688" y="375"/>
      <point x="697" y="311"/>
      <point x="704" y="283" type="qcurve" smooth="yes"/>
      <point x="710" y="257"/>
      <point x="736" y="209"/>
      <point x="757" y="189" type="qcurve" smooth="yes"/>
      <point x="785" y="162"/>
      <point x="872" y="129"/>
      <point x="932" y="130" type="qcurve" smooth="yes"/>
      <point x="970" y="130"/>
      <point x="1029" y="144"/>
      <point x="1053" y="155" type="qcurve" smooth="yes" name="inserted"/>
      <point x="1076" y="165"/>
      <point x="1114" y="189"/>
      <point x="1130" y="200" type="qcurve"/>
      <point x="1176" y="64" type="line"/>
      <point x="1163" y="54"/>
      <point x="1117" y="25"/>
      <point x="1083" y="12" type="qcurve" smooth="yes" name="inserted"/>
      <point x="1048" y="-1"/>
      <point x="955" y="-20"/>
    </contour>
    <contour>
      <point x="371" y="130" type="qcurve" smooth="yes"/>
      <point x="391" y="130"/>
      <point x="433" y="144"/>
      <point x="453" y="155" type="qcurve" smooth="yes"/>
      <point x="469" y="165"/>
      <point x="499" y="189"/>
      <point x="512" y="202" type="qcurve"/>
      <point x="512" y="219"/>
      <point x="512" y="258"/>
      <point x="512" y="301" type="qcurve"/>
      <point x="512" y="364"/>
      <point x="511" y="430"/>
      <point x="511" y="495" type="qcurve"/>
      <point x="450" y="495" type="line" smooth="yes"/>
      <point x="397" y="495"/>
      <point x="313" y="460"/>
      <point x="284" y="431" type="qcurve" smooth="yes" name="inserted"/>
      <point x="255" y="401"/>
      <point x="224" y="324"/>
      <point x="224" y="281" type="qcurve" smooth="yes"/>
      <point x="224" y="250"/>
      <point x="243" y="195"/>
      <point x="262" y="175" type="qcurve" smooth="yes" name="inserted"/>
      <point x="280" y="154"/>
      <point x="335" y="130"/>
    </contour>
    <contour>
      <point x="1017" y="640" type="line"/>
      <point x="1017" y="768" type="line" smooth="yes"/>
      <point x="1017" y="803"/>
      <point x="997" y="868"/>
      <point x="977" y="894" type="qcurve" smooth="yes" name="inserted"/>
      <point x="957" y="919"/>
      <point x="899" y="950"/>
      <point x="862" y="950" type="qcurve" smooth="yes"/>
      <point x="833" y="950"/>
      <point x="784" y="934"/>
      <point x="767" y="919" type="qcurve" smooth="yes"/>
      <point x="744" y="898"/>
      <point x="715.0000000000001" y="853.0"/>
      <point x="705" y="823" type="qcurve" smooth="yes"/>
      <point x="697" y="797"/>
      <point x="688" y="739"/>
      <point x="688" y="709" type="qcurve" smooth="yes"/>
      <point x="688" y="640" type="line"/>
    </contour>
  </outline>
</glyph>
<glyph name="eth" format="2">
  <advance width="1229"/>
  <unicode hex="00F0"/>
  <outline>
    <contour>
      <point x="845" y="1286" type="line"/>
      <point x="949" y="1168"/>
      <point x="1066" y="839"/>
      <point x="1066" y="633" type="qcurve"/>
      <point x="1066" y="571" type="line"/>
      <point x="1066.0" y="489.0"/>
      <point x="1039" y="344"/>
      <point x="1014" y="283" type="qcurve" smooth="yes"/>
      <point x="980.4700708879643" y="206.626272578141"/>
      <point x="881.6125165951628" y="86.8629413349286"/>
      <point x="819" y="48" type="qcurve" smooth="yes"/>
      <point x="764" y="15"/>
      <point x="636" y="-20"/>
      <point x="565" y="-20" type="qcurve" smooth="yes"/>
      <point x="457" y="-20"/>
      <point x="276" y="55"/>
      <point x="211" y="121" type="qcurve" smooth="yes" name="inserted"/>
      <point x="145" y="187"/>
      <point x="73" y="365"/>
      <point x="73" y="467" type="qcurve" smooth="yes"/>
      <point x="73" y="582"/>
      <point x="146" y="770"/>
      <point x="212" y="837" type="qcurve" smooth="yes" name="inserted"/>
      <point x="277" y="904"/>
      <point x="456" y="977"/>
      <point x="561" y="977" type="qcurve" smooth="yes"/>
      <point x="649" y="977"/>
      <point x="802" y="909"/>
      <point x="859" y="853" type="qcurve"/>
      <point x="836" y="963"/>
      <point x="746" y="1131"/>
      <point x="684" y="1194" type="qcurve"/>
      <point x="418" y="1042" type="line"/>
      <point x="345" y="1141" type="line"/>
      <point x="584" y="1278" type="line"/>
      <point x="543" y="1305"/>
      <point x="456" y="1346"/>
      <point x="410" y="1362" type="qcurve"/>
      <point x="467" y="1521" type="line"/>
      <point x="547" y="1499"/>
      <point x="690" y="1426"/>
      <point x="753" y="1375" type="qcurve"/>
      <point x="983" y="1507" type="line"/>
      <point x="1056" y="1407" type="line"/>
    </contour>
    <contour>
      <point x="569" y="130" type="qcurve" smooth="yes"/>
      <point x="614" y="130"/>
      <point x="693" y="155"/>
      <point x="726" y="179" type="qcurve" smooth="yes"/>
      <point x="764.9736659610102" y="206.2815661727072"/>
      <point x="826.4590744661054" y="292.48540850509517"/>
      <point x="847" y="350" type="qcurve" smooth="yes"/>
      <point x="863" y="397"/>
      <point x="881" y="509"/>
      <point x="881" y="571" type="qcurve"/>
      <point x="881" y="635" type="line"/>
      <point x="881" y="648"/>
      <point x="880" y="672"/>
      <point x="880" y="685" type="qcurve"/>
      <point x="846" y="739"/>
      <point x="686" y="825"/>
      <point x="561" y="825" type="qcurve" smooth="yes"/>
      <point x="492" y="825"/>
      <point x="380" y="768"/>
      <point x="341" y="719" type="qcurve" smooth="yes" name="inserted"/>
      <point x="301" y="670"/>
      <point x="259" y="540"/>
      <point x="259" y="467" type="qcurve" smooth="yes"/>
      <point x="259" y="405"/>
      <point x="301" y="284"/>
      <point x="341" y="237" type="qcurve" smooth="yes" name="inserted"/>
      <point x="380" y="189"/>
      <point x="495" y="130"/>
    </contour>
  </outline>
</glyph>
<glyph name="oslash" format="2">
  <advance width="1229"/>
  <unicode hex="00F8"/>
  <outline>
    <contour>
      <point x="122" y="551" type="line" smooth="yes"/>
      <point x="122" y="668"/>
      <point x="190" y="869"/>
      <point x="254" y="943" type="qcurve" smooth="yes" name="inserted"/>
      <point x="317" y="1017"/>
      <point x="499" y="1102"/>
      <point x="613" y="1102" type="qcurve" smooth="yes"/>
      <point x="670" y="1102"/>
      <point x="771" y="1081"/>
      <point x="816" y="1061" type="qcurve"/>
      <point x="889" y="1209" type="line"/>
      <point x="1012" y="1209" type="line"/>
      <point x="911" y="1004" type="line"/>
      <point x="955" y="969"/>
      <point x="1026" y="878"/>
      <point x="1050" y="825" type="qcurve" smooth="yes"/>
      <point x="1077" y="766"/>
      <point x="1106" y="627"/>
      <point x="1106" y="551" type="qcurve" smooth="yes"/>
      <point x="1106" y="529" type="line" smooth="yes"/>
      <point x="1106" y="412"/>
      <point x="1038" y="212"/>
      <point x="975" y="138" type="qcurve" smooth="yes" name="inserted"/>
      <point x="911" y="64"/>
      <point x="729" y="-20"/>
      <point x="615" y="-20" type="qcurve" smooth="yes"/>
      <point x="561" y="-20"/>
      <point x="466" y="-1"/>
      <point x="423" y="16" type="qcurve"/>
      <point x="349" y="-135" type="line"/>
      <point x="226" y="-135" type="line"/>
      <point x="327" y="70" type="line"/>
      <point x="228" y="143"/>
      <point x="122" y="381"/>
      <point x="122" y="529" type="qcurve" smooth="yes"/>
    </contour>
    <contour>
      <point x="307" y="529" type="line" smooth="yes"/>
      <point x="307" y="438"/>
      <point x="355" y="281"/>
      <point x="403" y="224" type="qcurve"/>
      <point x="745" y="918" type="line"/>
      <point x="716" y="933"/>
      <point x="651" y="950"/>
      <point x="613" y="950" type="qcurve" smooth="yes"/>
      <point x="536" y="950"/>
      <point x="422" y="885"/>
      <point x="383.5" y="830.0" type="qcurve" smooth="yes" name="inserted"/>
      <point x="345" y="775"/>
      <point x="307" y="630"/>
      <point x="307" y="551" type="qcurve" smooth="yes"/>
    </contour>
    <contour>
      <point x="921" y="551" type="line" smooth="yes"/>
      <point x="921" y="603"/>
      <point x="905" y="700"/>
      <point x="889" y="743" type="qcurve" smooth="yes"/>
      <point x="878" y="771"/>
      <point x="850" y="823"/>
      <point x="832" y="845" type="qcurve"/>
      <point x="492" y="156" type="line"/>
      <point x="520" y="143" name="inserted"/>
      <point x="581" y="130"/>
      <point x="615" y="130" type="qcurve" smooth="yes"/>
      <point x="691" y="130"/>
      <point x="806" y="194"/>
      <point x="845" y="249" type="qcurve" smooth="yes" name="inserted"/>
      <point x="883" y="304"/>
      <point x="921" y="449"/>
      <point x="921" y="529" type="qcurve" smooth="yes"/>
    </contour>
  </outline>
</glyph>
<glyph name="thorn" format="2">
  <advance width="1229"/>
  <unicode hex="00FE"/>
  <outline>
    <contour>
      <point x="1087" y="529" type="line" smooth="yes"/>
      <point x="1087" y="413"/>
      <point x="1033" y="212"/>
      <point x="980" y="138" type="qcurve" smooth="yes" name="inserted"/>
      <point x="926" y="64"/>
      <point x="770" y="-20"/>
      <point x="668" y="-20" type="qcurve" smooth="yes"/>
      <point x="609" y="-20"/>
      <point x="507" y="3"/>
      <point x="464" y="25" type="qcurve" smooth="yes"/>
      <point x="434" y="40"/>
      <point x="381" y="81"/>
      <point x="358" y="107" type="qcurve"/>
      <point x="358" y="-416" type="line"/>
      <point x="173" y="-416" type="line"/>
      <point x="173" y="1558" type="line"/>
      <point x="358" y="1558" type="line"/>
      <point x="358" y="970" type="line"/>
      <point x="381" y="997"/>
      <point x="434" y="1040"/>
      <point x="464" y="1056" type="qcurve" smooth="yes"/>
      <point x="506" y="1079"/>
      <point x="607" y="1102"/>
      <point x="665" y="1102" type="qcurve" smooth="yes"/>
      <point x="769" y="1102"/>
      <point x="927" y="1020"/>
      <point x="980" y="947" type="qcurve" smooth="yes" name="inserted"/>
      <point x="1033" y="874"/>
      <point x="1087" y="671"/>
      <point x="1087" y="550" type="qcurve" smooth="yes"/>
    </contour>
    <contour>
      <point x="902" y="550" type="line" smooth="yes"/>
      <point x="902" y="629"/>
      <point x="868" y="772"/>
      <point x="833" y="827" type="qcurve" smooth="yes" name="inserted"/>
      <point x="797" y="881"/>
      <point x="687" y="945"/>
      <point x="610" y="945" type="qcurve" smooth="yes"/>
      <point x="563" y="945"/>
      <point x="484" y="922"/>
      <point x="453" y="901" type="qcurve" smooth="yes"/>
      <point x="423" y="882"/>
      <point x="376" y="828"/>
      <point x="358" y="796" type="qcurve"/>
      <point x="358" y="278" type="line"/>
      <point x="376" y="248"/>
      <point x="420" y="197"/>
      <point x="448" y="178" type="qcurve" smooth="yes"/>
      <point x="480" y="156"/>
      <point x="562" y="131"/>
      <point x="612" y="131" type="qcurve" smooth="yes"/>
      <point x="688" y="131"/>
      <point x="798" y="196"/>
      <point x="833" y="251" type="qcurve" smooth="yes" name="inserted"/>
      <point x="868" y="306"/>
      <point x="902" y="450"/>
      <point x="902" y="529" type="qcurve" smooth="yes"/>
    </contour>
  </outline>
</glyph>
<glyph name="Aogonek" format="2">
  <advance width="1229"/>
  <unicode hex="0104"/>
  <outline>
    <contour>
      <point x="706" y="1456" type="line"/>
      <point x="1168" y="0" type="line"/>
      <point x="1120" y="0" type="line"/>
      <point x="1085" y="-19"/>
      <point x="1026" y="-63"/>
      <point x="1004" y="-87" type="qcurve" smooth="yes"/>
      <point x="977" y="-116"/>
      <point x="948" y="-183"/>
      <point x="948" y="-219" type="qcurve" smooth="yes"/>
      <point x="948" y="-253"/>
      <point x="984" y="-294"/>
      <point x="1026" y="-294" type="qcurve" smooth="yes"/>
      <point x="1058" y="-295"/>
      <point x="1111" y="-276"/>
      <point x="1127" y="-268" type="qcurve"/>
      <point x="1158" y="-389" type="line"/>
      <point x="1130" y="-405"/>
      <point x="1045" y="-433"/>
      <point x="980" y="-433" type="qcurve" smooth="yes"/>
      <point x="939" y="-433"/>
      <point x="869" y="-409"/>
      <point x="843" y="-385" type="qcurve" smooth="yes" name="inserted"/>
      <point x="817" y="-361"/>
      <point x="787" y="-290"/>
      <point x="787" y="-243" type="qcurve" smooth="yes"/>
      <point x="787.0" y="-195.6158004233938"/>
      <point x="835" y="-102"/>
      <point x="874" y="-56" type="qcurve" smooth="yes"/>
      <point x="894" y="-32"/>
      <point x="946" y="7"/>
      <point x="976" y="25" type="qcurve"/>
      <point x="869" y="377" type="line"/>
      <point x="383" y="377" type="line"/>
      <point x="266" y="0" type="line"/>
      <point x="81" y="0" type="line"/>
      <point x="551" y="1456" type="line"/>
    </contour>
    <contour>
      <point x="433" y="538" type="line"/>
      <point x="820" y="538" type="line"/>
      <point x="628" y="1170" type="line"/>
    </contour>
  </outline>
</glyph>
<glyph name="Iogonek" format="2">
  <advance width="1229"/>
  <unicode hex="012E"/>
  <outline>
    <contour>
      <point x="174" y="1456" type="line"/>
      <point x="1054" y="1456" type="line"/>
      <point x="1054" y="1295" type="line"/>
      <point x="705" y="1295" type="line"/>
      <point x="705" y="160" type="line"/>
      <point x="1054" y="160" type="line"/>
      <point x="1054" y="0" type="line"/>
      <point x="762" y="0" type="line"/>
      <point x="728" y="-18"/>
      <point x="671" y="-60"/>
      <point x="650" y="-83" type="qcurve" smooth="yes"/>
      <point x="621" y="-113"/>
      <point x="590" y="-182"/>
      <point x="590" y="-219" type="qcurve" smooth="yes"/>
      <point x="590" y="-253"/>
      <point x="626" y="-294"/>
      <point x="668" y="-294" type="qcurve" smooth="yes"/>
      <point x="700" y="-295"/>
      <point x="753" y="-276"/>
      <point x="769" y="-268" type="qcurve"/>
      <point x="800" y="-389" type="line"/>
      <point x="772" y="-405"/>
      <point x="687" y="-433"/>
      <point x="622" y="-433" type="qcurve" smooth="yes"/>
      <point x="581" y="-433"/>
      <point x="511" y="-409"/>
      <point x="485" y="-385" type="qcurve" smooth="yes" name="inserted"/>
      <point x="459" y="-361"/>
      <point x="429" y="-290"/>
      <point x="429" y="-243" type="qcurve" smooth="yes"/>
      <point x="429" y="-202"/>
      <point x="464" y="-117"/>
      <point x="497" y="-78" type="qcurve" smooth="yes"/>
      <point x="514" y="-57"/>
      <point x="556" y="-18"/>
      <point x="581" y="0" type="qcurve"/>
      <point x="174" y="0" type="line"/>
      <point x="174" y="160" type="line"/>
      <point x="515" y="160" type="line"/>
      <point x="515" y="1295" type="line"/>
      <point x="174" y="1295" type="line"/>
    </contour>
  </outline>
</glyph>
<glyph name="eng" format="2">
  <advance width="1229"/>
  <unicode hex="014B"/>
  <outline>
    <contour>
      <point x="184" y="0" type="line"/>
      <point x="184" y="1082" type="line"/>
      <point x="350" y="1082" type="line"/>
      <point x="361" y="938" type="line"/>
      <point x="362" y="928" type="line"/>
      <point x="382" y="957"/>
      <point x="427" y="1008"/>
      <point x="453" y="1028" type="qcurve" smooth="yes"/>
      <point x="499" y="1063"/>
      <point x="613" y="1102"/>
      <point x="681" y="1102" type="qcurve" smooth="yes"/>
      <point x="767" y="1102"/>
      <point x="903" y="1052"/>
      <point x="950" y="1001" type="qcurve" smooth="yes" name="inserted"/>
      <point x="997" y="949"/>
      <point x="1047" y="790"/>
      <point x="1047" y="682" type="qcurve" smooth="yes"/>
      <point x="1047" y="-89" type="line" smooth="yes"/>
      <point x="1047" y="-177"/>
      <point x="999" y="-312"/>
      <point x="953" y="-356" type="qcurve" smooth="yes"/>
      <point x="913" y="-395"/>
      <point x="797" y="-437"/>
      <point x="724" y="-437" type="qcurve" smooth="yes"/>
      <point x="694" y="-437"/>
      <point x="640" y="-429"/>
      <point x="610" y="-419" type="qcurve"/>
      <point x="624" y="-262" type="line"/>
      <point x="645" y="-268"/>
      <point x="705" y="-275"/>
      <point x="724" y="-275" type="qcurve" smooth="yes"/>
      <point x="751" y="-275"/>
      <point x="796" y="-259"/>
      <point x="812" y="-243" type="qcurve" smooth="yes"/>
      <point x="837" y="-220"/>
      <point x="862" y="-142"/>
      <point x="862" y="-89" type="qcurve" smooth="yes"/>
      <point x="862" y="678" type="line" smooth="yes"/>
      <point x="862" y="746"/>
      <point x="835" y="846"/>
      <point x="808" y="878" type="qcurve" smooth="yes"/>
      <point x="779" y="913"/>
      <point x="688" y="945"/>
      <point x="626" y="945" type="qcurve" smooth="yes"/>
      <point x="572" y="945"/>
      <point x="484" y="921"/>
      <point x="451" y="898" type="qcurve" smooth="yes"/>
      <point x="426" y="881"/>
      <point x="385" y="836"/>
      <point x="369" y="810" type="qcurve"/>
      <point x="369" y="0" type="line"/>
    </contour>
  </outline>
</glyph>
<glyph name="Uogonek" format="2">
  <advance width="1229"/>
  <unicode hex="0172"/>
  <outline>
    <contour>
      <point x="1088" y="1456" type="line"/>
      <point x="1090" y="470" type="line" smooth="yes"/>
      <point x="1090" y="396"/>
      <point x="1050" y="260"/>
      <point x="1015" y="202" type="qcurve" smooth="yes" name="inserted"/>
      <point x="980" y="144"/>
      <point x="880" y="54"/>
      <point x="819" y="25" type="qcurve"/>
      <point x="784" y="2"/>
      <point x="730" y="-49"/>
      <point x="712" y="-77" type="qcurve" smooth="yes"/>
      <point x="699" y="-99"/>
      <point x="685" y="-147"/>
      <point x="685" y="-172" type="qcurve" smooth="yes"/>
      <point x="685" y="-206"/>
      <point x="721" y="-247"/>
      <point x="763" y="-247" type="qcurve" smooth="yes"/>
      <point x="795" y="-248"/>
      <point x="848" y="-229"/>
      <point x="864" y="-221" type="qcurve"/>
      <point x="895" y="-342" type="line"/>
      <point x="867" y="-358"/>
      <point x="782" y="-386"/>
      <point x="717" y="-386" type="qcurve" smooth="yes"/>
      <point x="676" y="-386"/>
      <point x="606" y="-362"/>
      <point x="580" y="-338" type="qcurve" smooth="yes" name="inserted"/>
      <point x="554" y="-314"/>
      <point x="524" y="-243"/>
      <point x="524" y="-196" type="qcurve" smooth="yes"/>
      <point x="524" y="-168"/>
      <point x="540" y="-111"/>
      <point x="555" y="-84" type="qcurve" smooth="yes"/>
      <point x="564" y="-67"/>
      <point x="588" y="-35"/>
      <point x="602" y="-19" type="qcurve"/>
      <point x="601" y="-19"/>
      <point x="598" y="-19"/>
      <point x="597" y="-19" type="qcurve" smooth="yes"/>
      <point x="494" y="-16"/>
      <point x="328" y="62"/>
      <point x="269" y="127" type="qcurve" smooth="yes" name="inserted"/>
      <point x="208" y="193"/>
      <point x="140" y="369"/>
      <point x="139" y="470" type="qcurve" smooth="yes"/>
      <point x="141" y="1456" type="line"/>
      <point x="317" y="1456" type="line"/>
      <point x="321" y="470" type="line" smooth="yes"/>
      <point x="322" y="405"/>
      <point x="361" y="285"/>
      <point x="398" y="239" type="qcurve" smooth="yes" name="inserted"/>
      <point x="434" y="193"/>
      <point x="543" y="137"/>
      <point x="614" y="137" type="qcurve" smooth="yes"/>
      <point x="685" y="137"/>
      <point x="793" y="192"/>
      <point x="830" y="239" type="qcurve" smooth="yes" name="inserted"/>
      <point x="866" y="285"/>
      <point x="904" y="405"/>
      <point x="906" y="470" type="qcurve" smooth="yes"/>
      <point x="909" y="1456" type="line"/>
    </contour>
  </outline>
</glyph>
<glyph name="florin" format="2">
  <advance width="1229"/>
  <unicode hex="0192"/>
  <outline>
    <contour>
      <point x="895" y="939" type="line"/>
      <point x="683" y="939" type="line"/>
      <point x="683" y="-52" type="line" smooth="yes"/>
      <point x="683" y="-145"/>
      <point x="633" y="-289"/>
      <point x="587" y="-337" type="qcurve" smooth="yes" name="inserted"/>
      <point x="540" y="-386"/>
      <point x="405" y="-437"/>
      <point x="320" y="-437" type="qcurve" smooth="yes"/>
      <point x="279" y="-437"/>
      <point x="199" y="-421"/>
      <point x="160" y="-401" type="qcurve"/>
      <point x="174" y="-253" type="line"/>
      <point x="203" y="-269"/>
      <point x="298.09768323678395" y="-285.0"/>
      <point x="320" y="-285" type="qcurve" smooth="yes"/>
      <point x="354" y="-285"/>
      <point x="411" y="-264"/>
      <point x="432" y="-245" type="qcurve" smooth="yes"/>
      <point x="464" y="-215"/>
      <point x="497" y="-117"/>
      <point x="498" y="-52" type="qcurve" smooth="yes"/>
      <point x="498" y="939" type="line"/>
      <point x="321" y="939" type="line"/>
      <point x="321" y="1082" type="line"/>
      <point x="498" y="1082" type="line"/>
      <point x="498" y="1181" type="line" smooth="yes"/>
      <point x="498" y="1277"/>
      <point x="556" y="1426"/>
      <point x="611" y="1477" type="qcurve" smooth="yes" name="inserted"/>
      <point x="665" y="1527"/>
      <point x="819" y="1579"/>
      <point x="915" y="1579" type="qcurve" smooth="yes"/>
      <point x="962" y="1579"/>
      <point x="1051" y="1557"/>
      <point x="1098" y="1540" type="qcurve"/>
      <point x="1075" y="1393" type="line"/>
      <point x="1049" y="1406"/>
      <point x="978" y="1422"/>
      <point x="938" y="1422" type="qcurve" smooth="yes"/>
      <point x="873" y="1421"/>
      <point x="775" y="1390"/>
      <point x="744" y="1359" type="qcurve" smooth="yes"/>
      <point x="712" y="1329"/>
      <point x="682" y="1239"/>
      <point x="682" y="1181" type="qcurve" smooth="yes"/>
      <point x="683" y="1082" type="line"/>
      <point x="895" y="1082" type="line"/>
    </contour>
  </outline>
</glyph>
<glyph name="ohorn" format="2">
  <advance width="1229"/>
  <unicode hex="01A1"/>
  <outline>
    <contour>
      <point x="119" y="551" type="line" smooth="yes"/>
      <point x="119" y="668"/>
      <point x="187" y="869"/>
      <point x="251" y="943" type="qcurve" smooth="yes" name="inserted"/>
      <point x="314" y="1017"/>
      <point x="496" y="1102"/>
      <point x="610" y="1102" type="qcurve" smooth="yes"/>
      <point x="706" y="1102"/>
      <point x="864" y="1043"/>
      <point x="925" y="990" type="qcurve"/>
      <point x="951" y="998"/>
      <point x="990" y="1032"/>
      <point x="1003" y="1056" type="qcurve" smooth="yes"/>
      <point x="1017" y="1082"/>
      <point x="1030" y="1151"/>
      <point x="1030" y="1194" type="qcurve"/>
      <point x="1198" y="1194" type="line"/>
      <point x="1197" y="1129"/>
      <point x="1170" y="1021"/>
      <point x="1145" y="980" type="qcurve" smooth="yes"/>
      <point x="1122" y="944"/>
      <point x="1060" y="892"/>
      <point x="1020" y="875" type="qcurve"/>
      <point x="1061" y="807"/>
      <point x="1103" y="643"/>
      <point x="1103" y="551" type="qcurve" smooth="yes"/>
      <point x="1103" y="529" type="line"/>
      <point x="1103" y="412"/>
      <point x="1035" y="212"/>
      <point x="972" y="138" type="qcurve" smooth="yes" name="inserted"/>
      <point x="908" y="64"/>
      <point x="726" y="-20"/>
      <point x="612" y="-20" type="qcurve" smooth="yes"/>
      <point x="497" y="-20"/>
      <point x="314" y="64"/>
      <point x="251" y="138" type="qcurve" smooth="yes" name="inserted"/>
      <point x="187" y="212"/>
      <point x="119" y="412"/>
      <point x="119" y="529" type="qcurve" smooth="yes"/>
    </contour>
    <contour>
      <point x="304" y="529" type="line" smooth="yes"/>
      <point x="304" y="449"/>
      <point x="342" y="304"/>
      <point x="380.5" y="249.0" type="qcurve" smooth="yes" name="inserted"/>
      <point x="419" y="194"/>
      <point x="535" y="130"/>
      <point x="612" y="130" type="qcurve" smooth="yes"/>
      <point x="688" y="130"/>
      <point x="803" y="194"/>
      <point x="841.5" y="249.0" type="qcurve" smooth="yes" name="inserted"/>
      <point x="880" y="304"/>
      <point x="918" y="449"/>
      <point x="918" y="529" type="qcurve" smooth="yes"/>
      <point x="918" y="551" type="line" smooth="yes"/>
      <point x="918" y="630"/>
      <point x="879" y="775"/>
      <point x="840.5" y="830.0" type="qcurve" smooth="yes" name="inserted"/>
      <point x="802" y="885"/>
      <point x="687" y="950"/>
      <point x="610" y="950" type="qcurve" smooth="yes"/>
      <point x="533" y="950"/>
      <point x="419" y="885"/>
      <point x="380.5" y="830.0" type="qcurve" smooth="yes" name="inserted"/>
      <point x="342" y="775"/>
      <point x="304.0" y="630.0"/>
      <point x="304" y="551" type="qcurve"/>
    </contour>
  </outline>
</glyph>
<glyph name="Theta" format="2">
  <advance width="1229"/>
  <unicode hex="0398"/>
  <outline>
    <contour>
      <point x="845" y="660" type="line"/>
      <point x="381" y="660" type="line"/>
      <point x="381" y="811" type="line"/>
      <point x="845" y="811" type="line"/>
    </contour>
    <contour>
      <point x="1121" y="644" type="line" smooth="yes"/>
      <point x="1121.0" y="524.7929440940399"/>
      <point x="1061.64335360226" y="283.4650304033901"/>
      <point x="998" y="188" type="qcurve" smooth="yes"/>
      <point x="938.6299276865991" y="97.38252120586193"/>
      <point x="747.3581108977198" y="-20.0"/>
      <point x="615" y="-20" type="qcurve" smooth="yes"/>
      <point x="486" y="-20"/>
      <point x="301" y="90"/>
      <point x="238" y="179" type="qcurve" smooth="yes"/>
      <point x="172" y="276"/>
      <point x="108" y="522"/>
      <point x="106" y="644" type="qcurve" smooth="yes"/>
      <point x="106" y="810" type="line" smooth="yes"/>
      <point x="108" y="939"/>
      <point x="174" y="1188"/>
      <point x="247" y="1289" type="qcurve" smooth="yes"/>
      <point x="312" y="1379"/>
      <point x="492" y="1476"/>
      <point x="613" y="1476" type="qcurve" smooth="yes"/>
      <point x="746" y="1476"/>
      <point x="936" y="1360"/>
      <point x="999" y="1264" type="qcurve" smooth="yes"/>
      <point x="1062" y="1168"/>
      <point x="1119" y="928"/>
      <point x="1121" y="810" type="qcurve" smooth="yes"/>
    </contour>
    <contour>
      <point x="938" y="812" type="line" smooth="yes"/>
      <point x="936" y="899"/>
      <point x="900" y="1095"/>
      <point x="852" y="1175" type="qcurve" smooth="yes"/>
      <point x="817" y="1233"/>
      <point x="698" y="1311"/>
      <point x="613" y="1311" type="qcurve" smooth="yes"/>
      <point x="526" y="1311"/>
      <point x="409" y="1229"/>
      <point x="371" y="1168" type="qcurve" smooth="yes"/>
      <point x="325" y="1089"/>
      <point x="288" y="896"/>
      <point x="288" y="812" type="qcurve" smooth="yes"/>
      <point x="288" y="644" type="line" smooth="yes"/>
      <point x="288" y="559"/>
      <point x="328" y="362"/>
      <point x="373" y="285" type="qcurve" smooth="yes"/>
      <point x="409" y="225"/>
      <point x="528" y="143"/>
      <point x="615" y="143" type="qcurve" smooth="yes"/>
      <point x="703.3973334969497" y="143.0"/>
      <point x="822.2190564969833" y="222.9943016945698"/>
      <point x="860" y="291" type="qcurve" smooth="yes"/>
      <point x="902.8226955328936" y="364.0504806149363"/>
      <point x="936.3416643905999" y="557.7665483111963"/>
      <point x="938" y="644" type="qcurve" smooth="yes"/>
    </contour>
  </outline>
</glyph>
<glyph name="alpha" format="2">
  <advance width="1229"/>
  <unicode hex="03B1"/>
  <outline>
    <contour>
      <point x="1007" y="1082" type="line"/>
      <point x="1007" y="277" type="line" smooth="yes"/>
      <point x="1007" y="239"/>
      <point x="1019" y="188"/>
      <point x="1030" y="173" type="qcurve" smooth="yes" name="inserted"/>
      <point x="1040" y="158"/>
      <point x="1069" y="145"/>
      <point x="1087" y="145" type="qcurve" smooth="yes"/>
      <point x="1102" y="145"/>
      <point x="1129" y="149"/>
      <point x="1139" y="151" type="qcurve"/>
      <point x="1162" y="13" type="line"/>
      <point x="1131" y="-8"/>
      <point x="1072" y="-21"/>
      <point x="1040" y="-21" type="qcurve" smooth="yes"/>
      <point x="993" y="-21"/>
      <point x="919" y="5"/>
      <point x="892" y="32" type="qcurve" smooth="yes"/>
      <point x="876" y="48"/>
      <point x="851" y="92"/>
      <point x="842" y="120" type="qcurve"/>
      <point x="822" y="94"/>
      <point x="774" y="51"/>
      <point x="747" y="34" type="qcurve" smooth="yes"/>
      <point x="703" y="7"/>
      <point x="595" y="-21"/>
      <point x="531" y="-21" type="qcurve" smooth="yes"/>
      <point x="433" y="-21"/>
      <point x="283" y="58"/>
      <point x="232" y="128" type="qcurve" smooth="yes" name="inserted"/>
      <point x="181" y="197"/>
      <point x="129" y="388"/>
      <point x="129" y="500" type="qcurve" smooth="yes"/>
      <point x="129" y="521" type="line" smooth="yes"/>
      <point x="129" y="646"/>
      <point x="181" y="859"/>
      <point x="232" y="937" type="qcurve" smooth="yes" name="inserted"/>
      <point x="283" y="1014"/>
      <point x="434" y="1102"/>
      <point x="533" y="1102" type="qcurve" smooth="yes"/>
      <point x="598" y="1102"/>
      <point x="706" y="1072"/>
      <point x="751" y="1044" type="qcurve" smooth="yes"/>
      <point x="778" y="1027"/>
      <point x="826" y="982"/>
      <point x="846" y="955" type="qcurve"/>
      <point x="849" y="963" type="line"/>
      <point x="895" y="1082" type="line"/>
    </contour>
    <contour>
      <point x="314" y="500" type="line" smooth="yes"/>
      <point x="314" y="425"/>
      <point x="342" y="291"/>
      <point x="374" y="241" type="qcurve" smooth="yes" name="inserted"/>
      <point x="405" y="190"/>
      <point x="505" y="130"/>
      <point x="576" y="130" type="qcurve" smooth="yes"/>
      <point x="632" y="130"/>
      <point x="721" y="164"/>
      <point x="755" y="194" type="qcurve" smooth="yes"/>
      <point x="775" y="211"/>
      <point x="808" y="253"/>
      <point x="822" y="277" type="qcurve"/>
      <point x="822" y="290"/>
      <point x="822.0" y="309.0"/>
      <point x="822" y="328" type="qcurve" smooth="yes"/>
      <point x="822" y="808" type="line"/>
      <point x="803" y="839"/>
      <point x="755" y="891"/>
      <point x="725" y="910" type="qcurve" smooth="yes" name="inserted"/>
      <point x="694" y="929"/>
      <point x="621" y="950"/>
      <point x="578" y="950" type="qcurve" smooth="yes"/>
      <point x="506" y="950"/>
      <point x="405" y="880"/>
      <point x="374" y="821" type="qcurve" smooth="yes" name="inserted"/>
      <point x="342" y="761"/>
      <point x="314" y="606"/>
      <point x="314" y="521" type="qcurve" smooth="yes"/>
    </contour>
  </outline>
</glyph>
<glyph name="beta" format="2">
  <advance width="1229"/>
  <unicode hex="03B2"/>
  <outline>
    <contour>
      <point x="619" y="1476" type="qcurve" smooth="yes"/>
      <point x="716" y="1476"/>
      <point x="874" y="1419"/>
      <point x="930" y="1367" type="qcurve" smooth="yes" name="inserted"/>
      <point x="986" y="1314"/>
      <point x="1047" y="1170"/>
      <point x="1047" y="1083" type="qcurve" smooth="yes"/>
      <point x="1047" y="1025"/>
      <point x="1007" y="920"/>
      <point x="970" y="878" type="qcurve" smooth="yes"/>
      <point x="948" y="853"/>
      <point x="893" y="810"/>
      <point x="861" y="793" type="qcurve"/>
      <point x="904" y="777"/>
      <point x="977" y="732"/>
      <point x="1006" y="703" type="qcurve" smooth="yes"/>
      <point x="1059" y="651"/>
      <point x="1115" y="509"/>
      <point x="1115" y="424" type="qcurve" smooth="yes"/>
      <point x="1115" y="317"/>
      <point x="1047" y="152"/>
      <point x="986" y="95" type="qcurve" smooth="yes" name="inserted"/>
      <point x="925" y="38"/>
      <point x="759" y="-21"/>
      <point x="661" y="-21" type="qcurve" smooth="yes"/>
      <point x="621" y="-21"/>
      <point x="540" y="-10"/>
      <point x="501" y="2" type="qcurve" smooth="yes"/>
      <point x="463" y="13"/>
      <point x="391" y="50"/>
      <point x="360" y="75" type="qcurve"/>
      <point x="360" y="-384" type="line"/>
      <point x="174" y="-384" type="line"/>
      <point x="174" y="1073" type="line" smooth="yes"/>
      <point x="174" y="1155"/>
      <point x="245" y="1302"/>
      <point x="306" y="1357" type="qcurve" smooth="yes" name="inserted"/>
      <point x="366" y="1412"/>
      <point x="527" y="1476"/>
    </contour>
    <contour>
      <point x="615" y="858" type="line" smooth="yes"/>
      <point x="679" y="858"/>
      <point x="773" y="892"/>
      <point x="803" y="922" type="qcurve" smooth="yes" name="inserted"/>
      <point x="833" y="952"/>
      <point x="862" y="1036"/>
      <point x="862" y="1087" type="qcurve" smooth="yes"/>
      <point x="862" y="1133"/>
      <point x="830" y="1219"/>
      <point x="799" y="1252" type="qcurve" smooth="yes" name="inserted"/>
      <point x="768" y="1285"/>
      <point x="677" y="1325"/>
      <point x="619" y="1325" type="qcurve" smooth="yes"/>
      <point x="564" y="1325"/>
      <point x="469" y="1286"/>
      <point x="435" y="1252" type="qcurve" smooth="yes" name="inserted"/>
      <point x="400" y="1218"/>
      <point x="360" y="1126"/>
      <point x="360" y="1073" type="qcurve" smooth="yes"/>
      <point x="360" y="246" type="line"/>
      <point x="381" y="221"/>
      <point x="435" y="180"/>
      <point x="468" y="165" type="qcurve" smooth="yes"/>
      <point x="504" y="149"/>
      <point x="592" y="130"/>
      <point x="642" y="130" type="qcurve" smooth="yes"/>
      <point x="709" y="130"/>
      <point x="816" y="173"/>
      <point x="853" y="212" type="qcurve" smooth="yes" name="inserted"/>
      <point x="890" y="250"/>
      <point x="930" y="357"/>
      <point x="930" y="420" type="qcurve" smooth="yes"/>
      <point x="930" y="473"/>
      <point x="896" y="575"/>
      <point x="863" y="616" type="qcurve" smooth="yes" name="inserted"/>
      <point x="830" y="656"/>
      <point x="735" y="706"/>
      <point x="674" y="706" type="qcurve" smooth="yes"/>
      <point x="531" y="706" type="line"/>
      <point x="531" y="858" type="line"/>
    </contour>
  </outline>
</glyph>
<glyph name="epsilon" format="2">
  <advance width="1229"/>
  <unicode hex="03B5"/>
  <outline>
    <contour>
      <point x="139" y="304" type="qcurve" smooth="yes"/>
      <point x="139" y="361"/>
      <point x="180" y="453"/>
      <point x="220" y="486" type="qcurve" smooth="yes"/>
      <point x="246" y="509"/>
      <point x="316" y="544"/>
      <point x="358" y="556" type="qcurve"/>
      <point x="317" y="571"/>
      <point x="249" y="612"/>
      <point x="224" y="637" type="qcurve" smooth="yes"/>
      <point x="192" y="668"/>
      <point x="158" y="745"/>
      <point x="158" y="787" type="qcurve" smooth="yes"/>
      <point x="158" y="865"/>
      <point x="224" y="982"/>
      <point x="286" y="1022" type="qcurve" smooth="yes" name="inserted"/>
      <point x="347" y="1061"/>
      <point x="522" y="1101"/>
      <point x="630" y="1101" type="qcurve" smooth="yes"/>
      <point x="725" y="1101"/>
      <point x="896" y="1057"/>
      <point x="961" y="1016" type="qcurve" smooth="yes" name="inserted"/>
      <point x="1025" y="974"/>
      <point x="1101" y="855"/>
      <point x="1102" y="780" type="qcurve"/>
      <point x="917" y="780" type="line"/>
      <point x="917" y="817"/>
      <point x="870" y="880"/>
      <point x="831" y="903" type="qcurve" smooth="yes" name="inserted"/>
      <point x="792" y="925"/>
      <point x="688" y="951"/>
      <point x="630" y="951" type="qcurve" smooth="yes"/>
      <point x="555" y="951"/>
      <point x="447" y="925"/>
      <point x="412" y="903" type="qcurve" smooth="yes" name="inserted"/>
      <point x="377" y="880"/>
      <point x="344" y="820"/>
      <point x="344" y="786" type="qcurve" smooth="yes"/>
      <point x="344" y="749"/>
      <point x="374" y="690"/>
      <point x="407" y="669" type="qcurve" smooth="yes" name="inserted"/>
      <point x="423" y="659"/>
      <point x="465" y="643"/>
      <point x="490" y="637" type="qcurve" smooth="yes"/>
      <point x="516" y="632"/>
      <point x="580" y="626"/>
      <point x="618" y="626" type="qcurve" smooth="yes"/>
      <point x="861" y="626" type="line"/>
      <point x="861" y="478" type="line"/>
      <point x="618" y="478" type="line" smooth="yes"/>
      <point x="583" y="478"/>
      <point x="521" y="474"/>
      <point x="494" y="469" type="qcurve" smooth="yes"/>
      <point x="459" y="463"/>
      <point x="402" y="441"/>
      <point x="381" y="426" type="qcurve" smooth="yes"/>
      <point x="353" y="405"/>
      <point x="325" y="344"/>
      <point x="325" y="304" type="qcurve" smooth="yes"/>
      <point x="325" y="267"/>
      <point x="365" y="203"/>
      <point x="404" y="180" type="qcurve" smooth="yes" name="inserted"/>
      <point x="442" y="156"/>
      <point x="556" y="129"/>
      <point x="630" y="129" type="qcurve" smooth="yes"/>
      <point x="696" y="129"/>
      <point x="808" y="159"/>
      <point x="849" y="186" type="qcurve" smooth="yes" name="inserted"/>
      <point x="889" y="212"/>
      <point x="935" y="281"/>
      <point x="935" y="320" type="qcurve"/>
      <point x="1120" y="320" type="line"/>
      <point x="1119" y="233"/>
      <point x="1033" y="103"/>
      <point x="971" y="66" type="qcurve" smooth="yes"/>
      <point x="901" y="24"/>
      <point x="727" y="-20"/>
      <point x="630" y="-20" type="qcurve" smooth="yes"/>
      <point x="522" y="-20"/>
      <point x="342" y="23"/>
      <point x="277" y="65" type="qcurve" smooth="yes" name="inserted"/>
      <point x="211" y="106"/>
      <point x="139" y="226"/>
    </contour>
  </outline>
</glyph>
<glyph name="xi" format="2">
  <advance width="1229"/>
  <unicode hex="03BE"/>
  <outline>
    <contour>
      <point x="1015" y="1288" type="line"/>
      <point x="958" y="1303"/>
      <point x="845" y="1324"/>
      <point x="784" y="1324" type="qcurve" smooth="yes"/>
      <point x="689" y="1324"/>
      <point x="554" y="1294"/>
      <point x="511" y="1269" type="qcurve" smooth="yes" name="inserted"/>
      <point x="467" y="1243"/>
      <point x="426" y="1175"/>
      <point x="426" y="1136" type="qcurve" smooth="yes"/>
      <point x="426" y="1106"/>
      <point x="440" y="1052"/>
      <point x="456" y="1030" type="qcurve" smooth="yes"/>
      <point x="470" y="1007"/>
      <point x="518" y="970"/>
      <point x="551" y="957" type="qcurve" smooth="yes"/>
      <point x="596" y="937"/>
      <point x="724" y="917"/>
      <point x="808" y="917" type="qcurve" smooth="yes"/>
      <point x="950" y="917" type="line"/>
      <point x="950" y="765" type="line"/>
      <point x="808" y="765" type="line" smooth="yes"/>
      <point x="729" y="765"/>
      <point x="597" y="746"/>
      <point x="546" y="726" type="qcurve" smooth="yes"/>
      <point x="506" y="710"/>
      <point x="443" y="667"/>
      <point x="421" y="639" type="qcurve" smooth="yes"/>
      <point x="391" y="602"/>
      <point x="360" y="504"/>
      <point x="360" y="444" type="qcurve" smooth="yes"/>
      <point x="360" y="376"/>
      <point x="415" y="274"/>
      <point x="462" y="237" type="qcurve" smooth="yes" name="inserted"/>
      <point x="508" y="200"/>
      <point x="631" y="154"/>
      <point x="698" y="142" type="qcurve" smooth="yes"/>
      <point x="809" y="117" type="line" smooth="yes"/>
      <point x="863" y="104"/>
      <point x="958" y="79"/>
      <point x="994" y="57" type="qcurve" smooth="yes" name="inserted"/>
      <point x="1029" y="34"/>
      <point x="1070" y="-40"/>
      <point x="1070" y="-101" type="qcurve"/>
      <point x="1069" y="-140"/>
      <point x="1034" y="-224"/>
      <point x="1008" y="-263" type="qcurve" smooth="yes" name="inserted"/>
      <point x="981" y="-303"/>
      <point x="919" y="-371"/>
      <point x="892" y="-393" type="qcurve"/>
      <point x="795" y="-309" type="line"/>
      <point x="819" y="-282"/>
      <point x="855" y="-240"/>
      <point x="868" y="-219" type="qcurve" smooth="yes" name="inserted"/>
      <point x="880" y="-199"/>
      <point x="893" y="-154"/>
      <point x="893" y="-125" type="qcurve" smooth="yes"/>
      <point x="893" y="-106"/>
      <point x="877" y="-77"/>
      <point x="862" y="-66" type="qcurve" smooth="yes"/>
      <point x="843" y="-51"/>
      <point x="780" y="-31"/>
      <point x="737" y="-21" type="qcurve" smooth="yes"/>
      <point x="679" y="-8" type="line" smooth="yes"/>
      <point x="565" y="14"/>
      <point x="379" y="79"/>
      <point x="313" y="131" type="qcurve" smooth="yes" name="inserted"/>
      <point x="247" y="182"/>
      <point x="175" y="336"/>
      <point x="175" y="448" type="qcurve" smooth="yes"/>
      <point x="175" y="524"/>
      <point x="222" y="650"/>
      <point x="267" y="699" type="qcurve" smooth="yes" name="inserted"/>
      <point x="311" y="748"/>
      <point x="437" y="820"/>
      <point x="516" y="842" type="qcurve"/>
      <point x="451" y="863"/>
      <point x="349" y="922"/>
      <point x="314" y="959" type="qcurve" smooth="yes" name="inserted"/>
      <point x="278" y="996"/>
      <point x="240" y="1083"/>
      <point x="240" y="1132" type="qcurve" smooth="yes"/>
      <point x="240" y="1215"/>
      <point x="315" y="1343"/>
      <point x="386" y="1387" type="qcurve" smooth="yes" name="inserted"/>
      <point x="456" y="1431"/>
      <point x="656" y="1476"/>
      <point x="782" y="1476" type="qcurve" smooth="yes"/>
      <point x="853" y="1476"/>
      <point x="993" y="1454"/>
      <point x="1041" y="1437" type="qcurve"/>
    </contour>
  </outline>
</glyph>
<glyph name="rho" format="2">
  <advance width="1229"/>
  <unicode hex="03C1"/>
  <outline>
    <contour>
      <point x="1094" y="500" type="line" smooth="yes"/>
      <point x="1094" y="388"/>
      <point x="1040" y="197"/>
      <point x="988" y="128" type="qcurve" smooth="yes" name="inserted"/>
      <point x="935" y="58"/>
      <point x="780" y="-20"/>
      <point x="678" y="-20" type="qcurve" smooth="yes"/>
      <point x="611" y="-20"/>
      <point x="496" y="8"/>
      <point x="448" y="34" type="qcurve" smooth="yes"/>
      <point x="421" y="49"/>
      <point x="372" y="89"/>
      <point x="350" y="112" type="qcurve"/>
      <point x="350" y="-416" type="line"/>
      <point x="165" y="-416" type="line"/>
      <point x="165" y="578" type="line" smooth="yes"/>
      <point x="165.0" y="727.4117647058824"/>
      <point x="253" y="924"/>
      <point x="321" y="986" type="qcurve" smooth="yes"/>
      <point x="385" y="1045"/>
      <point x="541" y="1102"/>
      <point x="630" y="1102" type="qcurve" smooth="yes"/>
      <point x="747" y="1102"/>
      <point x="922" y="1014"/>
      <point x="980" y="937" type="qcurve" smooth="yes" name="inserted"/>
      <point x="1037" y="859"/>
      <point x="1094" y="647"/>
      <point x="1094" y="521" type="qcurve" smooth="yes"/>
    </contour>
    <contour>
      <point x="909" y="521" type="line" smooth="yes"/>
      <point x="909" y="606"/>
      <point x="879" y="762"/>
      <point x="846" y="821" type="qcurve" smooth="yes" name="inserted"/>
      <point x="813" y="880"/>
      <point x="707" y="950"/>
      <point x="630" y="950" type="qcurve" smooth="yes"/>
      <point x="578" y="950"/>
      <point x="491" y="912"/>
      <point x="457" y="879" type="qcurve" smooth="yes"/>
      <point x="405" y="827"/>
      <point x="350" y="667"/>
      <point x="350" y="577" type="qcurve"/>
      <point x="350" y="284" type="line"/>
      <point x="369" y="251"/>
      <point x="421" y="194"/>
      <point x="455" y="174" type="qcurve" smooth="yes" name="inserted"/>
      <point x="488" y="153"/>
      <point x="572" y="130"/>
      <point x="623" y="130" type="qcurve" smooth="yes"/>
      <point x="699" y="130"/>
      <point x="808" y="189"/>
      <point x="843" y="240" type="qcurve" smooth="yes" name="inserted"/>
      <point x="877" y="291"/>
      <point x="909" y="425"/>
      <point x="909" y="500" type="qcurve" smooth="yes"/>
    </contour>
  </outline>
</glyph>
<glyph name="phi" format="2">
  <advance width="1229"/>
  <unicode hex="03C6"/>
  <outline>
    <contour>
      <point x="525" y="-14" type="line"/>
      <point x="412" y="1"/>
      <point x="255" y="104"/>
      <point x="205" y="180" type="qcurve" smooth="yes" name="inserted"/>
      <point x="155" y="255"/>
      <point x="110" y="444"/>
      <point x="110" y="546" type="qcurve" smooth="yes"/>
      <point x="110" y="642"/>
      <point x="149" y="816"/>
      <point x="189" y="889" type="qcurve" smooth="yes"/>
      <point x="219" y="945"/>
      <point x="306" y="1043"/>
      <point x="361" y="1082" type="qcurve"/>
      <point x="462" y="949" type="line"/>
      <point x="417" y="908"/>
      <point x="355" y="810"/>
      <point x="336" y="758" type="qcurve" smooth="yes" name="inserted"/>
      <point x="316" y="705"/>
      <point x="297" y="597"/>
      <point x="295" y="545" type="qcurve"/>
      <point x="295" y="481"/>
      <point x="320" y="353"/>
      <point x="347" y="299" type="qcurve" smooth="yes" name="inserted"/>
      <point x="374" y="244"/>
      <point x="462" y="161"/>
      <point x="525" y="143" type="qcurve"/>
      <point x="525" y="835" type="line" smooth="yes"/>
      <point x="525" y="883"/>
      <point x="555" y="972"/>
      <point x="586" y="1007" type="qcurve" smooth="yes" name="inserted"/>
      <point x="616" y="1041"/>
      <point x="710" y="1082"/>
      <point x="774" y="1082" type="qcurve" smooth="yes"/>
      <point x="852" y="1082"/>
      <point x="986" y="998"/>
      <point x="1036" y="926" type="qcurve" smooth="yes" name="inserted"/>
      <point x="1086" y="853"/>
      <point x="1143" y="656"/>
      <point x="1143" y="544" type="qcurve" smooth="yes"/>
      <point x="1143" y="443"/>
      <point x="1095" y="255"/>
      <point x="1043" y="179" type="qcurve" smooth="yes" name="inserted"/>
      <point x="991" y="103"/>
      <point x="827" y="0"/>
      <point x="710" y="-15" type="qcurve"/>
      <point x="710" y="-478" type="line"/>
      <point x="525" y="-478" type="line"/>
    </contour>
    <contour>
      <point x="710" y="141" type="line"/>
      <point x="777" y="159"/>
      <point x="871" y="241"/>
      <point x="901" y="297" type="qcurve" smooth="yes" name="inserted"/>
      <point x="931" y="352"/>
      <point x="958" y="481"/>
      <point x="958" y="544" type="qcurve" smooth="yes"/>
      <point x="956" y="614"/>
      <point x="933" y="752"/>
      <point x="911" y="807" type="qcurve" smooth="yes" name="inserted"/>
      <point x="888" y="861"/>
      <point x="820" y="929"/>
      <point x="774" y="929" type="qcurve" smooth="yes"/>
      <point x="760" y="929"/>
      <point x="738" y="920"/>
      <point x="731" y="912" type="qcurve" smooth="yes"/>
      <point x="720" y="900"/>
      <point x="710" y="865"/>
      <point x="710" y="842" type="qcurve" smooth="yes"/>
    </contour>
  </outline>
</glyph>
<glyph name="uni0402" format="2">
  <advance width="1229"/>
  <unicode hex="0402"/>
  <outline>
    <contour>
      <point x="1085" y="1304" type="line"/>
      <point x="573" y="1304" type="line"/>
      <point x="573" y="849" type="line"/>
      <point x="603" y="851"/>
      <point x="664" y="855"/>
      <point x="695" y="855" type="qcurve" smooth="yes"/>
      <point x="803" y="855"/>
      <point x="972" y="791"/>
      <point x="1030" y="732" type="qcurve" smooth="yes" name="inserted"/>
      <point x="1088" y="673"/>
      <point x="1148" y="502"/>
      <point x="1148" y="396" type="qcurve" smooth="yes"/>
      <point x="1148" y="292"/>
      <point x="1092" y="134"/>
      <point x="1037" y="83" type="qcurve" smooth="yes"/>
      <point x="988" y="37"/>
      <point x="845" y="-11"/>
      <point x="754" y="-11" type="qcurve"/>
      <point x="752" y="134" type="line"/>
      <point x="810" y="134"/>
      <point x="891" y="171"/>
      <point x="916" y="205" type="qcurve" smooth="yes" name="inserted"/>
      <point x="940" y="239"/>
      <point x="962" y="336"/>
      <point x="962" y="396" type="qcurve" smooth="yes"/>
      <point x="961" y="471"/>
      <point x="924" y="589"/>
      <point x="885" y="627" type="qcurve" smooth="yes"/>
      <point x="853" y="659"/>
      <point x="758" y="693"/>
      <point x="695" y="693" type="qcurve" smooth="yes"/>
      <point x="663" y="693"/>
      <point x="603" y="689"/>
      <point x="573" y="687" type="qcurve"/>
      <point x="573" y="0" type="line"/>
      <point x="389" y="0" type="line"/>
      <point x="389" y="1304" type="line"/>
      <point x="42" y="1304" type="line"/>
      <point x="42" y="1456" type="line"/>
      <point x="1085" y="1456" type="line"/>
    </contour>
  </outline>
</glyph>
<glyph name="uni040B" format="2">
  <advance width="1229"/>
  <unicode hex="040B"/>
  <outline>
    <contour>
      <point x="1088" y="1304" type="line"/>
      <point x="598" y="1304" type="line"/>
      <point x="598" y="852" type="line"/>
      <point x="626" y="856"/>
      <point x="680" y="860"/>
      <point x="706" y="859" type="qcurve" smooth="yes"/>
      <point x="805" y="859"/>
      <point x="962" y="813"/>
      <point x="1016.0" y="764.0" type="qcurve" smooth="yes" name="inserted"/>
      <point x="1070" y="715"/>
      <point x="1128" y="563"/>
      <point x="1128" y="457" type="qcurve" smooth="yes"/>
      <point x="1128" y="0" type="line"/>
      <point x="943" y="0" type="line"/>
      <point x="943" y="457" type="line" smooth="yes"/>
      <point x="943" y="525"/>
      <point x="915" y="620"/>
      <point x="885.5" y="650.0" type="qcurve" smooth="yes" name="inserted"/>
      <point x="856" y="680"/>
      <point x="767" y="707"/>
      <point x="706" y="707" type="qcurve" smooth="yes"/>
      <point x="678.0" y="707.0" name="inserted"/>
      <point x="624.0" y="704.0"/>
      <point x="598" y="701" type="qcurve"/>
      <point x="598" y="0" type="line"/>
      <point x="413" y="0" type="line"/>
      <point x="413" y="1304" type="line"/>
      <point x="67" y="1304" type="line"/>
      <point x="67" y="1456" type="line"/>
      <point x="1088" y="1456" type="line"/>
    </contour>
  </outline>
</glyph>
<glyph name="uni0423" format="2">
  <advance width="1229"/>
  <unicode hex="0423"/>
  <outline>
    <contour>
      <point x="103" y="14" type="qcurve"/>
      <point x="127" y="155" type="line"/>
      <point x="153" y="148"/>
      <point x="243.1262188488731" y="130.0"/>
      <point x="282" y="130" type="qcurve" smooth="yes"/>
      <point x="328" y="130"/>
      <point x="398" y="157"/>
      <point x="424" y="179" type="qcurve" smooth="yes" name="inserted"/>
      <point x="450" y="201"/>
      <point x="486" y="257"/>
      <point x="499" y="285" type="qcurve"/>
      <point x="541" y="370" type="line"/>
      <point x="43" y="1456" type="line"/>
      <point x="251" y="1456" type="line"/>
      <point x="559" y="759" type="line"/>
      <point x="630" y="568" type="line"/>
      <point x="702" y="747" type="line"/>
      <point x="990" y="1456" type="line"/>
      <point x="1205" y="1456" type="line"/>
      <point x="670" y="240" type="line" smooth="yes"/>
      <point x="647" y="188"/>
      <point x="588" y="93"/>
      <point x="546" y="57" type="qcurve" smooth="yes" name="inserted"/>
      <point x="504" y="21"/>
      <point x="385" y="-21"/>
      <point x="302" y="-21" type="qcurve" smooth="yes"/>
      <point x="234" y="-21"/>
      <point x="129" y="3"/>
    </contour>
  </outline>
</glyph>
<glyph name="uni042A" format="2">
  <advance width="1229"/>
  <unicode hex="042A"/>
  <outline>
    <contour>
      <point x="50" y="1456" type="line"/>
      <point x="540" y="1456" type="line"/>
      <point x="540" y="857" type="line"/>
      <point x="684" y="857" type="line" smooth="yes"/>
      <point x="795" y="857"/>
      <point x="967" y="796"/>
      <point x="1025.5" y="740.5" type="qcurve" smooth="yes" name="inserted"/>
      <point x="1084" y="685"/>
      <point x="1145" y="529"/>
      <point x="1145" y="433" type="qcurve" smooth="yes"/>
      <point x="1145" y="338"/>
      <point x="1084" y="179"/>
      <point x="1025.5" y="121.5" type="qcurve" smooth="yes" name="inserted"/>
      <point x="967" y="64"/>
      <point x="795" y="0"/>
      <point x="684" y="0" type="qcurve" smooth="yes"/>
      <point x="355" y="0" type="line"/>
      <point x="355" y="1304" type="line"/>
      <point x="50" y="1304" type="line"/>
    </contour>
    <contour>
      <point x="540" y="706" type="line"/>
      <point x="540" y="151" type="line"/>
      <point x="684" y="151" type="line" smooth="yes"/>
      <point x="757" y="151"/>
      <point x="861" y="198"/>
      <point x="894.5" y="237.0" type="qcurve" smooth="yes" name="inserted"/>
      <point x="928" y="276"/>
      <point x="959" y="379"/>
      <point x="959" y="435" type="qcurve" smooth="yes"/>
      <point x="959" y="490"/>
      <point x="928" y="589"/>
      <point x="894.5" y="626.0" type="qcurve" smooth="yes" name="inserted"/>
      <point x="861" y="663"/>
      <point x="757" y="706"/>
      <point x="684" y="706" type="qcurve" smooth="yes"/>
    </contour>
  </outline>
</glyph>
<glyph name="uni043C" format="2">
  <advance width="1229"/>
  <unicode hex="043C"/>
  <outline>
    <contour>
      <point x="604" y="245" type="line"/>
      <point x="834" y="1082" type="line"/>
      <point x="1065" y="1082" type="line"/>
      <point x="1065" y="0" type="line"/>
      <point x="880" y="0" type="line"/>
      <point x="880" y="667" type="line"/>
      <point x="668" y="0" type="line"/>
      <point x="540" y="0" type="line"/>
      <point x="322" y="691" type="line"/>
      <point x="322" y="0" type="line"/>
      <point x="137" y="0" type="line"/>
      <point x="137" y="1082" type="line"/>
      <point x="376" y="1082" type="line"/>
    </contour>
  </outline>
</glyph>
<glyph name="uni0452" format="2">
  <advance width="1229"/>
  <unicode hex="0452"/>
  <outline>
    <contour>
      <point x="614" y="1209" type="line"/>
      <point x="351" y="1209" type="line"/>
      <point x="351" y="921" type="line"/>
      <point x="377" y="959"/>
      <point x="440" y="1021"/>
      <point x="477" y="1044" type="qcurve" smooth="yes"/>
      <point x="521" y="1071"/>
      <point x="626" y="1101"/>
      <point x="685" y="1102" type="qcurve" smooth="yes"/>
      <point x="770" y="1102"/>
      <point x="909" y="1053"/>
      <point x="958" y="1001" type="qcurve" smooth="yes" name="inserted"/>
      <point x="1007" y="949"/>
      <point x="1060" y="790"/>
      <point x="1060" y="681" type="qcurve" smooth="yes"/>
      <point x="1061" y="-89" type="line"/>
      <point x="1061.0" y="-174.0"/>
      <point x="1017" y="-306"/>
      <point x="975" y="-350" type="qcurve" smooth="yes"/>
      <point x="934" y="-393"/>
      <point x="814" y="-437"/>
      <point x="738" y="-437" type="qcurve" smooth="yes"/>
      <point x="706" y="-437"/>
      <point x="652" y="-430"/>
      <point x="622" y="-420" type="qcurve"/>
      <point x="637" y="-272" type="line"/>
      <point x="656" y="-278"/>
      <point x="722.0525745016135" y="-285.0"/>
      <point x="738" y="-285" type="qcurve" smooth="yes"/>
      <point x="767" y="-285"/>
      <point x="815" y="-264"/>
      <point x="832" y="-244" type="qcurve" smooth="yes"/>
      <point x="853" y="-218"/>
      <point x="875.0" y="-140.0"/>
      <point x="875" y="-89" type="qcurve"/>
      <point x="875" y="683" type="line" smooth="yes"/>
      <point x="875" y="748"/>
      <point x="845" y="845"/>
      <point x="815" y="877" type="qcurve" smooth="yes"/>
      <point x="784" y="912"/>
      <point x="691" y="946"/>
      <point x="630" y="945" type="qcurve" smooth="yes"/>
      <point x="587" y="945"/>
      <point x="507" y="923"/>
      <point x="472" y="904" type="qcurve" smooth="yes"/>
      <point x="436" y="883"/>
      <point x="374" y="823"/>
      <point x="351" y="786" type="qcurve"/>
      <point x="351" y="0" type="line"/>
      <point x="166" y="0" type="line"/>
      <point x="166" y="1209" type="line"/>
      <point x="-23" y="1209" type="line"/>
      <point x="-23" y="1360" type="line"/>
      <point x="166" y="1360" type="line"/>
      <point x="166" y="1536" type="line"/>
      <point x="351" y="1536" type="line"/>
      <point x="351" y="1360" type="line"/>
      <point x="614" y="1360" type="line"/>
    </contour>
  </outline>
</glyph>
<glyph name="uni0459" format="2">
  <advance width="1229"/>
  <unicode hex="0459"/>
  <outline>
    <contour>
      <point x="776" y="1082" type="line"/>
      <point x="776" y="670" type="line"/>
      <point x="842" y="670" type="line" smooth="yes"/>
      <point x="929" y="670"/>
      <point x="1063" y="620"/>
      <point x="1108" y="576" type="qcurve" smooth="yes" name="inserted"/>
      <point x="1153" y="531"/>
      <point x="1200" y="410"/>
      <point x="1200" y="338" type="qcurve" smooth="yes"/>
      <point x="1200" y="267"/>
      <point x="1153" y="144"/>
      <point x="1108" y="99" type="qcurve" smooth="yes" name="inserted"/>
      <point x="1063" y="53"/>
      <point x="929" y="0"/>
      <point x="842" y="0" type="qcurve" smooth="yes"/>
      <point x="591" y="0" type="line"/>
      <point x="591" y="929" type="line"/>
      <point x="397" y="929" type="line"/>
      <point x="397" y="619" type="line" smooth="yes"/>
      <point x="397" y="592"/>
      <point x="396" y="540"/>
      <point x="395" y="516" type="qcurve" smooth="yes"/>
      <point x="391" y="406"/>
      <point x="359" y="229"/>
      <point x="330" y="164" type="qcurve" smooth="yes" name="inserted"/>
      <point x="293" y="84"/>
      <point x="173" y="0"/>
      <point x="83" y="0" type="qcurve" smooth="yes"/>
      <point x="38" y="0" type="line"/>
      <point x="42" y="155" type="line"/>
      <point x="72" y="156" type="line" smooth="yes"/>
      <point x="113" y="156"/>
      <point x="167" y="217"/>
      <point x="183" y="276" type="qcurve" smooth="yes" name="inserted"/>
      <point x="195" y="322"/>
      <point x="209" y="446"/>
      <point x="211" y="524" type="qcurve" smooth="yes"/>
      <point x="211" y="546"/>
      <point x="212" y="594"/>
      <point x="212" y="619" type="qcurve" smooth="yes"/>
      <point x="212" y="1082" type="line"/>
    </contour>
    <contour>
      <point x="1013" y="340" type="qcurve" smooth="yes"/>
      <point x="1013" y="373"/>
      <point x="995" y="437"/>
      <point x="974.5" y="462.0" type="qcurve" smooth="yes" name="inserted"/>
      <point x="954" y="487"/>
      <point x="889" y="518"/>
      <point x="842" y="518" type="qcurve" smooth="yes"/>
      <point x="776" y="518" type="line"/>
      <point x="776" y="149" type="line"/>
      <point x="842" y="149" type="line" smooth="yes"/>
      <point x="889" y="149"/>
      <point x="954" y="184"/>
      <point x="974.5" y="211.0" type="qcurve" smooth="yes" name="inserted"/>
      <point x="995" y="238"/>
      <point x="1013" y="306"/>
    </contour>
  </outline>
</glyph>
<glyph name="uni0460" format="2">
  <advance width="1229"/>
  <unicode hex="0460"/>
  <outline>
    <contour>
      <point x="1150" y="1456" type="line"/>
      <point x="1151" y="318" type="line" smooth="yes"/>
      <point x="1151" y="236"/>
      <point x="1108" y="110"/>
      <point x="1069" y="67" type="qcurve" smooth="yes" name="inserted"/>
      <point x="1030" y="24"/>
      <point x="921" y="-20"/>
      <point x="855" y="-20" type="qcurve" smooth="yes"/>
      <point x="807" y="-20"/>
      <point x="725" y="8"/>
      <point x="693" y="36" type="qcurve" smooth="yes"/>
      <point x="673" y="54"/>
      <point x="641" y="99"/>
      <point x="629" y="127" type="qcurve"/>
      <point x="615" y="95"/>
      <point x="575" y="44"/>
      <point x="551" y="25" type="qcurve" smooth="yes"/>
      <point x="521" y="3"/>
      <point x="446" y="-20"/>
      <point x="404" y="-20" type="qcurve" smooth="yes"/>
      <point x="337" y="-20"/>
      <point x="228" y="24"/>
      <point x="189" y="67" type="qcurve" smooth="yes" name="inserted"/>
      <point x="150" y="110"/>
      <point x="107" y="236"/>
      <point x="107" y="318" type="qcurve" smooth="yes"/>
      <point x="108" y="1456" type="line"/>
      <point x="292" y="1456" type="line"/>
      <point x="293" y="318" type="line" smooth="yes"/>
      <point x="293" y="269"/>
      <point x="311" y="194"/>
      <point x="329" y="170" type="qcurve" smooth="yes"/>
      <point x="342" y="151"/>
      <point x="381" y="130"/>
      <point x="404" y="130" type="qcurve" smooth="yes"/>
      <point x="428" y="130"/>
      <point x="470" y="147"/>
      <point x="485" y="163" type="qcurve" smooth="yes"/>
      <point x="508" y="187"/>
      <point x="533" y="266"/>
      <point x="533" y="318" type="qcurve" smooth="yes"/>
      <point x="534" y="1456" type="line"/>
      <point x="725" y="1456" type="line"/>
      <point x="725" y="318" type="line" smooth="yes"/>
      <point x="725" y="266"/>
      <point x="749" y="188"/>
      <point x="772" y="164" type="qcurve" smooth="yes"/>
      <point x="788" y="148"/>
      <point x="830" y="130"/>
      <point x="855" y="130" type="qcurve" smooth="yes"/>
      <point x="880" y="130"/>
      <point x="919" y="153"/>
      <point x="933" y="175" type="qcurve" smooth="yes"/>
      <point x="949" y="199"/>
      <point x="965" y="272"/>
      <point x="965" y="318" type="qcurve" smooth="yes"/>
      <point x="966" y="1456" type="line"/>
    </contour>
  </outline>
</glyph>
<glyph name="uni0461" format="2">
  <advance width="1229"/>
  <unicode hex="0461"/>
  <outline>
    <contour>
      <point x="1146" y="1083" type="line"/>
      <point x="1146" y="316" type="line" smooth="yes"/>
      <point x="1146" y="234"/>
      <point x="1103" y="108"/>
      <point x="1064" y="66" type="qcurve" smooth="yes" name="inserted"/>
      <point x="1024" y="23"/>
      <point x="914" y="-21"/>
      <point x="848" y="-21" type="qcurve" smooth="yes"/>
      <point x="801" y="-21"/>
      <point x="721" y="5"/>
      <point x="690" y="32" type="qcurve" smooth="yes"/>
      <point x="669" y="49"/>
      <point x="633" y="97"/>
      <point x="620" y="126" type="qcurve"/>
      <point x="605" y="91"/>
      <point x="561" y="38"/>
      <point x="535" y="19" type="qcurve" smooth="yes"/>
      <point x="506" y="-1"/>
      <point x="435" y="-21"/>
      <point x="394" y="-21" type="qcurve" smooth="yes"/>
      <point x="327" y="-21"/>
      <point x="217" y="23"/>
      <point x="178" y="66" type="qcurve" smooth="yes" name="inserted"/>
      <point x="139" y="108"/>
      <point x="95" y="234"/>
      <point x="95" y="316" type="qcurve" smooth="yes"/>
      <point x="96" y="1083" type="line"/>
      <point x="281" y="1083" type="line"/>
      <point x="281" y="316" type="line" smooth="yes"/>
      <point x="281" y="269"/>
      <point x="298" y="197"/>
      <point x="315" y="173" type="qcurve" smooth="yes"/>
      <point x="329" y="152"/>
      <point x="369" y="130"/>
      <point x="394" y="130" type="qcurve" smooth="yes"/>
      <point x="421" y="130"/>
      <point x="467" y="151"/>
      <point x="484" y="171" type="qcurve" smooth="yes"/>
      <point x="503" y="195"/>
      <point x="525" y="268"/>
      <point x="525" y="316" type="qcurve" smooth="yes"/>
      <point x="525" y="1083" type="line"/>
      <point x="716" y="1083" type="line"/>
      <point x="717" y="316" type="line" smooth="yes"/>
      <point x="717" y="265"/>
      <point x="741" y="188"/>
      <point x="764" y="165" type="qcurve" smooth="yes"/>
      <point x="780" y="148"/>
      <point x="822" y="130"/>
      <point x="848" y="130" type="qcurve" smooth="yes"/>
      <point x="875" y="130"/>
      <point x="917" y="156"/>
      <point x="932" y="181" type="qcurve" smooth="yes"/>
      <point x="946" y="204"/>
      <point x="961" y="273"/>
      <point x="961" y="316" type="qcurve" smooth="yes"/>
      <point x="961" y="1083" type="line"/>
    </contour>
  </outline>
</glyph>
<glyph name="uni0465" format="2">
  <advance width="1229"/>
  <unicode hex="0465"/>
  <outline>
    <contour>
      <point x="967" y="464" type="line"/>
      <point x="668" y="464" type="line"/>
      <point x="668" y="462" type="line"/>
      <point x="669" y="426"/>
      <point x="677" y="355"/>
      <point x="683" y="323" type="qcurve" smooth="yes"/>
      <point x="695.0" y="273.0"/>
      <point x="731.0000000000001" y="191.00000000000003"/>
      <point x="757" y="165" type="qcurve" smooth="yes"/>
      <point x="775" y="148"/>
      <point x="820" y="130"/>
      <point x="847" y="130" type="qcurve" smooth="yes"/>
      <point x="877" y="130"/>
      <point x="927" y="157"/>
      <point x="946" y="181" type="qcurve" smooth="yes" name="inserted"/>
      <point x="964" y="205"/>
      <point x="985" y="268"/>
      <point x="986" y="304" type="qcurve"/>
      <point x="1161" y="304" type="line"/>
      <point x="1161" y="240"/>
      <point x="1111" y="123"/>
      <point x="1069" y="78" type="qcurve" smooth="yes" name="inserted"/>
      <point x="1026" y="33"/>
      <point x="911" y="-20"/>
      <point x="847" y="-20" type="qcurve" smooth="yes"/>
      <point x="795" y="-20"/>
      <point x="706" y="6"/>
      <point x="670" y="31" type="qcurve" smooth="yes"/>
      <point x="611.8658203062976" y="69.01080979972848"/>
      <point x="529.7092878353807" y="199.39927793693766"/>
      <point x="508" y="279" type="qcurve" smooth="yes"/>
      <point x="497" y="321"/>
      <point x="484" y="413"/>
      <point x="483" y="462" type="qcurve"/>
      <point x="483" y="464" type="line"/>
      <point x="340" y="464" type="line"/>
      <point x="340" y="0" type="line"/>
      <point x="155" y="0" type="line"/>
      <point x="155" y="1082" type="line"/>
      <point x="340" y="1082" type="line"/>
      <point x="340" y="615" type="line"/>
      <point x="483" y="615" type="line"/>
      <point x="484" y="666"/>
      <point x="497" y="762"/>
      <point x="509" y="805" type="qcurve" smooth="yes"/>
      <point x="529" y="877"/>
      <point x="597" y="993"/>
      <point x="646" y="1034" type="qcurve" smooth="yes"/>
      <point x="686" y="1066"/>
      <point x="787" y="1102"/>
      <point x="847" y="1102" type="qcurve" smooth="yes"/>
      <point x="918" y="1102"/>
      <point x="1034" y="1046"/>
      <point x="1075" y="998" type="qcurve" smooth="yes" name="inserted"/>
      <point x="1116" y="950"/>
      <point x="1161" y="821"/>
      <point x="1161" y="747" type="qcurve"/>
      <point x="986" y="747" type="line"/>
      <point x="986" y="787"/>
      <point x="967" y="861"/>
      <point x="949" y="889" type="qcurve" smooth="yes" name="inserted"/>
      <point x="931" y="917"/>
      <point x="880" y="950"/>
      <point x="847" y="950" type="qcurve" smooth="yes"/>
      <point x="819" y="950"/>
      <point x="772" y="929"/>
      <point x="753" y="910" type="qcurve" smooth="yes"/>
      <point x="728" y="885"/>
      <point x="693" y="806"/>
      <point x="683" y="759" type="qcurve" smooth="yes"/>
      <point x="676" y="725"/>
      <point x="669" y="652"/>
      <point x="668" y="615" type="qcurve"/>
      <point x="967" y="615" type="line"/>
    </contour>
  </outline>
</glyph>
<glyph name="uni046B" format="2">
  <advance width="1229"/>
  <unicode hex="046B"/>
  <outline>
    <contour>
      <point x="105" y="0" type="line"/>
      <point x="105" y="219" type="line" smooth="yes"/>
      <point x="105" y="318"/>
      <point x="148" y="461"/>
      <point x="190" y="507" type="qcurve" smooth="yes" name="inserted"/>
      <point x="231" y="553"/>
      <point x="350" y="600"/>
      <point x="423" y="603" type="qcurve"/>
      <point x="426" y="603" type="line"/>
      <point x="143" y="1082" type="line"/>
      <point x="1087" y="1082" type="line"/>
      <point x="803" y="602" type="line"/>
      <point x="806" y="602" type="line"/>
      <point x="877" y="597"/>
      <point x="991" y="549"/>
      <point x="1031" y="503" type="qcurve" smooth="yes" name="inserted"/>
      <point x="1071" y="456"/>
      <point x="1113" y="316"/>
      <point x="1113" y="219" type="qcurve"/>
      <point x="1113" y="0" type="line"/>
      <point x="928" y="0" type="line"/>
      <point x="927" y="219" type="line" smooth="yes"/>
      <point x="927" y="286"/>
      <point x="907" y="375"/>
      <point x="887" y="402" type="qcurve" smooth="yes" name="inserted"/>
      <point x="867" y="429"/>
      <point x="806" y="452"/>
      <point x="764" y="452" type="qcurve"/>
      <point x="713" y="452" type="line"/>
      <point x="705" y="443" type="line"/>
      <point x="705" y="0" type="line"/>
      <point x="519" y="0" type="line"/>
      <point x="519" y="443" type="line"/>
      <point x="514" y="452" type="line"/>
      <point x="453" y="452" type="line"/>
      <point x="411" y="452"/>
      <point x="350" y="429"/>
      <point x="330" y="402" type="qcurve" smooth="yes" name="inserted"/>
      <point x="310" y="375"/>
      <point x="290" y="286"/>
      <point x="290" y="219" type="qcurve" smooth="yes"/>
      <point x="290" y="0" type="line"/>
    </contour>
    <contour>
      <point x="795" y="930" type="line"/>
      <point x="433" y="930" type="line"/>
      <point x="608" y="611" type="line"/>
      <point x="612" y="604" type="line"/>
      <point x="617" y="604" type="line"/>
      <point x="621" y="611" type="line"/>
    </contour>
  </outline>
</glyph>
<glyph name="uni046E" format="2">
  <advance width="1229"/>
  <unicode hex="046E"/>
  <outline>
    <contour>
      <point x="540" y="823" type="line" smooth="yes"/>
      <point x="587" y="824"/>
      <point x="666" y="836"/>
      <point x="698" y="847" type="qcurve" smooth="yes"/>
      <point x="741.993473383371" y="862.7119547797754"/>
      <point x="807.4957151599931" y="912.991430319986"/>
      <point x="824" y="946" type="qcurve" smooth="yes"/>
      <point x="838" y="972"/>
      <point x="852" y="1032"/>
      <point x="852" y="1067" type="qcurve" smooth="yes"/>
      <point x="852" y="1117"/>
      <point x="815" y="1204"/>
      <point x="778" y="1236" type="qcurve" smooth="yes" name="inserted"/>
      <point x="741" y="1268"/>
      <point x="632" y="1304"/>
      <point x="560" y="1304" type="qcurve" smooth="yes"/>
      <point x="254" y="1304" type="line"/>
      <point x="254" y="1456" type="line"/>
      <point x="560" y="1456" type="line" smooth="yes"/>
      <point x="628" y="1456"/>
      <point x="753" y="1432"/>
      <point x="806" y="1409" type="qcurve" smooth="yes"/>
      <point x="859" y="1387"/>
      <point x="944" y="1318"/>
      <point x="974" y="1276" type="qcurve" smooth="yes"/>
      <point x="1005" y="1232"/>
      <point x="1038" y="1125"/>
      <point x="1038" y="1063" type="qcurve" smooth="yes"/>
      <point x="1038" y="1010"/>
      <point x="1003" y="916"/>
      <point x="971" y="876" type="qcurve" smooth="yes" name="inserted"/>
      <point x="939" y="836"/>
      <point x="847" y="772"/>
      <point x="790" y="750" type="qcurve"/>
      <point x="844" y="733"/>
      <point x="934" y="683"/>
      <point x="967" y="649" type="qcurve" smooth="yes"/>
      <point x="1012" y="604"/>
      <point x="1060" y="482"/>
      <point x="1060" y="406" type="qcurve" smooth="yes"/>
      <point x="1060" y="335"/>
      <point x="1024" y="214"/>
      <point x="990" y="165" type="qcurve" smooth="yes"/>
      <point x="968" y="134"/>
      <point x="912" y="80"/>
      <point x="879" y="59" type="qcurve" smooth="yes"/>
      <point x="819" y="21"/>
      <point x="667" y="-19"/>
      <point x="580" y="-19" type="qcurve" smooth="yes"/>
      <point x="527" y="-19" type="line" smooth="yes"/>
      <point x="486" y="-19"/>
      <point x="427" y="-37"/>
      <point x="409" y="-53" type="qcurve" smooth="yes"/>
      <point x="393" y="-68"/>
      <point x="378" y="-108"/>
      <point x="378" y="-132" type="qcurve" smooth="yes"/>
      <point x="378" y="-172"/>
      <point x="411" y="-233"/>
      <point x="436" y="-255" type="qcurve" smooth="yes" name="inserted"/>
      <point x="461" y="-277"/>
      <point x="516" y="-308"/>
      <point x="539" y="-318" type="qcurve"/>
      <point x="465" y="-442" type="line"/>
      <point x="418" y="-422"/>
      <point x="325" y="-363"/>
      <point x="288" y="-323" type="qcurve" smooth="yes" name="inserted"/>
      <point x="250" y="-283"/>
      <point x="203" y="-183"/>
      <point x="202" y="-123" type="qcurve" smooth="yes"/>
      <point x="202" y="-56"/>
      <point x="250" y="40"/>
      <point x="294" y="71" type="qcurve" smooth="yes" name="inserted"/>
      <point x="337" y="102"/>
      <point x="459" y="132"/>
      <point x="534" y="132" type="qcurve" smooth="yes"/>
      <point x="580" y="132" type="line" smooth="yes"/>
      <point x="635" y="132"/>
      <point x="730" y="161"/>
      <point x="767" y="187" type="qcurve" smooth="yes"/>
      <point x="791" y="205"/>
      <point x="830" y="249"/>
      <point x="844" y="275" type="qcurve" smooth="yes"/>
      <point x="859" y="303"/>
      <point x="874" y="367"/>
      <point x="874" y="402" type="qcurve" smooth="yes"/>
      <point x="874" y="471"/>
      <point x="829" y="573"/>
      <point x="786" y="606" type="qcurve" smooth="yes" name="inserted"/>
      <point x="743" y="639"/>
      <point x="619" y="672"/>
      <point x="540" y="672" type="qcurve" smooth="yes"/>
      <point x="399" y="672" type="line"/>
      <point x="399" y="823" type="line"/>
    </contour>
    <contour>
      <point x="572" y="1756" type="line"/>
      <point x="723" y="1908" type="line"/>
      <point x="883" y="1908" type="line"/>
      <point x="883" y="1890" type="line"/>
      <point x="629" y="1642" type="line"/>
      <point x="515" y="1642" type="line"/>
      <point x="264" y="1887" type="line"/>
      <point x="264" y="1908" type="line"/>
      <point x="421" y="1908" type="line"/>
    </contour>
  </outline>
</glyph>
<glyph name="uni0478" format="2">
  <advance width="1229"/>
  <unicode hex="0478"/>
  <outline>
    <contour>
      <point x="650" y="487" type="line" smooth="yes"/>
      <point x="650" y="372"/>
      <point x="611" y="185"/>
      <point x="573.0" y="118.5" type="qcurve" smooth="yes" name="inserted"/>
      <point x="535" y="52"/>
      <point x="422" y="-20"/>
      <point x="349" y="-20" type="qcurve" smooth="yes"/>
      <point x="280" y="-20"/>
      <point x="175" y="52"/>
      <point x="139.5" y="118.5" type="qcurve" smooth="yes" name="inserted"/>
      <point x="104" y="185"/>
      <point x="69" y="372"/>
      <point x="69" y="487" type="qcurve" smooth="yes"/>
      <point x="69" y="968" type="line" smooth="yes"/>
      <point x="69" y="1083"/>
      <point x="104" y="1271"/>
      <point x="139.5" y="1337.5" type="qcurve" smooth="yes" name="inserted"/>
      <point x="175" y="1404"/>
      <point x="280" y="1476"/>
      <point x="349" y="1476" type="qcurve" smooth="yes"/>
      <point x="422" y="1476"/>
      <point x="534" y="1404"/>
      <point x="572.5" y="1337.5" type="qcurve" smooth="yes" name="inserted"/>
      <point x="611" y="1271"/>
      <point x="650" y="1083"/>
      <point x="650" y="968" type="qcurve" smooth="yes"/>
    </contour>
    <contour>
      <point x="465" y="1007" type="line" smooth="yes"/>
      <point x="465" y="1079"/>
      <point x="453" y="1194"/>
      <point x="439.5" y="1234.5" type="qcurve" smooth="yes" name="inserted"/>
      <point x="426" y="1275"/>
      <point x="381" y="1318"/>
      <point x="349" y="1318" type="qcurve" smooth="yes"/>
      <point x="317" y="1318"/>
      <point x="274" y="1275"/>
      <point x="261.0" y="1234.5" type="qcurve" smooth="yes" name="inserted"/>
      <point x="248" y="1194"/>
      <point x="236" y="1079"/>
      <point x="236" y="1007" type="qcurve" smooth="yes"/>
      <point x="236" y="450" type="line" smooth="yes"/>
      <point x="236" y="378"/>
      <point x="248" y="262"/>
      <point x="261.0" y="221.5" type="qcurve" smooth="yes" name="inserted"/>
      <point x="274" y="181"/>
      <point x="317" y="137"/>
      <point x="349" y="137" type="qcurve" smooth="yes"/>
      <point x="382" y="137"/>
      <point x="426" y="181"/>
      <point x="439.5" y="221.5" type="qcurve" smooth="yes" name="inserted"/>
      <point x="453" y="262"/>
      <point x="465" y="378"/>
      <point x="465" y="450" type="qcurve" smooth="yes"/>
    </contour>
    <contour>
      <point x="642" y="-415" type="qcurve"/>
      <point x="646" y="-271" type="line"/>
      <point x="658.0" y="-273"/>
      <point x="704.0" y="-277.0"/>
      <point x="716" y="-277" type="qcurve" smooth="yes"/>
      <point x="745" y="-277"/>
      <point x="786" y="-236"/>
      <point x="800" y="-207" type="qcurve" smooth="yes" name="inserted"/>
      <point x="813" y="-178"/>
      <point x="830" y="-116"/>
      <point x="835" y="-95" type="qcurve" smooth="yes"/>
      <point x="859" y="-1" type="line"/>
      <point x="700" y="1082" type="line"/>
      <point x="864" y="1082" type="line"/>
      <point x="937" y="511" type="line"/>
      <point x="941" y="464" type="line"/>
      <point x="948" y="511" type="line"/>
      <point x="1046" y="1082" type="line"/>
      <point x="1210" y="1082" type="line"/>
      <point x="969" y="-168" type="line" smooth="yes"/>
      <point x="960" y="-207"/>
      <point x="926" y="-299"/>
      <point x="899" y="-338" type="qcurve" smooth="yes" name="inserted"/>
      <point x="871" y="-378"/>
      <point x="791" y="-431"/>
      <point x="734" y="-431" type="qcurve" smooth="yes"/>
      <point x="714" y="-431.0"/>
      <point x="658" y="-420"/>
    </contour>
  </outline>
</glyph>
<glyph name="uni047E" format="2">
  <advance width="1229"/>
  <unicode hex="047E"/>
  <outline>
    <contour>
      <point x="283" y="1796" type="line"/>
      <point x="1003" y="1796" type="line"/>
      <point x="1004" y="1688" type="line"/>
      <point x="719" y="1688" type="line"/>
      <point x="719" y="1563" type="line"/>
      <point x="551" y="1563" type="line"/>
      <point x="551" y="1688" type="line"/>
      <point x="283" y="1688" type="line"/>
    </contour>
    <contour>
      <point x="1156" y="1456" type="line"/>
      <point x="1157" y="318" type="line" smooth="yes"/>
      <point x="1157" y="236"/>
      <point x="1114" y="110"/>
      <point x="1075" y="67" type="qcurve" smooth="yes" name="inserted"/>
      <point x="1036" y="24"/>
      <point x="927" y="-20"/>
      <point x="861" y="-20" type="qcurve" smooth="yes"/>
      <point x="811" y="-20"/>
      <point x="728" y="10"/>
      <point x="696" y="39" type="qcurve" smooth="yes"/>
      <point x="677" y="56"/>
      <point x="647" y="100"/>
      <point x="635" y="127" type="qcurve"/>
      <point x="622" y="98"/>
      <point x="588" y="51"/>
      <point x="567" y="34" type="qcurve" smooth="yes"/>
      <point x="536" y="7"/>
      <point x="456" y="-20"/>
      <point x="410" y="-20" type="qcurve" smooth="yes"/>
      <point x="343" y="-20"/>
      <point x="234" y="24"/>
      <point x="195" y="67" type="qcurve" smooth="yes" name="inserted"/>
      <point x="156" y="110"/>
      <point x="113" y="236"/>
      <point x="113" y="318" type="qcurve" smooth="yes"/>
      <point x="114" y="1456" type="line"/>
      <point x="298" y="1456" type="line"/>
      <point x="299" y="318" type="line" smooth="yes"/>
      <point x="299" y="277"/>
      <point x="312" y="211"/>
      <point x="324" y="187" type="qcurve" smooth="yes"/>
      <point x="339" y="159"/>
      <point x="382" y="130"/>
      <point x="410" y="130" type="qcurve" smooth="yes"/>
      <point x="435" y="130"/>
      <point x="477" y="148"/>
      <point x="493" y="165" type="qcurve" smooth="yes"/>
      <point x="507" y="180"/>
      <point x="527" y="222"/>
      <point x="532" y="249" type="qcurve" smooth="yes"/>
      <point x="536" y="264"/>
      <point x="539" y="299"/>
      <point x="539" y="318" type="qcurve" smooth="yes"/>
      <point x="540" y="1456" type="line"/>
      <point x="731" y="1456" type="line"/>
      <point x="731" y="318" type="line" smooth="yes"/>
      <point x="731" y="301"/>
      <point x="734" y="269"/>
      <point x="737" y="254" type="qcurve" smooth="yes"/>
      <point x="741" y="230"/>
      <point x="758" y="190"/>
      <point x="769" y="175" type="qcurve" smooth="yes"/>
      <point x="786" y="153"/>
      <point x="832" y="130"/>
      <point x="861" y="130" type="qcurve" smooth="yes"/>
      <point x="885" y="130"/>
      <point x="924" y="152"/>
      <point x="938" y="173" type="qcurve" smooth="yes"/>
      <point x="954" y="197"/>
      <point x="971" y="271"/>
      <point x="971" y="318" type="qcurve" smooth="yes"/>
      <point x="972" y="1456" type="line"/>
    </contour>
  </outline>
</glyph>
<glyph name="uni047F" format="2">
  <advance width="1229"/>
  <unicode hex="047F"/>
  <outline>
    <contour>
      <point x="260" y="1456" type="line"/>
      <point x="986" y="1456" type="line"/>
      <point x="987" y="1348" type="line"/>
      <point x="699" y="1348" type="line"/>
      <point x="699" y="1221" type="line"/>
      <point x="531" y="1221" type="line"/>
      <point x="531" y="1348" type="line"/>
      <point x="260" y="1348" type="line"/>
    </contour>
    <contour>
      <point x="1146" y="1083" type="line"/>
      <point x="1146" y="316" type="line" smooth="yes"/>
      <point x="1146" y="234"/>
      <point x="1103" y="108"/>
      <point x="1064" y="66" type="qcurve" smooth="yes" name="inserted"/>
      <point x="1024" y="23"/>
      <point x="914" y="-21"/>
      <point x="848" y="-21" type="qcurve" smooth="yes"/>
      <point x="796" y="-21"/>
      <point x="708" y="12"/>
      <point x="675" y="45" type="qcurve" smooth="yes"/>
      <point x="659" y="61"/>
      <point x="631" y="102"/>
      <point x="620" y="126" type="qcurve"/>
      <point x="610" y="104"/>
      <point x="586" y="66"/>
      <point x="571" y="51" type="qcurve" smooth="yes"/>
      <point x="538" y="15"/>
      <point x="448" y="-21"/>
      <point x="394" y="-21" type="qcurve" smooth="yes"/>
      <point x="327" y="-21"/>
      <point x="217" y="23"/>
      <point x="178" y="66" type="qcurve" smooth="yes" name="inserted"/>
      <point x="139" y="108"/>
      <point x="95" y="234"/>
      <point x="95" y="316" type="qcurve" smooth="yes"/>
      <point x="96" y="1083" type="line"/>
      <point x="281" y="1083" type="line"/>
      <point x="281" y="316" type="line" smooth="yes"/>
      <point x="281" y="271"/>
      <point x="297" y="201"/>
      <point x="312" y="178" type="qcurve" smooth="yes"/>
      <point x="326" y="154"/>
      <point x="368" y="130"/>
      <point x="394" y="130" type="qcurve" smooth="yes"/>
      <point x="440" y="130"/>
      <point x="504" y="188"/>
      <point x="517" y="241" type="qcurve" smooth="yes"/>
      <point x="521" y="258"/>
      <point x="525" y="295"/>
      <point x="525" y="316" type="qcurve" smooth="yes"/>
      <point x="525" y="1083" type="line"/>
      <point x="716" y="1083" type="line"/>
      <point x="717" y="316" type="line" smooth="yes"/>
      <point x="717" y="296"/>
      <point x="721" y="259"/>
      <point x="725" y="243" type="qcurve" smooth="yes"/>
      <point x="737" y="189"/>
      <point x="801" y="130"/>
      <point x="848" y="130" type="qcurve" smooth="yes"/>
      <point x="868" y="130"/>
      <point x="903" y="145"/>
      <point x="916" y="160" type="qcurve" smooth="yes"/>
      <point x="938" y="183"/>
      <point x="961" y="262"/>
      <point x="961" y="316" type="qcurve" smooth="yes"/>
      <point x="961" y="1083" type="line"/>
    </contour>
  </outline>
</glyph>
<glyph name="uni0488" format="2">
  <unicode hex="0488"/>
  <outline>
    <contour>
      <point x="468" y="1267" type="line"/>
      <point x="468" y="1308"/>
      <point x="497" y="1377"/>
      <point x="524.5" y="1402.0" type="qcurve" smooth="yes" name="inserted"/>
      <point x="552" y="1427"/>
      <point x="630" y="1455"/>
      <point x="678" y="1455" type="qcurve" smooth="yes"/>
      <point x="726" y="1455"/>
      <point x="804" y="1427"/>
      <point x="831.5" y="1402.0" type="qcurve" smooth="yes" name="inserted"/>
      <point x="859" y="1377"/>
      <point x="889" y="1308"/>
      <point x="889" y="1267" type="qcurve"/>
      <point x="777" y="1267" type="line"/>
      <point x="777.0" y="1307.0"/>
      <point x="731.9999999999999" y="1368.0"/>
      <point x="678" y="1368" type="qcurve" smooth="yes"/>
      <point x="623.0376548823334" y="1368.0"/>
      <point x="581.0" y="1306.311684972332"/>
      <point x="581" y="1267" type="qcurve"/>
    </contour>
    <contour>
      <point x="1059" y="990" type="line"/>
      <point x="1059" y="1031"/>
      <point x="1089" y="1100"/>
      <point x="1116.0" y="1125.0" type="qcurve" smooth="yes" name="inserted"/>
      <point x="1143" y="1150"/>
      <point x="1221" y="1178"/>
      <point x="1269" y="1178" type="qcurve" smooth="yes"/>
      <point x="1317" y="1178"/>
      <point x="1395" y="1150"/>
      <point x="1423.0" y="1125.0" type="qcurve" smooth="yes" name="inserted"/>
      <point x="1451" y="1100"/>
      <point x="1481" y="1031"/>
      <point x="1481" y="990" type="qcurve"/>
      <point x="1368" y="990" type="line"/>
      <point x="1368.0" y="1030.0"/>
      <point x="1323.0" y="1091.0"/>
      <point x="1269" y="1091" type="qcurve" smooth="yes"/>
      <point x="1216.073297294099" y="1091.0"/>
      <point x="1173.0" y="1029.311684972332"/>
      <point x="1173" y="990" type="qcurve"/>
    </contour>
    <contour>
      <point x="1246" y="487" type="line"/>
      <point x="1246" y="528"/>
      <point x="1276" y="597"/>
      <point x="1303.0" y="622.0" type="qcurve" smooth="yes" name="inserted"/>
      <point x="1330" y="647"/>
      <point x="1408" y="675"/>
      <point x="1456" y="675" type="qcurve" smooth="yes"/>
      <point x="1504" y="675"/>
      <point x="1582" y="647"/>
      <point x="1609.5" y="622.0" type="qcurve" smooth="yes" name="inserted"/>
      <point x="1637" y="597"/>
      <point x="1667" y="528"/>
      <point x="1667" y="487" type="qcurve"/>
      <point x="1555" y="487" type="line"/>
      <point x="1555.0" y="526.9999999999999"/>
      <point x="1510.0" y="588.0"/>
      <point x="1456" y="588" type="qcurve" smooth="yes"/>
      <point x="1403.073297294099" y="588.0"/>
      <point x="1359.0" y="526.3116849723318"/>
      <point x="1359" y="487" type="qcurve"/>
    </contour>
    <contour>
      <point x="1049" y="-32" type="line"/>
      <point x="1049" y="9"/>
      <point x="1079" y="78"/>
      <point x="1106.0" y="103.0" type="qcurve" smooth="yes" name="inserted"/>
      <point x="1133" y="128"/>
      <point x="1211" y="156"/>
      <point x="1259" y="156" type="qcurve" smooth="yes"/>
      <point x="1307" y="156"/>
      <point x="1385" y="128"/>
      <point x="1412.5" y="103.0" type="qcurve" smooth="yes" name="inserted"/>
      <point x="1440" y="78"/>
      <point x="1470" y="9"/>
      <point x="1470" y="-32" type="qcurve"/>
      <point x="1358" y="-32" type="line"/>
      <point x="1358.0" y="8.000000000000007"/>
      <point x="1313.0" y="69.0"/>
      <point x="1259" y="69" type="qcurve" smooth="yes"/>
      <point x="1206.073297294099" y="69.0"/>
      <point x="1162.0" y="7.3116849723319035"/>
      <point x="1162" y="-32" type="qcurve"/>
    </contour>
    <contour>
      <point x="473" y="-316" type="line"/>
      <point x="473" y="-274"/>
      <point x="502" y="-205"/>
      <point x="529.5" y="-180.5" type="qcurve" smooth="yes" name="inserted"/>
      <point x="557" y="-156"/>
      <point x="635" y="-128"/>
      <point x="683" y="-128" type="qcurve" smooth="yes"/>
      <point x="731" y="-128"/>
      <point x="809" y="-156"/>
      <point x="836.5" y="-180.5" type="qcurve" smooth="yes" name="inserted"/>
      <point x="864" y="-205"/>
      <point x="894" y="-274"/>
      <point x="894" y="-316" type="qcurve"/>
      <point x="782" y="-316" type="line"/>
      <point x="782.0" y="-276.0"/>
      <point x="736.9999999999999" y="-215.0"/>
      <point x="683" y="-215" type="qcurve" smooth="yes"/>
      <point x="630.0732972940988" y="-215.0"/>
      <point x="586.0" y="-276.6883150276682"/>
      <point x="586" y="-316" type="qcurve"/>
    </contour>
    <contour>
      <point x="-105" y="990" type="line"/>
      <point x="-105" y="1031"/>
      <point x="-75" y="1100"/>
      <point x="-47.5" y="1125.0" type="qcurve" smooth="yes" name="inserted"/>
      <point x="-20" y="1150"/>
      <point x="58" y="1178"/>
      <point x="106" y="1178" type="qcurve" smooth="yes"/>
      <point x="154" y="1178"/>
      <point x="232" y="1150"/>
      <point x="259.5" y="1125.0" type="qcurve" smooth="yes" name="inserted"/>
      <point x="287" y="1100"/>
      <point x="317" y="1031"/>
      <point x="317" y="990" type="qcurve"/>
      <point x="205" y="990" type="line"/>
      <point x="205.0" y="1030.0"/>
      <point x="160.0" y="1091.0"/>
      <point x="106" y="1091" type="qcurve" smooth="yes"/>
      <point x="51.03765488233335" y="1091.0"/>
      <point x="9.0" y="1029.311684972332"/>
      <point x="9" y="990" type="qcurve"/>
    </contour>
    <contour>
      <point x="-281" y="487" type="line"/>
      <point x="-281" y="528"/>
      <point x="-251" y="597"/>
      <point x="-223.5" y="622.0" type="qcurve" smooth="yes" name="inserted"/>
      <point x="-196" y="647"/>
      <point x="-119" y="675"/>
      <point x="-71" y="675" type="qcurve" smooth="yes"/>
      <point x="-23" y="675"/>
      <point x="55" y="647"/>
      <point x="82.5" y="622.0" type="qcurve" smooth="yes" name="inserted"/>
      <point x="110" y="597"/>
      <point x="140" y="528"/>
      <point x="140" y="487" type="qcurve"/>
      <point x="28" y="487" type="line"/>
      <point x="28.0" y="526.9999999999999"/>
      <point x="-17.000000000000007" y="588.0"/>
      <point x="-71" y="588" type="qcurve" smooth="yes"/>
      <point x="-123.0" y="588.0"/>
      <point x="-168.0" y="526.9999999999999"/>
      <point x="-168" y="487" type="qcurve"/>
    </contour>
    <contour>
      <point x="-115" y="-32" type="line"/>
      <point x="-115" y="9"/>
      <point x="-85" y="78"/>
      <point x="-57.5" y="103.0" type="qcurve" smooth="yes" name="inserted"/>
      <point x="-30" y="128"/>
      <point x="47" y="156"/>
      <point x="95" y="156" type="qcurve" smooth="yes"/>
      <point x="143" y="156"/>
      <point x="221" y="128"/>
      <point x="249.0" y="103.0" type="qcurve" smooth="yes" name="inserted"/>
      <point x="277" y="78"/>
      <point x="307" y="9"/>
      <point x="307" y="-32" type="qcurve"/>
      <point x="194" y="-32" type="line"/>
      <point x="194.0" y="8.0"/>
      <point x="149.0" y="69.0"/>
      <point x="95" y="69" type="qcurve" smooth="yes"/>
      <point x="43.00000000000001" y="69.0"/>
      <point x="-1.0" y="8.000000000000007"/>
      <point x="-1" y="-32" type="qcurve"/>
    </contour>
  </outline>
</glyph>
<glyph name="uni048F" format="2">
  <advance width="1229"/>
  <unicode hex="048F"/>
  <outline>
    <contour>
      <point x="1078" y="2" type="line"/>
      <point x="966" y="-91" type="line"/>
      <point x="603" y="282" type="line"/>
      <point x="716" y="376" type="line"/>
    </contour>
    <contour>
      <point x="1087" y="529" type="line" smooth="yes"/>
      <point x="1087" y="413"/>
      <point x="1031" y="212"/>
      <point x="977" y="138" type="qcurve" smooth="yes" name="inserted"/>
      <point x="923" y="64"/>
      <point x="764" y="-20"/>
      <point x="662" y="-20" type="qcurve" smooth="yes"/>
      <point x="600" y="-20"/>
      <point x="495" y="5"/>
      <point x="451" y="29" type="qcurve" smooth="yes"/>
      <point x="425" y="44"/>
      <point x="378" y="81"/>
      <point x="358" y="104" type="qcurve"/>
      <point x="358" y="-416" type="line"/>
      <point x="173" y="-416" type="line"/>
      <point x="173" y="1082" type="line"/>
      <point x="342" y="1082" type="line"/>
      <point x="351" y="964" type="line"/>
      <point x="373" y="991"/>
      <point x="424" y="1035"/>
      <point x="453" y="1052" type="qcurve" smooth="yes"/>
      <point x="495" y="1077"/>
      <point x="599" y="1102"/>
      <point x="659" y="1102" type="qcurve" smooth="yes"/>
      <point x="763" y="1102"/>
      <point x="923" y="1020"/>
      <point x="977" y="947" type="qcurve" smooth="yes" name="inserted"/>
      <point x="1031" y="874"/>
      <point x="1087" y="671"/>
      <point x="1087" y="550" type="qcurve" smooth="yes"/>
    </contour>
    <contour>
      <point x="902" y="550" type="line" smooth="yes"/>
      <point x="902" y="629"/>
      <point x="867" y="772"/>
      <point x="831" y="827" type="qcurve" smooth="yes" name="inserted"/>
      <point x="794" y="881"/>
      <point x="682" y="945"/>
      <point x="604" y="945" type="qcurve" smooth="yes"/>
      <point x="561" y="945"/>
      <point x="488" y="924"/>
      <point x="458" y="906" type="qcurve" smooth="yes"/>
      <point x="427" y="887"/>
      <point x="377" y="831"/>
      <point x="358" y="797" type="qcurve"/>
      <point x="358" y="276" type="line"/>
      <point x="377" y="242"/>
      <point x="428" y="186"/>
      <point x="460" y="167" type="qcurve" smooth="yes"/>
      <point x="490" y="150"/>
      <point x="562" y="131"/>
      <point x="606" y="131" type="qcurve" smooth="yes"/>
      <point x="690" y="131"/>
      <point x="806" y="208"/>
      <point x="843" y="271" type="qcurve" smooth="yes"/>
      <point x="873" y="323"/>
      <point x="902" y="457"/>
      <point x="902" y="529" type="qcurve" smooth="yes"/>
    </contour>
  </outline>
</glyph>
<glyph name="uni049D" format="2">
  <advance width="1229"/>
  <unicode hex="049D"/>
  <outline>
    <contour>
      <point x="1113" y="1082" type="line"/>
      <point x="775" y="568" type="line"/>
      <point x="1150" y="0" type="line"/>
      <point x="916" y="0" type="line"/>
      <point x="638" y="461" type="line"/>
      <point x="587" y="461" type="line"/>
      <point x="587" y="267" type="line"/>
      <point x="439" y="267" type="line"/>
      <point x="439" y="461" type="line"/>
      <point x="349" y="461" type="line"/>
      <point x="349" y="0" type="line"/>
      <point x="163" y="0" type="line"/>
      <point x="163" y="1082" type="line"/>
      <point x="349" y="1082" type="line"/>
      <point x="349" y="624" type="line"/>
      <point x="439" y="624" type="line"/>
      <point x="439" y="837" type="line"/>
      <point x="587" y="837" type="line"/>
      <point x="587" y="624" type="line"/>
      <point x="631" y="624" type="line"/>
      <point x="890" y="1082" type="line"/>
    </contour>
  </outline>
</glyph>
<glyph name="uni04A4" format="2">
  <advance width="1229"/>
  <unicode hex="04A4"/>
  <outline>
    <contour>
      <point x="299" y="799" type="line"/>
      <point x="670" y="799" type="line"/>
      <point x="670" y="1456" type="line"/>
      <point x="1178" y="1456" type="line"/>
      <point x="1178" y="1304" type="line"/>
      <point x="854" y="1304" type="line"/>
      <point x="854" y="0" type="line"/>
      <point x="670" y="0" type="line"/>
      <point x="670" y="647" type="line"/>
      <point x="299" y="647" type="line"/>
      <point x="299" y="0" type="line"/>
      <point x="114" y="0" type="line"/>
      <point x="114" y="1456" type="line"/>
      <point x="299" y="1456" type="line"/>
    </contour>
  </outline>
</glyph>
<glyph name="uni04A7" format="2">
  <advance width="1229"/>
  <unicode hex="04A7"/>
  <outline>
    <contour>
      <point x="116" y="0" type="line"/>
      <point x="116" y="1082" type="line"/>
      <point x="717" y="1082" type="line"/>
      <point x="717" y="645" type="line"/>
      <point x="725" y="645" type="line"/>
      <point x="818" y="645"/>
      <point x="974" y="579"/>
      <point x="1030" y="517" type="qcurve" smooth="yes" name="inserted"/>
      <point x="1086" y="455"/>
      <point x="1148" y="279"/>
      <point x="1148" y="170" type="qcurve"/>
      <point x="1146.3937264911217" y="108.96160666262578"/>
      <point x="1105.0401497856199" y="-42.115065033757844"/>
      <point x="1060" y="-111" type="qcurve" smooth="yes"/>
      <point x="1017.6000000000001" y="-171.06666666666672"/>
      <point x="895.078947368421" y="-264.86842105263156"/>
      <point x="810" y="-283" type="qcurve"/>
      <point x="762" y="-137" type="line"/>
      <point x="819" y="-119"/>
      <point x="896" y="-59"/>
      <point x="920" y="-19" type="qcurve" smooth="yes" name="inserted"/>
      <point x="943" y="20"/>
      <point x="963" y="116"/>
      <point x="963" y="170" type="qcurve" smooth="yes"/>
      <point x="962" y="243"/>
      <point x="928" y="360"/>
      <point x="897" y="400" type="qcurve" smooth="yes" name="inserted"/>
      <point x="866" y="440"/>
      <point x="779" y="483"/>
      <point x="725" y="483" type="qcurve"/>
      <point x="717" y="483" type="line"/>
      <point x="717" y="0" type="line"/>
      <point x="532" y="0" type="line"/>
      <point x="532" y="929" type="line"/>
      <point x="301" y="929" type="line"/>
      <point x="301" y="0" type="line"/>
    </contour>
  </outline>
</glyph>
<glyph name="uni04B0" format="2">
  <advance width="1229"/>
  <unicode hex="04B0"/>
  <outline>
    <contour>
      <point x="923" y="530" type="line"/>
      <point x="694" y="530" type="line"/>
      <point x="692" y="528" type="line"/>
      <point x="689" y="0" type="line"/>
      <point x="517" y="0" type="line"/>
      <point x="514" y="527" type="line"/>
      <point x="512" y="530" type="line"/>
      <point x="286" y="530" type="line"/>
      <point x="286" y="681" type="line"/>
      <point x="445" y="681" type="line"/>
      <point x="61" y="1456" type="line"/>
      <point x="272" y="1456" type="line"/>
      <point x="602" y="725" type="line"/>
      <point x="604" y="725" type="line"/>
      <point x="935" y="1456" type="line"/>
      <point x="1145" y="1456" type="line"/>
      <point x="760" y="681" type="line"/>
      <point x="923" y="681" type="line"/>
    </contour>
  </outline>
</glyph>
<glyph name="uni04B4" format="2">
  <advance width="1229"/>
  <unicode hex="04B4"/>
  <outline>
    <contour>
      <point x="326" y="1304" type="line"/>
      <point x="57" y="1304" type="line"/>
      <point x="57" y="1455" type="line"/>
      <point x="749" y="1455" type="line"/>
      <point x="749" y="1304" type="line"/>
      <point x="511" y="1304" type="line"/>
      <point x="511" y="151" type="line"/>
      <point x="876" y="151" type="line"/>
      <point x="876" y="1456" type="line"/>
      <point x="1061" y="1456" type="line"/>
      <point x="1061" y="156" type="line"/>
      <point x="1206" y="156" type="line"/>
      <point x="1188" y="-351" type="line"/>
      <point x="1023" y="-351" type="line"/>
      <point x="1023" y="0" type="line"/>
      <point x="326" y="0" type="line"/>
    </contour>
  </outline>
</glyph>
<glyph name="uni04BA" format="2">
  <advance width="1229"/>
  <unicode hex="04BA"/>
  <outline>
    <contour>
      <point x="227" y="0" type="line"/>
      <point x="227" y="1456" type="line"/>
      <point x="412" y="1456" type="line"/>
      <point x="412" y="851" type="line"/>
      <point x="477.1171878383965" y="874.6789773957805"/>
      <point x="612.6806135091842" y="903.0"/>
      <point x="710" y="903" type="qcurve" smooth="yes"/>
      <point x="807" y="903"/>
      <point x="959" y="854"/>
      <point x="1011.5" y="800.0" type="qcurve" smooth="yes" name="inserted"/>
      <point x="1064" y="746"/>
      <point x="1119" y="576"/>
      <point x="1119" y="455" type="qcurve"/>
      <point x="1118" y="0" type="line"/>
      <point x="933" y="0" type="line"/>
      <point x="933" y="455" type="line" smooth="yes"/>
      <point x="933" y="540"/>
      <point x="906" y="653"/>
      <point x="878.5" y="687.5" type="qcurve" smooth="yes" name="inserted"/>
      <point x="851" y="722"/>
      <point x="767" y="751"/>
      <point x="710" y="751" type="qcurve" smooth="yes"/>
      <point x="627" y="751"/>
      <point x="483" y="722"/>
      <point x="412" y="698" type="qcurve"/>
      <point x="412" y="0" type="line"/>
    </contour>
  </outline>
</glyph>
<glyph name="uni04C3" format="2">
  <advance width="1229"/>
  <unicode hex="04C3"/>
  <outline>
    <contour>
      <point x="713" y="821" type="line"/>
      <point x="716" y="821" type="line"/>
      <point x="822" y="806"/>
      <point x="990" y="713"/>
      <point x="1047" y="640" type="qcurve" smooth="yes" name="inserted"/>
      <point x="1104" y="567"/>
      <point x="1164" y="370"/>
      <point x="1164" y="251" type="qcurve" smooth="yes"/>
      <point x="1164" y="120"/>
      <point x="1103" y="-82"/>
      <point x="1044" y="-151" type="qcurve" smooth="yes" name="inserted"/>
      <point x="985" y="-221"/>
      <point x="810" y="-294"/>
      <point x="695" y="-294" type="qcurve"/>
      <point x="693" y="-148" type="line"/>
      <point x="744" y="-148"/>
      <point x="825" y="-124"/>
      <point x="856" y="-102" type="qcurve" smooth="yes"/>
      <point x="891" y="-76"/>
      <point x="940" y="-2"/>
      <point x="954" y="47" type="qcurve" smooth="yes"/>
      <point x="967" y="90"/>
      <point x="979" y="193"/>
      <point x="979" y="251" type="qcurve" smooth="yes"/>
      <point x="978" y="350"/>
      <point x="932" y="504"/>
      <point x="887" y="557" type="qcurve" smooth="yes" name="inserted"/>
      <point x="841" y="610"/>
      <point x="702" y="666"/>
      <point x="609" y="666" type="qcurve"/>
      <point x="385" y="666" type="line"/>
      <point x="385" y="0" type="line"/>
      <point x="200" y="0" type="line"/>
      <point x="200" y="1456" type="line"/>
      <point x="385" y="1456" type="line"/>
      <point x="385" y="828" type="line"/>
      <point x="527" y="828" type="line"/>
      <point x="938" y="1456" type="line"/>
      <point x="1153" y="1456" type="line"/>
    </contour>
  </outline>
</glyph>
<glyph name="uni04E1" format="2">
  <advance width="1229"/>
  <unicode hex="04E1"/>
  <outline>
    <contour>
      <point x="812" y="929" type="line"/>
      <point x="180" y="929" type="line"/>
      <point x="180" y="1082" type="line"/>
      <point x="1049" y="1082" type="line"/>
      <point x="1050" y="964" type="line"/>
      <point x="652" y="469" type="line"/>
      <point x="653" y="469" type="line" smooth="yes"/>
      <point x="717" y="469.0"/>
      <point x="912" y="406"/>
      <point x="979" y="341" type="qcurve" smooth="yes" name="inserted"/>
      <point x="1037" y="284"/>
      <point x="1096" y="129"/>
      <point x="1096" y="31" type="qcurve" smooth="yes"/>
      <point x="1096" y="-70"/>
      <point x="1023" y="-228"/>
      <point x="958" y="-283" type="qcurve" smooth="yes" name="inserted"/>
      <point x="892" y="-338"/>
      <point x="712" y="-395"/>
      <point x="606" y="-395" type="qcurve" smooth="yes"/>
      <point x="519" y="-395"/>
      <point x="351" y="-345"/>
      <point x="285" y="-293" type="qcurve" smooth="yes" name="inserted"/>
      <point x="219" y="-241"/>
      <point x="137" y="-81"/>
      <point x="137" y="29" type="qcurve"/>
      <point x="323" y="29" type="line"/>
      <point x="323" y="-27"/>
      <point x="364" y="-126"/>
      <point x="402" y="-163" type="qcurve" smooth="yes" name="inserted"/>
      <point x="439" y="-200"/>
      <point x="543" y="-243"/>
      <point x="606" y="-243" type="qcurve" smooth="yes"/>
      <point x="678" y="-243"/>
      <point x="791" y="-203"/>
      <point x="830" y="-167" type="qcurve" smooth="yes" name="inserted"/>
      <point x="869" y="-131"/>
      <point x="911" y="-32"/>
      <point x="911" y="27" type="qcurve" smooth="yes"/>
      <point x="911" y="99"/>
      <point x="874" y="207"/>
      <point x="838" y="243" type="qcurve" smooth="yes"/>
      <point x="797" y="285"/>
      <point x="667" y="325"/>
      <point x="581" y="325" type="qcurve" smooth="yes"/>
      <point x="440" y="325" type="line"/>
      <point x="440" y="476" type="line"/>
    </contour>
  </outline>
</glyph>
<glyph name="uni0506" format="2">
  <advance width="1229"/>
  <unicode hex="0506"/>
  <outline>
    <contour>
      <point x="272" y="633" type="line"/>
      <point x="272" y="785" type="line"/>
      <point x="435" y="785" type="line" smooth="yes"/>
      <point x="526" y="785"/>
      <point x="655" y="823"/>
      <point x="694" y="860" type="qcurve" smooth="yes"/>
      <point x="727" y="892"/>
      <point x="759" y="984"/>
      <point x="759" y="1044" type="qcurve" smooth="yes"/>
      <point x="759" y="1104"/>
      <point x="723" y="1201"/>
      <point x="686" y="1235" type="qcurve" smooth="yes" name="inserted"/>
      <point x="648" y="1268"/>
      <point x="533" y="1304"/>
      <point x="455" y="1304" type="qcurve" smooth="yes"/>
      <point x="179" y="1304" type="line"/>
      <point x="179" y="1456" type="line"/>
      <point x="455" y="1456" type="line" smooth="yes"/>
      <point x="571" y="1456"/>
      <point x="753" y="1403"/>
      <point x="816" y="1351" type="qcurve" smooth="yes" name="inserted"/>
      <point x="878" y="1299"/>
      <point x="944" y="1144"/>
      <point x="944" y="1042" type="qcurve" smooth="yes"/>
      <point x="944" y="968"/>
      <point x="895" y="848"/>
      <point x="848" y="802" type="qcurve" smooth="yes"/>
      <point x="821" y="776"/>
      <point x="753" y="732"/>
      <point x="713" y="714" type="qcurve"/>
      <point x="775" y="694"/>
      <point x="861" y="628"/>
      <point x="888" y="584" type="qcurve" smooth="yes" name="inserted"/>
      <point x="915" y="540"/>
      <point x="940" y="432"/>
      <point x="940" y="371" type="qcurve" smooth="yes"/>
      <point x="940" y="235" type="line" smooth="yes"/>
      <point x="940" y="228"/>
      <point x="940" y="215"/>
      <point x="941" y="208" type="qcurve"/>
      <point x="1106" y="208" type="line"/>
      <point x="1106" y="32" type="line"/>
      <point x="1106" y="-15"/>
      <point x="1083" y="-118"/>
      <point x="1061" y="-168" type="qcurve" smooth="yes" name="inserted"/>
      <point x="1038" y="-219"/>
      <point x="974" y="-311"/>
      <point x="932" y="-347" type="qcurve"/>
      <point x="817" y="-284" type="line"/>
      <point x="839" y="-251"/>
      <point x="873" y="-179"/>
      <point x="883" y="-143" type="qcurve" smooth="yes"/>
      <point x="894" y="-107"/>
      <point x="904" y="-35"/>
      <point x="904" y="-1" type="qcurve" smooth="yes"/>
      <point x="904" y="0" type="line"/>
      <point x="818" y="0" type="line"/>
      <point x="795" y="21"/>
      <point x="770" y="86"/>
      <point x="764" y="121" type="qcurve" smooth="yes" name="inserted"/>
      <point x="758" y="155"/>
      <point x="755" y="218"/>
      <point x="755" y="237" type="qcurve" smooth="yes"/>
      <point x="755" y="369" type="line" smooth="yes"/>
      <point x="755" y="429"/>
      <point x="717" y="527"/>
      <point x="683" y="562" type="qcurve" smooth="yes" name="inserted"/>
      <point x="648" y="596"/>
      <point x="551" y="633"/>
      <point x="491" y="633" type="qcurve" smooth="yes"/>
    </contour>
  </outline>
</glyph>
<glyph name="uni0508" format="2">
  <advance width="1229"/>
  <unicode hex="0508"/>
  <outline>
    <contour>
      <point x="611" y="1304" type="line"/>
      <point x="409" y="1304" type="line"/>
      <point x="410" y="768" type="line" smooth="yes"/>
      <point x="410" y="714"/>
      <point x="407" y="612"/>
      <point x="404" y="565" type="qcurve" smooth="yes"/>
      <point x="397" y="453"/>
      <point x="363" y="269"/>
      <point x="334" y="200" type="qcurve" smooth="yes" name="inserted"/>
      <point x="316" y="158"/>
      <point x="270" y="91"/>
      <point x="243" y="66" type="qcurve" smooth="yes"/>
      <point x="206" y="33"/>
      <point x="112" y="0"/>
      <point x="54" y="0" type="qcurve" smooth="yes"/>
      <point x="20" y="0" type="line"/>
      <point x="20" y="151" type="line"/>
      <point x="43" y="151" type="line" smooth="yes"/>
      <point x="67" y="151"/>
      <point x="108" y="168"/>
      <point x="125" y="185" type="qcurve" smooth="yes"/>
      <point x="145" y="204"/>
      <point x="175" y="265"/>
      <point x="186" y="307" type="qcurve" smooth="yes" name="inserted"/>
      <point x="201" y="361"/>
      <point x="218" y="506"/>
      <point x="222" y="597" type="qcurve" smooth="yes"/>
      <point x="223" y="636"/>
      <point x="225" y="722"/>
      <point x="225" y="768" type="qcurve" smooth="yes"/>
      <point x="226" y="1456" type="line"/>
      <point x="795" y="1456" type="line"/>
      <point x="796" y="271" type="line" smooth="yes"/>
      <point x="796" y="253"/>
      <point x="799" y="218"/>
      <point x="803" y="202" type="qcurve" smooth="yes"/>
      <point x="808" y="186"/>
      <point x="820" y="158"/>
      <point x="829" y="147" type="qcurve" smooth="yes"/>
      <point x="837" y="139"/>
      <point x="856" y="130"/>
      <point x="868" y="130" type="qcurve" smooth="yes"/>
      <point x="902" y="131"/>
      <point x="951" y="191"/>
      <point x="968" y="244" type="qcurve" smooth="yes" name="inserted"/>
      <point x="977" y="274"/>
      <point x="990" y="348"/>
      <point x="994" y="390" type="qcurve" smooth="yes"/>
      <point x="997" y="422"/>
      <point x="1001" y="492"/>
      <point x="1001" y="529" type="qcurve" smooth="yes"/>
      <point x="1002" y="629"/>
      <point x="981" y="831"/>
      <point x="961" y="931" type="qcurve"/>
      <point x="1140" y="932" type="line"/>
      <point x="1151" y="879"/>
      <point x="1170" y="772"/>
      <point x="1176" y="718" type="qcurve" smooth="yes"/>
      <point x="1182" y="672"/>
      <point x="1188" y="577"/>
      <point x="1187" y="529" type="qcurve" smooth="yes"/>
      <point x="1186" y="481"/>
      <point x="1179" y="394"/>
      <point x="1172" y="354" type="qcurve" smooth="yes"/>
      <point x="1161" y="283"/>
      <point x="1120" y="166"/>
      <point x="1092" y="121" type="qcurve" smooth="yes" name="inserted"/>
      <point x="1049" y="51"/>
      <point x="934" y="-21"/>
      <point x="868" y="-21" type="qcurve" smooth="yes"/>
      <point x="830" y="-22"/>
      <point x="765" y="-9"/>
      <point x="738" y="5" type="qcurve" smooth="yes"/>
      <point x="709" y="20"/>
      <point x="663" y="66"/>
      <point x="647" y="98" type="qcurve" smooth="yes"/>
      <point x="630" y="131"/>
      <point x="612" y="218"/>
      <point x="610" y="271" type="qcurve" smooth="yes"/>
    </contour>
  </outline>
</glyph>
<glyph name="uni050B" format="2">
  <advance width="1229"/>
  <unicode hex="050B"/>
  <outline>
    <contour>
      <point x="571" y="461" type="line"/>
      <point x="302" y="461" type="line"/>
      <point x="302" y="0" type="line"/>
      <point x="117" y="0" type="line"/>
      <point x="117" y="1082" type="line"/>
      <point x="302" y="1082" type="line"/>
      <point x="302" y="612" type="line"/>
      <point x="571" y="612" type="line"/>
      <point x="571" y="1082" type="line"/>
      <point x="756" y="1082" type="line"/>
      <point x="756" y="289" type="line" smooth="yes"/>
      <point x="756" y="263"/>
      <point x="761" y="219"/>
      <point x="767" y="201" type="qcurve" smooth="yes"/>
      <point x="772" y="185"/>
      <point x="788" y="159"/>
      <point x="799" y="149" type="qcurve" smooth="yes"/>
      <point x="808" y="140"/>
      <point x="832" y="130"/>
      <point x="846" y="130" type="qcurve" smooth="yes"/>
      <point x="875" y="131"/>
      <point x="919" y="183"/>
      <point x="933" y="230" type="qcurve" smooth="yes" name="inserted"/>
      <point x="940" y="255"/>
      <point x="951" y="314"/>
      <point x="955" y="347" type="qcurve" smooth="yes"/>
      <point x="959" y="378"/>
      <point x="963" y="447"/>
      <point x="963" y="484" type="qcurve" smooth="yes"/>
      <point x="964" y="579"/>
      <point x="942" y="771"/>
      <point x="922" y="865" type="qcurve"/>
      <point x="1100" y="865" type="line"/>
      <point x="1120" y="772"/>
      <point x="1150" y="581"/>
      <point x="1148" y="484" type="qcurve" smooth="yes"/>
      <point x="1147" y="428"/>
      <point x="1136" y="328"/>
      <point x="1127" y="284" type="qcurve" smooth="yes"/>
      <point x="1115" y="231"/>
      <point x="1081" y="143"/>
      <point x="1059" y="108" type="qcurve" smooth="yes" name="inserted"/>
      <point x="1018" y="44"/>
      <point x="909" y="-21"/>
      <point x="846" y="-21" type="qcurve" smooth="yes"/>
      <point x="810" y="-22"/>
      <point x="748" y="-11"/>
      <point x="721" y="0" type="qcurve" smooth="yes"/>
      <point x="679" y="17"/>
      <point x="618" y="82"/>
      <point x="600" y="130" type="qcurve" smooth="yes"/>
      <point x="587" y="162"/>
      <point x="573" y="242"/>
      <point x="571" y="289" type="qcurve" smooth="yes"/>
    </contour>
  </outline>
</glyph>
<glyph name="uni050C" format="2">
  <advance width="1229"/>
  <unicode hex="050C"/>
  <outline>
    <contour>
      <point x="660" y="-21" type="qcurve" smooth="yes"/>
      <point x="582" y="-21"/>
      <point x="444" y="22"/>
      <point x="387" y="62" type="qcurve" smooth="yes"/>
      <point x="328" y="101"/>
      <point x="234" y="218"/>
      <point x="203" y="289" type="qcurve" smooth="yes"/>
      <point x="174" y="356"/>
      <point x="142" y="512"/>
      <point x="142" y="597" type="qcurve" smooth="yes"/>
      <point x="142" y="859" type="line" smooth="yes"/>
      <point x="142" y="939"/>
      <point x="170" y="1086"/>
      <point x="196" y="1150" type="qcurve" smooth="yes"/>
      <point x="231" y="1233"/>
      <point x="342" y="1370"/>
      <point x="417" y="1413" type="qcurve" smooth="yes"/>
      <point x="469" y="1444"/>
      <point x="592" y="1477"/>
      <point x="660" y="1477" type="qcurve" smooth="yes"/>
      <point x="772" y="1477"/>
      <point x="946" y="1433"/>
      <point x="1013" y="1389" type="qcurve"/>
      <point x="954" y="1257" type="line"/>
      <point x="889" y="1290"/>
      <point x="746" y="1325"/>
      <point x="660" y="1325" type="qcurve" smooth="yes"/>
      <point x="611" y="1325"/>
      <point x="527" y="1296"/>
      <point x="492" y="1270" type="qcurve" smooth="yes"/>
      <point x="448" y="1238"/>
      <point x="381" y="1138"/>
      <point x="361" y="1078" type="qcurve" smooth="yes"/>
      <point x="344" y="1029"/>
      <point x="327" y="919"/>
      <point x="327" y="861" type="qcurve" smooth="yes"/>
      <point x="327" y="597" type="line" smooth="yes"/>
      <point x="327" y="502"/>
      <point x="372" y="332"/>
      <point x="415" y="268" type="qcurve" smooth="yes" name="inserted"/>
      <point x="457" y="204"/>
      <point x="581" y="130"/>
      <point x="660" y="130" type="qcurve" smooth="yes"/>
      <point x="732" y="131"/>
      <point x="843" y="174"/>
      <point x="880" y="214" type="qcurve" smooth="yes"/>
      <point x="916" y="252"/>
      <point x="954" y="359"/>
      <point x="955" y="425" type="qcurve" smooth="yes"/>
      <point x="957" y="515"/>
      <point x="928" y="696"/>
      <point x="905" y="786" type="qcurve"/>
      <point x="1084" y="786" type="line"/>
      <point x="1104.1741717196262" y="697.2336444336456"/>
      <point x="1141.9828809927305" y="514.2296446728877"/>
      <point x="1140" y="425" type="qcurve" smooth="yes"/>
      <point x="1138" y="313"/>
      <point x="1060" y="145"/>
      <point x="995" y="90" type="qcurve" smooth="yes" name="inserted"/>
      <point x="929" y="34"/>
      <point x="756" y="-21"/>
    </contour>
  </outline>
</glyph>
<glyph name="uni050D" format="2">
  <advance width="1229"/>
  <unicode hex="050D"/>
  <outline>
    <contour>
      <point x="692" y="130" type="qcurve" smooth="yes"/>
      <point x="754" y="131"/>
      <point x="842" y="157"/>
      <point x="869" y="183" type="qcurve" smooth="yes"/>
      <point x="894" y="207"/>
      <point x="918" y="275"/>
      <point x="919" y="319" type="qcurve" smooth="yes"/>
      <point x="919" y="372"/>
      <point x="913" y="483"/>
      <point x="899" y="537" type="qcurve"/>
      <point x="1077" y="537" type="line"/>
      <point x="1088" y="483"/>
      <point x="1104" y="373"/>
      <point x="1104" y="319" type="qcurve"/>
      <point x="1102" y="232"/>
      <point x="1038" y="104"/>
      <point x="983" y="62" type="qcurve" smooth="yes" name="inserted"/>
      <point x="928" y="20"/>
      <point x="779" y="-21"/>
      <point x="692" y="-21" type="qcurve" smooth="yes"/>
      <point x="564" y="-21"/>
      <point x="366" y="68"/>
      <point x="299" y="142" type="qcurve" smooth="yes" name="inserted"/>
      <point x="231" y="216"/>
      <point x="160" y="412"/>
      <point x="160" y="520" type="qcurve" smooth="yes"/>
      <point x="160" y="562" type="line" smooth="yes"/>
      <point x="160" y="670"/>
      <point x="228" y="865"/>
      <point x="293" y="939" type="qcurve" smooth="yes" name="inserted"/>
      <point x="358" y="1013"/>
      <point x="548" y="1102"/>
      <point x="671" y="1102" type="qcurve" smooth="yes"/>
      <point x="721" y="1102"/>
      <point x="810" y="1094"/>
      <point x="848" y="1087" type="qcurve" smooth="yes"/>
      <point x="890" y="1079"/>
      <point x="962" y="1053"/>
      <point x="990" y="1036" type="qcurve"/>
      <point x="946" y="892" type="line"/>
      <point x="892" y="920"/>
      <point x="752" y="950"/>
      <point x="671" y="950" type="qcurve" smooth="yes"/>
      <point x="585" y="950"/>
      <point x="463" y="881"/>
      <point x="423" y="826" type="qcurve" smooth="yes" name="inserted"/>
      <point x="383" y="770"/>
      <point x="346" y="632"/>
      <point x="346" y="562" type="qcurve" smooth="yes"/>
      <point x="346" y="520" type="line" smooth="yes"/>
      <point x="346" y="449"/>
      <point x="386" y="310"/>
      <point x="428" y="255" type="qcurve" smooth="yes" name="inserted"/>
      <point x="470" y="199"/>
      <point x="601" y="130"/>
    </contour>
  </outline>
</glyph>
<glyph name="perthousand" format="2">
  <advance width="1229"/>
  <unicode hex="2030"/>
  <outline>
    <contour>
      <point x="342" y="303" type="line" smooth="yes"/>
      <point x="342" y="359"/>
      <point x="373" y="460"/>
      <point x="404" y="499" type="qcurve" smooth="yes" name="inserted"/>
      <point x="435" y="537"/>
      <point x="526" y="583"/>
      <point x="586" y="583" type="qcurve" smooth="yes"/>
      <point x="619" y="583"/>
      <point x="676" y="569"/>
      <point x="700" y="556" type="qcurve" smooth="yes"/>
      <point x="718" y="546"/>
      <point x="750" y="521"/>
      <point x="763" y="506" type="qcurve"/>
      <point x="775" y="520"/>
      <point x="803" y="543"/>
      <point x="819" y="553" type="qcurve" smooth="yes"/>
      <point x="844" y="567"/>
      <point x="904" y="583"/>
      <point x="939" y="583" type="qcurve" smooth="yes"/>
      <point x="1000" y="583"/>
      <point x="1091" y="537"/>
      <point x="1122" y="499" type="qcurve" smooth="yes" name="inserted"/>
      <point x="1153" y="460"/>
      <point x="1184" y="359"/>
      <point x="1184" y="303" type="qcurve" smooth="yes"/>
      <point x="1184" y="259" type="line" smooth="yes"/>
      <point x="1184" y="203"/>
      <point x="1153" y="101"/>
      <point x="1123" y="63" type="qcurve" smooth="yes" name="inserted"/>
      <point x="1092" y="24"/>
      <point x="1001" y="-21"/>
      <point x="941" y="-21" type="qcurve" smooth="yes"/>
      <point x="902" y="-21"/>
      <point x="836" y="-2"/>
      <point x="809" y="15" type="qcurve" smooth="yes"/>
      <point x="796" y="23"/>
      <point x="773" y="44"/>
      <point x="763" y="55" type="qcurve"/>
      <point x="752" y="42"/>
      <point x="726" y="20"/>
      <point x="711" y="11" type="qcurve" smooth="yes"/>
      <point x="686" y="-4"/>
      <point x="624" y="-21"/>
      <point x="588" y="-21" type="qcurve" smooth="yes"/>
      <point x="527" y="-21"/>
      <point x="435" y="24"/>
      <point x="404" y="63" type="qcurve" smooth="yes" name="inserted"/>
      <point x="373" y="101"/>
      <point x="342" y="203"/>
      <point x="342" y="259" type="qcurve" smooth="yes"/>
    </contour>
    <contour>
      <point x="54" y="1196" type="line" smooth="yes"/>
      <point x="54" y="1252"/>
      <point x="85" y="1354"/>
      <point x="116.0" y="1392.5" type="qcurve" smooth="yes" name="inserted"/>
      <point x="147" y="1431"/>
      <point x="238" y="1477"/>
      <point x="298" y="1477" type="qcurve" smooth="yes"/>
      <point x="359" y="1477"/>
      <point x="450" y="1431"/>
      <point x="481.0" y="1392.5" type="qcurve" smooth="yes" name="inserted"/>
      <point x="512" y="1354"/>
      <point x="543" y="1252"/>
      <point x="543" y="1196" type="qcurve" smooth="yes"/>
      <point x="543" y="1152" type="line" smooth="yes"/>
      <point x="543" y="1096"/>
      <point x="511" y="995"/>
      <point x="480.5" y="957.0" type="qcurve" smooth="yes" name="inserted"/>
      <point x="450" y="919"/>
      <point x="360" y="873"/>
      <point x="300" y="873" type="qcurve" smooth="yes"/>
      <point x="240" y="873"/>
      <point x="148" y="919"/>
      <point x="117.0" y="957.0" type="qcurve" smooth="yes" name="inserted"/>
      <point x="86" y="995"/>
      <point x="54" y="1096"/>
      <point x="54" y="1152" type="qcurve" smooth="yes"/>
    </contour>
    <contour>
      <point x="481" y="259" type="line" smooth="yes"/>
      <point x="481" y="229"/>
      <point x="492" y="171"/>
      <point x="505" y="149" type="qcurve" smooth="yes" name="inserted"/>
      <point x="517" y="126"/>
      <point x="558" y="99"/>
      <point x="588" y="99" type="qcurve" smooth="yes"/>
      <point x="617" y="99"/>
      <point x="657" y="126"/>
      <point x="669.0" y="149" type="qcurve" smooth="yes" name="inserted"/>
      <point x="681" y="171"/>
      <point x="692" y="229"/>
      <point x="692" y="259" type="qcurve" smooth="yes"/>
      <point x="692" y="303" type="line" smooth="yes"/>
      <point x="692" y="333"/>
      <point x="681" y="390"/>
      <point x="669" y="413" type="qcurve" smooth="yes" name="inserted"/>
      <point x="656" y="435"/>
      <point x="616" y="463"/>
      <point x="586" y="463" type="qcurve" smooth="yes"/>
      <point x="557" y="463"/>
      <point x="517" y="435"/>
      <point x="505" y="413" type="qcurve" smooth="yes" name="inserted"/>
      <point x="492" y="390"/>
      <point x="481" y="333"/>
      <point x="481" y="303" type="qcurve" smooth="yes"/>
    </contour>
    <contour>
      <point x="193" y="1152" type="line" smooth="yes"/>
      <point x="193" y="1122"/>
      <point x="204" y="1065"/>
      <point x="217.0" y="1043" type="qcurve" smooth="yes" name="inserted"/>
      <point x="230" y="1020"/>
      <point x="270" y="993"/>
      <point x="300" y="993" type="qcurve" smooth="yes"/>
      <point x="328" y="993"/>
      <point x="368" y="1020"/>
      <point x="381" y="1043" type="qcurve" smooth="yes" name="inserted"/>
      <point x="393" y="1065"/>
      <point x="404" y="1122"/>
      <point x="404" y="1152" type="qcurve" smooth="yes"/>
      <point x="404" y="1196" type="line" smooth="yes"/>
      <point x="404" y="1226"/>
      <point x="393" y="1283"/>
      <point x="381" y="1306" type="qcurve" smooth="yes" name="inserted"/>
      <point x="368" y="1328"/>
      <point x="328" y="1356"/>
      <point x="298" y="1356" type="qcurve" smooth="yes"/>
      <point x="269" y="1356"/>
      <point x="229" y="1328"/>
      <point x="217" y="1306" type="qcurve" smooth="yes" name="inserted"/>
      <point x="204" y="1283"/>
      <point x="193" y="1226"/>
      <point x="193" y="1196" type="qcurve" smooth="yes"/>
    </contour>
    <contour>
      <point x="833" y="259" type="line" smooth="yes"/>
      <point x="833.0" y="229.0"/>
      <point x="844" y="171"/>
      <point x="857.0" y="149" type="qcurve" smooth="yes" name="inserted"/>
      <point x="870" y="126"/>
      <point x="911" y="99"/>
      <point x="941" y="99" type="qcurve" smooth="yes"/>
      <point x="970" y="99"/>
      <point x="1010" y="126"/>
      <point x="1022.0" y="149" type="qcurve" smooth="yes" name="inserted"/>
      <point x="1034" y="171"/>
      <point x="1045" y="229"/>
      <point x="1045" y="259" type="qcurve" smooth="yes"/>
      <point x="1045" y="303" type="line" smooth="yes"/>
      <point x="1045" y="333"/>
      <point x="1034" y="390"/>
      <point x="1022" y="413" type="qcurve" smooth="yes" name="inserted"/>
      <point x="1009" y="435"/>
      <point x="968" y="463"/>
      <point x="939" y="463" type="qcurve" smooth="yes"/>
      <point x="909" y="463"/>
      <point x="869" y="435"/>
      <point x="857" y="413" type="qcurve" smooth="yes" name="inserted"/>
      <point x="844" y="390"/>
      <point x="833" y="333"/>
      <point x="833" y="303" type="qcurve" smooth="yes"/>
    </contour>
    <contour>
      <point x="175" y="447" type="line"/>
      <point x="107" y="531" type="line"/>
      <point x="891" y="1172" type="line"/>
      <point x="959" y="1088" type="line"/>
    </contour>
  </outline>
</glyph>
<glyph name="nsuperior" format="2">
  <advance width="1229"/>
  <unicode hex="207F"/>
  <outline>
    <contour>
      <point x="460" y="1451" type="line"/>
      <point x="489" y="1328" type="line"/>
      <point x="504" y="1355"/>
      <point x="542" y="1401"/>
      <point x="565" y="1418" type="qcurve" smooth="yes"/>
      <point x="595" y="1440"/>
      <point x="668" y="1465"/>
      <point x="710" y="1466" type="qcurve" smooth="yes"/>
      <point x="770" y="1466"/>
      <point x="865" y="1430"/>
      <point x="899" y="1393" type="qcurve" smooth="yes" name="inserted"/>
      <point x="933" y="1355"/>
      <point x="969" y="1239"/>
      <point x="969" y="1159" type="qcurve" smooth="yes"/>
      <point x="969" y="651" type="line"/>
      <point x="799" y="651" type="line"/>
      <point x="799" y="1127" type="line" smooth="yes"/>
      <point x="799" y="1181"/>
      <point x="778" y="1257"/>
      <point x="759" y="1280" type="qcurve" smooth="yes"/>
      <point x="740" y="1302"/>
      <point x="688" y="1322"/>
      <point x="655" y="1322" type="qcurve" smooth="yes"/>
      <point x="624" y="1322"/>
      <point x="573" y="1304"/>
      <point x="553" y="1288" type="qcurve" smooth="yes"/>
      <point x="536" y="1274"/>
      <point x="510" y="1236"/>
      <point x="501" y="1213" type="qcurve"/>
      <point x="501" y="651" type="line"/>
      <point x="331" y="651" type="line"/>
      <point x="331" y="1451" type="line"/>
    </contour>
  </outline>
</glyph>
<glyph name="lira" format="2">
  <advance width="1229"/>
  <unicode hex="20A4"/>
  <outline>
    <contour>
      <point x="802" y="471" type="line"/>
      <point x="461" y="471" type="line"/>
      <point x="464" y="400" type="line" smooth="yes"/>
      <point x="464" y="363"/>
      <point x="456" y="288"/>
      <point x="447" y="254" type="qcurve" smooth="yes"/>
      <point x="440" y="225"/>
      <point x="418" y="173"/>
      <point x="404" y="151" type="qcurve"/>
      <point x="1142" y="151" type="line"/>
      <point x="1141" y="0" type="line"/>
      <point x="111" y="0" type="line"/>
      <point x="111" y="151" type="line"/>
      <point x="186" y="151" type="line"/>
      <point x="213" y="158"/>
      <point x="249" y="214"/>
      <point x="260" y="251" type="qcurve" smooth="yes" name="inserted"/>
      <point x="271" y="287"/>
      <point x="280" y="368"/>
      <point x="280" y="400" type="qcurve" smooth="yes"/>
      <point x="277" y="471" type="line"/>
      <point x="105" y="471" type="line"/>
      <point x="105" y="593" type="line"/>
      <point x="273" y="593" type="line"/>
      <point x="268" y="731" type="line"/>
      <point x="105" y="731" type="line"/>
      <point x="105" y="854" type="line"/>
      <point x="264" y="854" type="line"/>
      <point x="258" y="1039" type="line" smooth="yes"/>
      <point x="258" y="1141"/>
      <point x="324" y="1303"/>
      <point x="384" y="1360" type="qcurve" smooth="yes" name="inserted"/>
      <point x="443" y="1416"/>
      <point x="606" y="1476"/>
      <point x="702" y="1476" type="qcurve" smooth="yes"/>
      <point x="798" y="1476"/>
      <point x="950" y="1420"/>
      <point x="1003" y="1369" type="qcurve" smooth="yes" name="inserted"/>
      <point x="1055" y="1318"/>
      <point x="1111" y="1176"/>
      <point x="1111" y="1089" type="qcurve"/>
      <point x="926" y="1089" type="line"/>
      <point x="926" y="1152"/>
      <point x="886" y="1241"/>
      <point x="853" y="1270" type="qcurve" smooth="yes" name="inserted"/>
      <point x="819" y="1298"/>
      <point x="732" y="1325"/>
      <point x="684" y="1325" type="qcurve" smooth="yes"/>
      <point x="633" y="1325"/>
      <point x="544" y="1286"/>
      <point x="512" y="1250" type="qcurve" smooth="yes" name="inserted"/>
      <point x="480" y="1213"/>
      <point x="443" y="1106"/>
      <point x="443" y="1039" type="qcurve" smooth="yes"/>
      <point x="449" y="854" type="line"/>
      <point x="802" y="854" type="line"/>
      <point x="802" y="731" type="line"/>
      <point x="453" y="731" type="line"/>
      <point x="457" y="593" type="line"/>
      <point x="802" y="593" type="line"/>
    </contour>
  </outline>
</glyph>
<glyph name="Euro" format="2">
  <advance width="1229"/>
  <unicode hex="20AC"/>
  <outline>
    <contour>
      <point x="878" y="543" type="line"/>
      <point x="492" y="543" type="line"/>
      <point x="492" y="538" type="line" smooth="yes"/>
      <point x="492" y="445"/>
      <point x="547" y="283"/>
      <point x="590" y="234" type="qcurve" smooth="yes" name="inserted"/>
      <point x="635" y="182"/>
      <point x="763" y="130"/>
      <point x="842" y="130" type="qcurve" smooth="yes"/>
      <point x="901" y="130"/>
      <point x="1011" y="147"/>
      <point x="1063" y="164" type="qcurve"/>
      <point x="1081" y="10" type="line"/>
      <point x="1025" y="-5"/>
      <point x="905" y="-21"/>
      <point x="842" y="-21" type="qcurve" smooth="yes"/>
      <point x="725" y="-21"/>
      <point x="530" y="51"/>
      <point x="460" y="122" type="qcurve" smooth="yes" name="inserted"/>
      <point x="392" y="190"/>
      <point x="306" y="410"/>
      <point x="306" y="538" type="qcurve" smooth="yes"/>
      <point x="306" y="543" type="line"/>
      <point x="127" y="543" type="line"/>
      <point x="127" y="665" type="line"/>
      <point x="306" y="665" type="line"/>
      <point x="306" y="803" type="line"/>
      <point x="127" y="803" type="line"/>
      <point x="127" y="926" type="line"/>
      <point x="306" y="926" type="line"/>
      <point x="306" y="928" type="line" smooth="yes"/>
      <point x="306" y="1047"/>
      <point x="393" y="1269"/>
      <point x="462" y="1337" type="qcurve" smooth="yes" name="inserted"/>
      <point x="532" y="1406"/>
      <point x="724" y="1476"/>
      <point x="840" y="1476" type="qcurve" smooth="yes"/>
      <point x="903" y="1476"/>
      <point x="1020" y="1459"/>
      <point x="1081" y="1445" type="qcurve"/>
      <point x="1063" y="1290" type="line"/>
      <point x="1011" y="1306"/>
      <point x="900" y="1325"/>
      <point x="840" y="1325" type="qcurve" smooth="yes"/>
      <point x="762" y="1325"/>
      <point x="636" y="1275"/>
      <point x="591" y="1226" type="qcurve" smooth="yes" name="inserted"/>
      <point x="546" y="1177"/>
      <point x="492" y="1013"/>
      <point x="492" y="927" type="qcurve"/>
      <point x="492" y="926" type="line"/>
      <point x="878" y="926" type="line"/>
      <point x="878" y="803" type="line"/>
      <point x="492" y="803" type="line"/>
      <point x="492" y="665" type="line"/>
      <point x="878" y="665" type="line"/>
    </contour>
  </outline>
</glyph>
<glyph name="uni2105" format="2">
  <advance width="1229"/>
  <unicode hex="2105"/>
  <outline>
    <contour>
      <point x="588" y="1054" type="line"/>
      <point x="588" y="1002"/>
      <point x="553" y="909"/>
      <point x="520.0" y="874.5" type="qcurve" smooth="yes" name="inserted"/>
      <point x="487" y="840"/>
      <point x="392" y="800"/>
      <point x="333" y="800" type="qcurve" smooth="yes"/>
      <point x="272" y="800"/>
      <point x="175" y="848"/>
      <point x="141.5" y="889.0" type="qcurve" smooth="yes" name="inserted"/>
      <point x="108" y="930"/>
      <point x="73" y="1039"/>
      <point x="73" y="1099" type="qcurve" smooth="yes"/>
      <point x="73" y="1176" type="line" smooth="yes"/>
      <point x="73" y="1237"/>
      <point x="108" y="1346"/>
      <point x="141.0" y="1387.5" type="qcurve" smooth="yes" name="inserted"/>
      <point x="174" y="1429"/>
      <point x="270" y="1477"/>
      <point x="331" y="1477" type="qcurve" smooth="yes"/>
      <point x="391" y="1477"/>
      <point x="486" y="1436"/>
      <point x="519.0" y="1401.0" type="qcurve" smooth="yes" name="inserted"/>
      <point x="552" y="1366"/>
      <point x="588" y="1273"/>
      <point x="588" y="1220" type="qcurve"/>
      <point x="450" y="1220" type="line"/>
      <point x="450" y="1247"/>
      <point x="435" y="1297"/>
      <point x="420.0" y="1316.0" type="qcurve" smooth="yes" name="inserted"/>
      <point x="405" y="1335"/>
      <point x="361" y="1357"/>
      <point x="331" y="1357" type="qcurve" smooth="yes"/>
      <point x="301" y="1357"/>
      <point x="256" y="1326"/>
      <point x="241.5" y="1301.0" type="qcurve" smooth="yes" name="inserted"/>
      <point x="227" y="1276"/>
      <point x="212" y="1210"/>
      <point x="212" y="1176" type="qcurve" smooth="yes"/>
      <point x="212" y="1099" type="line" smooth="yes"/>
      <point x="212" y="1065"/>
      <point x="227" y="1001"/>
      <point x="242.0" y="976.0" type="qcurve" smooth="yes" name="inserted"/>
      <point x="257" y="951"/>
      <point x="302" y="920"/>
      <point x="333" y="920" type="qcurve" smooth="yes"/>
      <point x="363" y="920"/>
      <point x="406" y="944"/>
      <point x="420.5" y="963.0" type="qcurve" smooth="yes" name="inserted"/>
      <point x="435" y="982"/>
      <point x="450" y="1030"/>
      <point x="450" y="1054" type="qcurve"/>
    </contour>
    <contour>
      <point x="654" y="357" type="line" smooth="yes"/>
      <point x="654" y="418"/>
      <point x="689" y="527"/>
      <point x="722.5" y="568.0" type="qcurve" smooth="yes" name="inserted"/>
      <point x="756" y="609"/>
      <point x="852" y="657"/>
      <point x="913" y="657" type="qcurve" smooth="yes"/>
      <point x="974" y="657"/>
      <point x="1070" y="609"/>
      <point x="1103.5" y="568.0" type="qcurve" smooth="yes" name="inserted"/>
      <point x="1137" y="527"/>
      <point x="1172" y="418"/>
      <point x="1172" y="357" type="qcurve" smooth="yes"/>
      <point x="1172" y="279" type="line" smooth="yes"/>
      <point x="1172" y="218"/>
      <point x="1137" y="109"/>
      <point x="1104.0" y="68.0" type="qcurve" smooth="yes" name="inserted"/>
      <point x="1071" y="27"/>
      <point x="975" y="-21"/>
      <point x="914" y="-21" type="qcurve" smooth="yes"/>
      <point x="853" y="-21"/>
      <point x="756" y="27"/>
      <point x="722.5" y="68.0" type="qcurve" smooth="yes" name="inserted"/>
      <point x="689" y="109"/>
      <point x="654" y="218"/>
      <point x="654" y="279" type="qcurve" smooth="yes"/>
    </contour>
    <contour>
      <point x="793" y="279" type="line" smooth="yes"/>
      <point x="793" y="244"/>
      <point x="807" y="180"/>
      <point x="822.0" y="154.5" type="qcurve" smooth="yes" name="inserted"/>
      <point x="837" y="129"/>
      <point x="883" y="99"/>
      <point x="914" y="99" type="qcurve" smooth="yes"/>
      <point x="944" y="99"/>
      <point x="989" y="129"/>
      <point x="1004.0" y="154.5" type="qcurve" smooth="yes" name="inserted"/>
      <point x="1019" y="180"/>
      <point x="1033" y="244"/>
      <point x="1033" y="279" type="qcurve" smooth="yes"/>
      <point x="1033" y="357" type="line" smooth="yes"/>
      <point x="1033" y="391"/>
      <point x="1019" y="456"/>
      <point x="1004.0" y="481.5" type="qcurve" smooth="yes" name="inserted"/>
      <point x="989" y="507"/>
      <point x="944" y="537"/>
      <point x="913" y="537" type="qcurve" smooth="yes"/>
      <point x="882" y="537"/>
      <point x="837" y="507"/>
      <point x="822.0" y="481.5" type="qcurve" smooth="yes" name="inserted"/>
      <point x="807" y="456"/>
      <point x="793" y="391"/>
      <point x="793" y="357" type="qcurve" smooth="yes"/>
    </contour>
    <contour>
      <point x="437" y="213" type="line"/>
      <point x="324" y="279" type="line"/>
      <point x="837" y="1233" type="line"/>
      <point x="951" y="1167" type="line"/>
    </contour>
  </outline>
</glyph>
<glyph name="infinity" format="2">
  <advance width="1229"/>
  <unicode hex="221E"/>
  <outline>
    <contour>
      <point x="1178" y="586" type="line" smooth="yes"/>
      <point x="1178" y="550"/>
      <point x="1169" y="480"/>
      <point x="1160" y="448" type="qcurve" smooth="yes"/>
      <point x="1145" y="396"/>
      <point x="1094" y="308"/>
      <point x="1053" y="277" type="qcurve" smooth="yes"/>
      <point x="1018" y="251"/>
      <point x="942" y="224"/>
      <point x="894" y="224" type="qcurve" smooth="yes"/>
      <point x="842" y="224"/>
      <point x="756" y="268"/>
      <point x="722" y="303" type="qcurve" smooth="yes" name="inserted"/>
      <point x="687" y="338"/>
      <point x="634" y="424"/>
      <point x="615" y="466" type="qcurve"/>
      <point x="596" y="424"/>
      <point x="544" y="338"/>
      <point x="510" y="303" type="qcurve" smooth="yes" name="inserted"/>
      <point x="475" y="268"/>
      <point x="389" y="224"/>
      <point x="337" y="224" type="qcurve" smooth="yes"/>
      <point x="290" y="224"/>
      <point x="211" y="251"/>
      <point x="180" y="275" type="qcurve" smooth="yes"/>
      <point x="146.39693834331808" y="301.8824493253455"/>
      <point x="93.25686999760656" y="382.0357088958032"/>
      <point x="77" y="429" type="qcurve" smooth="yes"/>
      <point x="65" y="465"/>
      <point x="53" y="545"/>
      <point x="53" y="586" type="qcurve" smooth="yes"/>
      <point x="53" y="628" type="line" smooth="yes"/>
      <point x="53" y="661"/>
      <point x="61" y="727"/>
      <point x="69" y="757" type="qcurve" smooth="yes"/>
      <point x="83" y="811"/>
      <point x="136" y="902"/>
      <point x="174" y="934" type="qcurve" smooth="yes"/>
      <point x="206" y="960"/>
      <point x="287" y="989"/>
      <point x="336" y="989" type="qcurve" smooth="yes"/>
      <point x="388" y="989"/>
      <point x="475" y="945"/>
      <point x="510" y="910" type="qcurve" smooth="yes" name="inserted"/>
      <point x="544" y="875"/>
      <point x="596" y="789"/>
      <point x="615" y="747" type="qcurve"/>
      <point x="625" y="770"/>
      <point x="650" y="816"/>
      <point x="665" y="838" type="qcurve" smooth="yes"/>
      <point x="686" y="872"/>
      <point x="742" y="933"/>
      <point x="776" y="954" type="qcurve" smooth="yes"/>
      <point x="802" y="970"/>
      <point x="861" y="989"/>
      <point x="895" y="989" type="qcurve" smooth="yes"/>
      <point x="951" y="989"/>
      <point x="1042" y="950"/>
      <point x="1076" y="916" type="qcurve" smooth="yes"/>
      <point x="1096" y="896"/>
      <point x="1131" y="841"/>
      <point x="1144" y="811" type="qcurve" smooth="yes"/>
      <point x="1161" y="770"/>
      <point x="1178" y="676"/>
      <point x="1178" y="628" type="qcurve" smooth="yes"/>
    </contour>
    <contour>
      <point x="1054" y="628" type="line" smooth="yes"/>
      <point x="1054" y="661"/>
      <point x="1047" y="724"/>
      <point x="1038" y="751" type="qcurve" smooth="yes"/>
      <point x="1032" y="774"/>
      <point x="1010" y="817"/>
      <point x="993" y="832" type="qcurve" smooth="yes"/>
      <point x="975" y="850"/>
      <point x="926" y="870"/>
      <point x="895" y="870" type="qcurve" smooth="yes"/>
      <point x="865" y="870"/>
      <point x="811" y="842"/>
      <point x="789" y="819" type="qcurve" smooth="yes" name="inserted"/>
      <point x="766" y="796"/>
      <point x="729" y="740"/>
      <point x="715" y="713" type="qcurve" smooth="yes" name="inserted"/>
      <point x="701" y="685"/>
      <point x="684" y="636"/>
      <point x="681" y="621" type="qcurve"/>
      <point x="681" y="592" type="line"/>
      <point x="684" y="577"/>
      <point x="701" y="528"/>
      <point x="715" y="501" type="qcurve" smooth="yes" name="inserted"/>
      <point x="729" y="473"/>
      <point x="765" y="417"/>
      <point x="788" y="395" type="qcurve" smooth="yes" name="inserted"/>
      <point x="811" y="372"/>
      <point x="864" y="343"/>
      <point x="894" y="343" type="qcurve" smooth="yes"/>
      <point x="924" y="343"/>
      <point x="970" y="360"/>
      <point x="987" y="375" type="qcurve" smooth="yes"/>
      <point x="1009.2368677627278" y="392.78949421018234"/>
      <point x="1036.7311896495414" y="450.29035342293554"/>
      <point x="1044" y="483" type="qcurve" smooth="yes"/>
      <point x="1049" y="507"/>
      <point x="1054" y="559"/>
      <point x="1054" y="586" type="qcurve" smooth="yes"/>
    </contour>
    <contour>
      <point x="177" y="586" type="line" smooth="yes"/>
      <point x="177" y="557"/>
      <point x="183" y="501"/>
      <point x="189" y="476" type="qcurve" smooth="yes"/>
      <point x="196.5157524118543" y="444.0580522496193"/>
      <point x="223.76037110047437" y="392.10189235513394"/>
      <point x="243" y="375" type="qcurve" smooth="yes"/>
      <point x="261" y="360"/>
      <point x="307" y="343"/>
      <point x="337" y="343" type="qcurve" smooth="yes"/>
      <point x="367" y="343"/>
      <point x="420" y="372"/>
      <point x="443" y="395" type="qcurve" smooth="yes" name="inserted"/>
      <point x="465" y="417"/>
      <point x="502" y="473"/>
      <point x="516" y="501" type="qcurve" smooth="yes" name="inserted"/>
      <point x="529" y="528"/>
      <point x="546" y="576"/>
      <point x="549" y="592" type="qcurve"/>
      <point x="549" y="621" type="line"/>
      <point x="546" y="636"/>
      <point x="529" y="685"/>
      <point x="516" y="713" type="qcurve" smooth="yes" name="inserted"/>
      <point x="502" y="740"/>
      <point x="465" y="796"/>
      <point x="443" y="819" type="qcurve" smooth="yes" name="inserted"/>
      <point x="420" y="842"/>
      <point x="366" y="870"/>
      <point x="336" y="870" type="qcurve" smooth="yes"/>
      <point x="305" y="870"/>
      <point x="258" y="851"/>
      <point x="240" y="834" type="qcurve" smooth="yes"/>
      <point x="221" y="815"/>
      <point x="195" y="763"/>
      <point x="188" y="733" type="qcurve" smooth="yes"/>
      <point x="182" y="709"/>
      <point x="177" y="656"/>
      <point x="177" y="628" type="qcurve" smooth="yes"/>
    </contour>
  </outline>
</glyph>
<glyph name="commaaccent" format="2">
  <advance width="1229"/>
  <unicode hex="F6C3"/>
  <outline>
    <contour>
      <point x="552" y="169" type="line" smooth="yes"/>
      <point x="552.0" y="75.0"/>
      <point x="478.0" y="-108"/>
      <point x="407" y="-170" type="qcurve"/>
      <point x="302" y="-98" type="line"/>
      <point x="339" y="-36"/>
      <point x="376" y="91"/>
      <point x="376" y="166" type="qcurve" smooth="yes"/>
      <point x="376" y="239" type="line"/>
      <point x="552" y="239" type="line"/>
    </contour>
  </outline>
</glyph>
<glyph name="Aogonek.smcp" format="2">
  <advance width="1229"/>
  <outline>
    <contour>
      <point x="696" y="1165" type="line"/>
      <point x="1166" y="0" type="line"/>
      <point x="1131" y="0" type="line"/>
      <point x="1095" y="-19"/>
      <point x="1035" y="-64"/>
      <point x="1013" y="-89" type="qcurve" smooth="yes"/>
      <point x="987" y="-118"/>
      <point x="959" y="-183"/>
      <point x="959" y="-219" type="qcurve" smooth="yes"/>
      <point x="959" y="-253"/>
      <point x="995" y="-294"/>
      <point x="1037" y="-294" type="qcurve" smooth="yes"/>
      <point x="1069" y="-295"/>
      <point x="1122" y="-276"/>
      <point x="1138" y="-268" type="qcurve"/>
      <point x="1169" y="-389" type="line"/>
      <point x="1141" y="-405"/>
      <point x="1056" y="-433"/>
      <point x="991" y="-433" type="qcurve" smooth="yes"/>
      <point x="950" y="-433"/>
      <point x="880" y="-409"/>
      <point x="854" y="-385" type="qcurve" smooth="yes" name="inserted"/>
      <point x="828" y="-361"/>
      <point x="798" y="-290"/>
      <point x="798" y="-243" type="qcurve" smooth="yes"/>
      <point x="798" y="-199"/>
      <point x="836" y="-112"/>
      <point x="871" y="-72" type="qcurve" smooth="yes"/>
      <point x="892" y="-49"/>
      <point x="943" y="-5"/>
      <point x="973" y="15" type="qcurve"/>
      <point x="870" y="279" type="line"/>
      <point x="352" y="279" type="line"/>
      <point x="242" y="0" type="line"/>
      <point x="54" y="0" type="line"/>
      <point x="531" y="1165" type="line"/>
    </contour>
    <contour>
      <point x="412" y="430" type="line"/>
      <point x="811" y="430" type="line"/>
      <point x="636" y="876" type="line"/>
      <point x="612" y="937" type="line"/>
      <point x="588" y="877" type="line"/>
    </contour>
  </outline>
</glyph>
<glyph name="B.smcp" format="2">
  <advance width="1229"/>
  <outline>
    <contour>
      <point x="208" y="0" type="line"/>
      <point x="208" y="1165" type="line"/>
      <point x="621" y="1165" type="line" smooth="yes"/>
      <point x="696" y="1165"/>
      <point x="854" y="1134"/>
      <point x="914" y="1099" type="qcurve" smooth="yes"/>
      <point x="979" y="1061"/>
      <point x="1060" y="940"/>
      <point x="1060" y="847" type="qcurve" smooth="yes"/>
      <point x="1060" y="799"/>
      <point x="1028" y="722"/>
      <point x="1002" y="693" type="qcurve" smooth="yes" name="inserted"/>
      <point x="975" y="663"/>
      <point x="904" y="620"/>
      <point x="864" y="606" type="qcurve"/>
      <point x="913" y="594"/>
      <point x="997" y="548"/>
      <point x="1028" y="514" type="qcurve" smooth="yes" name="inserted"/>
      <point x="1058" y="479"/>
      <point x="1094" y="388"/>
      <point x="1094" y="333" type="qcurve" smooth="yes"/>
      <point x="1094.0" y="250.19221353592349"/>
      <point x="1033" y="133"/>
      <point x="980" y="91" type="qcurve" smooth="yes"/>
      <point x="918.8465737854174" y="45.13493033906295"/>
      <point x="750.2364118090605" y="0.0"/>
      <point x="663" y="0" type="qcurve" smooth="yes"/>
    </contour>
    <contour>
      <point x="395" y="530" type="line"/>
      <point x="395" y="151" type="line"/>
      <point x="663" y="151" type="line" smooth="yes"/>
      <point x="707" y="152"/>
      <point x="795" y="171"/>
      <point x="830.0" y="192.5" type="qcurve" smooth="yes" name="inserted"/>
      <point x="865" y="214"/>
      <point x="908" y="283"/>
      <point x="908" y="334" type="qcurve" smooth="yes"/>
      <point x="908" y="386"/>
      <point x="870" y="459"/>
      <point x="837.5" y="482.5" type="qcurve" smooth="yes" name="inserted"/>
      <point x="805" y="506"/>
      <point x="719" y="529"/>
      <point x="672" y="530" type="qcurve" smooth="yes"/>
    </contour>
    <contour>
      <point x="395" y="671" type="line"/>
      <point x="644" y="671" type="line" smooth="yes"/>
      <point x="684" y="672"/>
      <point x="766" y="689"/>
      <point x="799.0" y="708.5" type="qcurve" smooth="yes" name="inserted"/>
      <point x="832" y="728"/>
      <point x="875" y="792"/>
      <point x="875" y="839" type="qcurve" smooth="yes"/>
      <point x="875" y="891"/>
      <point x="829" y="958"/>
      <point x="792.0" y="977.0" type="qcurve" smooth="yes" name="inserted"/>
      <point x="755" y="996"/>
      <point x="665" y="1011"/>
      <point x="622" y="1012" type="qcurve" smooth="yes"/>
      <point x="395" y="1012" type="line"/>
    </contour>
  </outline>
</glyph>
<glyph name="Eogonek.smcp" format="2">
  <advance width="1229"/>
  <outline>
    <contour>
      <point x="965" y="526" type="line"/>
      <point x="389" y="526" type="line"/>
      <point x="389" y="151" type="line"/>
      <point x="1059" y="151" type="line"/>
      <point x="1059" y="0" type="line"/>
      <point x="924" y="0" type="line"/>
      <point x="888" y="-19"/>
      <point x="829" y="-63"/>
      <point x="807" y="-88" type="qcurve" smooth="yes"/>
      <point x="781" y="-117"/>
      <point x="752" y="-183"/>
      <point x="752" y="-219" type="qcurve" smooth="yes"/>
      <point x="752" y="-253"/>
      <point x="788" y="-294"/>
      <point x="830" y="-294" type="qcurve" smooth="yes"/>
      <point x="862" y="-295"/>
      <point x="915" y="-276"/>
      <point x="931" y="-268" type="qcurve"/>
      <point x="962" y="-389" type="line"/>
      <point x="934" y="-405"/>
      <point x="849" y="-433"/>
      <point x="784" y="-433" type="qcurve" smooth="yes"/>
      <point x="743" y="-433"/>
      <point x="673" y="-409"/>
      <point x="647" y="-385" type="qcurve" smooth="yes" name="inserted"/>
      <point x="621" y="-361"/>
      <point x="591" y="-290"/>
      <point x="591" y="-243" type="qcurve" smooth="yes"/>
      <point x="591" y="-201"/>
      <point x="628" y="-114"/>
      <point x="662" y="-74" type="qcurve" smooth="yes"/>
      <point x="679" y="-55"/>
      <point x="719" y="-17"/>
      <point x="743" y="0" type="qcurve"/>
      <point x="200" y="0" type="line"/>
      <point x="200" y="1165" type="line"/>
      <point x="1053" y="1165" type="line"/>
      <point x="1053" y="1012" type="line"/>
      <point x="389" y="1012" type="line"/>
      <point x="389" y="678" type="line"/>
      <point x="965" y="678" type="line"/>
    </contour>
  </outline>
</glyph>
